<svg xmlns="http://www.w3.org/2000/svg" viewBox="0 0 1493 74"><defs><style>.a,.b{fill:none;stroke:#000;stroke-miterlimit:10;}.a{stroke-width:10px;}.b{stroke-width:3px;stroke-dasharray:5.11 5.11;}</style></defs><title>etc</title><path d="M1303.13,62.8a6.49,6.49,0,0,1,1.76-4.76,6.39,6.39,0,0,1,4.8-1.8,6.29,6.29,0,0,1,4.76,1.8,6.64,6.64,0,0,1,1.72,4.76,6.12,6.12,0,0,1-6.56,6.48,6.26,6.26,0,0,1-4.76-1.8A6.48,6.48,0,0,1,1303.13,62.8Z" transform="translate(0 -4.21)"/><path d="M1344.25,69.28a27.23,27.23,0,0,1-10.08-1.81,23.39,23.39,0,0,1-7.8-5,22.27,22.27,0,0,1-5-7.44,23.31,23.31,0,0,1-1.8-9.13,23.12,23.12,0,0,1,7-16.74,24.78,24.78,0,0,1,17.28-6.86,26.83,26.83,0,0,1,9.64,1.69,22.68,22.68,0,0,1,7.64,4.72,21.86,21.86,0,0,1,5,7.16,22.26,22.26,0,0,1,1.8,9v3.83h-38.08a13.85,13.85,0,0,0,4.88,8,14.62,14.62,0,0,0,9.52,3,14,14,0,0,0,7.92-2.24,13.81,13.81,0,0,0,5-6l8.88,5.12a23.53,23.53,0,0,1-21.84,12.64Zm-.4-37.44a15.93,15.93,0,0,0-8.44,2.16,11.71,11.71,0,0,0-5,5.68H1357a10,10,0,0,0-4.64-5.85A16.68,16.68,0,0,0,1343.85,31.84Z" transform="translate(0 -4.21)"/><path d="M1369.05,22.4h8V15.28l10.88-7.44V22.4h9.52v9.68h-9.52V49.6a29.64,29.64,0,0,0,.32,4.92,5.16,5.16,0,0,0,1.32,2.88,5.1,5.1,0,0,0,2.88,1.32,31.44,31.44,0,0,0,5,.32V69.2h-1.52a36.22,36.22,0,0,1-9.08-1,12,12,0,0,1-5.8-3.24,13.07,13.07,0,0,1-3.08-6,39.31,39.31,0,0,1-.92-9.32V32.08h-8Z" transform="translate(0 -4.21)"/><path d="M1423.85,69.28a24.78,24.78,0,0,1-17.28-6.86,23.11,23.11,0,0,1-5.16-7.44,23.35,23.35,0,0,1,0-18.36,23.52,23.52,0,0,1,12.88-12.49,26.24,26.24,0,0,1,17-.75,24.67,24.67,0,0,1,6.36,2.95,22.49,22.49,0,0,1,5,4.48,23.67,23.67,0,0,1,3.52,5.73l-9.68,3.83a13,13,0,0,0-4.92-5.75,13.78,13.78,0,0,0-7.64-2.14,14.13,14.13,0,0,0-9.88,3.9,12.62,12.62,0,0,0-2.92,4.24,13.08,13.08,0,0,0-1,5.22,12.87,12.87,0,0,0,1,5.14,12.62,12.62,0,0,0,2.92,4.24,14,14,0,0,0,4.44,2.85,14.36,14.36,0,0,0,5.52,1,13.14,13.14,0,0,0,7.8-2.29,14.09,14.09,0,0,0,4.84-5.89l9.68,3.9a25,25,0,0,1-3.52,5.81,23,23,0,0,1-5,4.59,23.52,23.52,0,0,1-6.36,3A26.14,26.14,0,0,1,1423.85,69.28Z" transform="translate(0 -4.21)"/><line class="a" y1="69" x2="1493" y2="69"/><rect class="b" x="38.5" y="1.5" width="51" height="51" rx="11.57"/></svg>