<svg xmlns="http://www.w3.org/2000/svg" viewBox="0 0 1493 74.61"><defs><style>.a,.b{fill:none;stroke:#000;stroke-miterlimit:10;}.a{stroke-width:10px;}.b{stroke-linecap:round;stroke-width:5px;}</style></defs><title>aiff</title><path d="M1298.73,62.8a6.54,6.54,0,0,1,1.76-4.76,6.39,6.39,0,0,1,4.8-1.8,6.27,6.27,0,0,1,4.76,1.8,6.59,6.59,0,0,1,1.72,4.76,6.12,6.12,0,0,1-6.56,6.48,6.27,6.27,0,0,1-4.76-1.8A6.48,6.48,0,0,1,1298.73,62.8Z" transform="translate(0 -3.6)"/><path d="M1338.17,69.28a23.25,23.25,0,0,1-8.36-1.58,23,23,0,0,1-7.4-4.59,22.58,22.58,0,0,1-5.28-7.36,23.58,23.58,0,0,1-2-9.91,24.07,24.07,0,0,1,2-10,22.18,22.18,0,0,1,12.64-12,24.33,24.33,0,0,1,8.6-1.58,21.5,21.5,0,0,1,8.56,1.68,18,18,0,0,1,6.48,4.57V22.4h10.8V69.2h-10.8V62.55a17.66,17.66,0,0,1-6.56,4.93A20.83,20.83,0,0,1,1338.17,69.28Zm1.76-9.92a14.62,14.62,0,0,0,5.6-1,13,13,0,0,0,4.4-2.93,14.44,14.44,0,0,0,2.92-4.36,13.2,13.2,0,0,0,1.08-5.34,13.07,13.07,0,0,0-1.08-5.26,13.9,13.9,0,0,0-2.92-4.32,13.36,13.36,0,0,0-4.4-2.89,15.35,15.35,0,0,0-11.16,0,14.32,14.32,0,0,0-4.52,2.86,12.84,12.84,0,0,0-3,4.28,13.19,13.19,0,0,0-1.08,5.33,13.5,13.5,0,0,0,1.08,5.38,13.12,13.12,0,0,0,3,4.35,14.08,14.08,0,0,0,4.52,2.9A14.71,14.71,0,0,0,1339.93,59.36Z" transform="translate(0 -3.6)"/><path d="M1369,11A6.71,6.71,0,0,1,1370.81,6a7.54,7.54,0,0,1,10,0,6.81,6.81,0,0,1,1.8,4.92,6.68,6.68,0,0,1-1.8,4.88,7.77,7.77,0,0,1-10,0A6.78,6.78,0,0,1,1369,11Zm1.36,11.44h10.88V69.2h-10.88Z" transform="translate(0 -3.6)"/><path d="M1385.69,22.4h7.92v-.08a29.87,29.87,0,0,1,1.08-8.6,13.18,13.18,0,0,1,3.4-5.8,13.86,13.86,0,0,1,6-3.28,34.26,34.26,0,0,1,9.08-1h1v10a25.83,25.83,0,0,0-5.12.4,5.51,5.51,0,0,0-2.92,1.44,4.92,4.92,0,0,0-1.28,2.72,26.12,26.12,0,0,0-.28,4.24h9.6v9.68h-9.6V69.2h-11V32.08h-7.92Z" transform="translate(0 -3.6)"/><path d="M1417.37,22.4h7.92v-.08a29.87,29.87,0,0,1,1.08-8.6,13.18,13.18,0,0,1,3.4-5.8,13.86,13.86,0,0,1,6-3.28,34.26,34.26,0,0,1,9.08-1h1v10a25.83,25.83,0,0,0-5.12.4,5.51,5.51,0,0,0-2.92,1.44,4.92,4.92,0,0,0-1.28,2.72,26.12,26.12,0,0,0-.28,4.24h9.6v9.68h-9.6V69.2h-11V32.08h-7.92Z" transform="translate(0 -3.6)"/><line class="a" y1="69.61" x2="1493" y2="69.61"/><line class="b" x1="47.75" y1="13.61" x2="47.75" y2="45.61"/><line class="b" x1="80.58" y1="13.61" x2="80.58" y2="45.61"/><line class="b" x1="31.33" y1="21.61" x2="31.33" y2="37.61"/><line class="b" x1="97" y1="21.61" x2="97" y2="37.61"/><line class="b" x1="64.17" y1="5.61" x2="64.17" y2="53.61"/></svg>