<svg xmlns="http://www.w3.org/2000/svg" viewBox="0 0 1493 71.5"><defs><style>.a,.b{fill:none;stroke:#000;stroke-miterlimit:10;}.a{stroke-width:10px;}.b{stroke-linecap:round;stroke-width:5px;}</style></defs><title>m4a</title><path d="M1249.13,62.8a6.54,6.54,0,0,1,1.76-4.76,6.39,6.39,0,0,1,4.8-1.8,6.27,6.27,0,0,1,4.76,1.8,6.59,6.59,0,0,1,1.72,4.76,6.12,6.12,0,0,1-6.56,6.48,6.27,6.27,0,0,1-4.76-1.8A6.48,6.48,0,0,1,1249.13,62.8Z" transform="translate(0 -6.71)"/><path d="M1267.05,22.4h10.72v6a15.74,15.74,0,0,1,5.64-4.47,17.44,17.44,0,0,1,7.72-1.65,19.17,19.17,0,0,1,9.32,2.09,14.64,14.64,0,0,1,5.88,5.87,17.57,17.57,0,0,1,6.36-5.79,18.38,18.38,0,0,1,9-2.17q9.43,0,14.24,5.14t4.8,14.1V69.2h-11V42.54a11.68,11.68,0,0,0-2.56-7.93q-2.57-2.93-7.6-2.93a10,10,0,0,0-7.36,3c-2,2-3,5-3,9V69.2h-11v-27a11.33,11.33,0,0,0-2.48-7.74q-2.49-2.81-7.36-2.81a10.17,10.17,0,0,0-7.56,3q-3,3-3,9.14V69.2h-10.8Z" transform="translate(0 -6.71)"/><path d="M1371.61,55.76h-25V45.84l24.48-35h11.12v35h8.56v9.92h-8.56V69.2h-10.56Zm0-9.92V27l-13.28,18.8Z" transform="translate(0 -6.71)"/><path d="M1418.25,69.28a23.21,23.21,0,0,1-8.36-1.58,22.85,22.85,0,0,1-7.4-4.59,22.58,22.58,0,0,1-5.28-7.36,23.42,23.42,0,0,1-2-9.91,24.07,24.07,0,0,1,2-10,22.18,22.18,0,0,1,12.64-12,24.29,24.29,0,0,1,8.6-1.58A21.54,21.54,0,0,1,1427,24a18,18,0,0,1,6.48,4.57V22.4h10.8V69.2h-10.8V62.55a17.74,17.74,0,0,1-6.56,4.93A20.83,20.83,0,0,1,1418.25,69.28Zm1.76-9.92a14.65,14.65,0,0,0,5.6-1,13.1,13.1,0,0,0,4.4-2.93,14.63,14.63,0,0,0,2.92-4.36,13.2,13.2,0,0,0,1.08-5.34,13.07,13.07,0,0,0-1.08-5.26A14.08,14.08,0,0,0,1430,36.1a13.46,13.46,0,0,0-4.4-2.89,15.35,15.35,0,0,0-11.16,0,14.21,14.21,0,0,0-4.52,2.86,12.84,12.84,0,0,0-3,4.28,13.19,13.19,0,0,0-1.08,5.33,13.5,13.5,0,0,0,1.08,5.38,13.12,13.12,0,0,0,3,4.35,14,14,0,0,0,4.52,2.9A14.67,14.67,0,0,0,1420,59.36Z" transform="translate(0 -6.71)"/><line class="a" y1="66.5" x2="1493" y2="66.5"/><line class="b" x1="47.75" y1="10.5" x2="47.75" y2="42.5"/><line class="b" x1="80.58" y1="10.5" x2="80.58" y2="42.5"/><line class="b" x1="31.33" y1="18.5" x2="31.33" y2="34.5"/><line class="b" x1="97" y1="18.5" x2="97" y2="34.5"/><line class="b" x1="64.17" y1="2.5" x2="64.17" y2="50.5"/></svg>