<svg xmlns="http://www.w3.org/2000/svg" viewBox="0 0 1493 84.01"><defs><style>.a,.b{fill:none;stroke:#000;stroke-miterlimit:10;}.a{stroke-width:10px;}.b{stroke-linecap:round;stroke-width:5px;}</style></defs><title>mp3</title><path d="M1259.05,62.8a6.49,6.49,0,0,1,1.76-4.76,6.39,6.39,0,0,1,4.8-1.8,6.29,6.29,0,0,1,4.76,1.8,6.64,6.64,0,0,1,1.72,4.76,6.12,6.12,0,0,1-6.56,6.48,6.26,6.26,0,0,1-4.76-1.8A6.48,6.48,0,0,1,1259.05,62.8Z" transform="translate(0 -6.71)"/><path d="M1277,22.4h10.72v6a15.74,15.74,0,0,1,5.64-4.47,17.44,17.44,0,0,1,7.72-1.65,19.17,19.17,0,0,1,9.32,2.09,14.64,14.64,0,0,1,5.88,5.87,17.57,17.57,0,0,1,6.36-5.79,18.38,18.38,0,0,1,9-2.17q9.44,0,14.24,5.14t4.8,14.1V69.2h-11V42.54a11.68,11.68,0,0,0-2.56-7.93q-2.57-2.93-7.6-2.93a10,10,0,0,0-7.36,3c-2,2-3,5-3,9V69.2h-11v-27a11.33,11.33,0,0,0-2.48-7.74q-2.49-2.81-7.36-2.81a10.17,10.17,0,0,0-7.56,3q-3,3-3,9.14V69.2H1277Z" transform="translate(0 -6.71)"/><path d="M1382.8,69.28a22.51,22.51,0,0,1-8.8-1.68,16.11,16.11,0,0,1-6.48-4.8V90.72H1356.8V22.4h10.72v6.87a17.78,17.78,0,0,1,6.44-5.06,20.08,20.08,0,0,1,8.76-1.89,24,24,0,0,1,8.56,1.58,21.86,21.86,0,0,1,7.36,4.59,22.58,22.58,0,0,1,5.16,7.36,24.07,24.07,0,0,1,2,10,23.42,23.42,0,0,1-2,9.91,22.92,22.92,0,0,1-5.24,7.36,22.53,22.53,0,0,1-7.35,4.59A23.3,23.3,0,0,1,1382.8,69.28ZM1381,59.36a14.36,14.36,0,0,0,5.52-1,14.12,14.12,0,0,0,4.48-2.9,13.12,13.12,0,0,0,3-4.35,13.51,13.51,0,0,0,1.09-5.38,13.2,13.2,0,0,0-1.09-5.33,12.84,12.84,0,0,0-3-4.28,14.47,14.47,0,0,0-10-3.91,14.65,14.65,0,0,0-5.6,1.05A13.67,13.67,0,0,0,1368.17,51a13.94,13.94,0,0,0,2.87,4.36,13.1,13.1,0,0,0,4.4,2.93A14.65,14.65,0,0,0,1381,59.36Z" transform="translate(0 -6.71)"/><path d="M1426.08,69.28a27.41,27.41,0,0,1-10.28-1.88,21.74,21.74,0,0,1-8.43-6.28l9.43-7a11.78,11.78,0,0,0,4.16,4,10.51,10.51,0,0,0,5,1.24,9.37,9.37,0,0,0,6.21-2,7.06,7.06,0,0,0,2.43-5.72,7.14,7.14,0,0,0-2.76-5.88,11.24,11.24,0,0,0-7.24-2.2h-6v-10h6q4.8,0,7-2.1a6.48,6.48,0,0,0,2.24-4.91,5.54,5.54,0,0,0-2.24-4.62,11.32,11.32,0,0,0-11.47-.33,11.32,11.32,0,0,0-3.41,3.77l-9.27-4.28a18.5,18.5,0,0,1,7.39-7.59,21.13,21.13,0,0,1,10.61-2.74,26.08,26.08,0,0,1,7.76,1.1,18.15,18.15,0,0,1,6,3.12,13.92,13.92,0,0,1,3.84,4.9,15.09,15.09,0,0,1,1.36,6.46,13.15,13.15,0,0,1-1.77,6.81,16,16,0,0,1-4.88,5.13,15.54,15.54,0,0,1,5.65,5.44,15.06,15.06,0,0,1,2,7.92,18.93,18.93,0,0,1-1.28,7,15.88,15.88,0,0,1-3.72,5.6,17.53,17.53,0,0,1-6.08,3.72A23.78,23.78,0,0,1,1426.08,69.28Z" transform="translate(0 -6.71)"/><line class="a" y1="66.5" x2="1493" y2="66.5"/><line class="b" x1="47.75" y1="10.5" x2="47.75" y2="42.5"/><line class="b" x1="80.58" y1="10.5" x2="80.58" y2="42.5"/><line class="b" x1="31.33" y1="18.5" x2="31.33" y2="34.5"/><line class="b" x1="97" y1="18.5" x2="97" y2="34.5"/><line class="b" x1="64.17" y1="2.5" x2="64.17" y2="50.5"/></svg>