<svg xmlns="http://www.w3.org/2000/svg" viewBox="0 0 1493 84.25"><defs><style>.a,.b{fill:none;stroke:#000;stroke-miterlimit:10;}.a{stroke-width:10px;}.b{stroke-linecap:round;stroke-width:5px;}</style></defs><title>ogg</title><path d="M1272.73,62.8a6.54,6.54,0,0,1,1.76-4.76,6.39,6.39,0,0,1,4.8-1.8,6.27,6.27,0,0,1,4.76,1.8,6.59,6.59,0,0,1,1.72,4.76,6.12,6.12,0,0,1-6.56,6.48,6.26,6.26,0,0,1-4.76-1.8A6.48,6.48,0,0,1,1272.73,62.8Z" transform="translate(0 -6.71)"/><path d="M1313.37,69.28a25,25,0,0,1-9.48-1.81A23.52,23.52,0,0,1,1291,55a23.35,23.35,0,0,1,0-18.36,23.52,23.52,0,0,1,12.88-12.49,24.81,24.81,0,0,1,9.48-1.81,24.51,24.51,0,0,1,17.16,6.82,23.56,23.56,0,0,1,5.2,7.48,23.35,23.35,0,0,1,0,18.36,23.56,23.56,0,0,1-5.2,7.48,24.51,24.51,0,0,1-17.16,6.82Zm0-10.16a13.63,13.63,0,0,0,5.36-1,13.88,13.88,0,0,0,4.32-2.85,13.27,13.27,0,0,0,2.88-4.24,13,13,0,0,0,1-5.14,13.15,13.15,0,0,0-3.92-9.46,13.88,13.88,0,0,0-4.32-2.85,13.63,13.63,0,0,0-5.36-1.05,13.9,13.9,0,0,0-5.4,1.05,13,13,0,0,0-7.16,7.09,13.08,13.08,0,0,0-1,5.22,12.87,12.87,0,0,0,1,5.14,13,13,0,0,0,7.16,7.09A13.9,13.9,0,0,0,1313.37,59.12Z" transform="translate(0 -6.71)"/><path d="M1379.53,62.08a17.84,17.84,0,0,1-6.56,5.28,19.92,19.92,0,0,1-8.72,1.92,23.21,23.21,0,0,1-8.36-1.58,22.85,22.85,0,0,1-7.4-4.59,22.58,22.58,0,0,1-5.28-7.36,23.42,23.42,0,0,1-2-9.91,24.07,24.07,0,0,1,2-10,22.18,22.18,0,0,1,12.64-12,24.29,24.29,0,0,1,8.6-1.58,20.15,20.15,0,0,1,8.56,1.81,18.2,18.2,0,0,1,6.48,4.88V22.4h10.8v45a26.42,26.42,0,0,1-1.56,9.16,20.94,20.94,0,0,1-12.16,12.52A27.32,27.32,0,0,1,1366.09,91a31.74,31.74,0,0,1-8.28-1,25.6,25.6,0,0,1-6.68-2.8,23.46,23.46,0,0,1-5.2-4.24,26.44,26.44,0,0,1-3.84-5.4l9.6-5.84a20.5,20.5,0,0,0,5.76,7q3.19,2.32,8.8,2.32a13.25,13.25,0,0,0,5.52-1.12,12.58,12.58,0,0,0,6.84-7.28,14.67,14.67,0,0,0,.92-5.12ZM1366,59.36a14.65,14.65,0,0,0,5.6-1,13.1,13.1,0,0,0,4.4-2.93,14.63,14.63,0,0,0,2.92-4.36,13.2,13.2,0,0,0,1.08-5.34,13.07,13.07,0,0,0-1.08-5.26A14.08,14.08,0,0,0,1376,36.1a13.46,13.46,0,0,0-4.4-2.89,15.35,15.35,0,0,0-11.16,0,14.21,14.21,0,0,0-4.52,2.86,12.84,12.84,0,0,0-3,4.28,13.19,13.19,0,0,0-1.08,5.33,13.5,13.5,0,0,0,1.08,5.38,13.12,13.12,0,0,0,3,4.35,14,14,0,0,0,4.52,2.9A14.67,14.67,0,0,0,1366,59.36Z" transform="translate(0 -6.71)"/><path d="M1433.37,62.08a17.84,17.84,0,0,1-6.56,5.28,19.93,19.93,0,0,1-8.73,1.92,23.2,23.2,0,0,1-8.35-1.58,22.79,22.79,0,0,1-12.69-12,23.58,23.58,0,0,1-2-9.91,24.23,24.23,0,0,1,2-10,22.24,22.24,0,0,1,12.65-12,24.29,24.29,0,0,1,8.6-1.58,20.15,20.15,0,0,1,8.56,1.81,18.2,18.2,0,0,1,6.48,4.88V22.4h10.79v45a26.42,26.42,0,0,1-1.55,9.16,20.94,20.94,0,0,1-12.16,12.52A27.32,27.32,0,0,1,1419.93,91a31.74,31.74,0,0,1-8.28-1,25.82,25.82,0,0,1-6.69-2.8,23.63,23.63,0,0,1-5.19-4.24,26.44,26.44,0,0,1-3.84-5.4l9.6-5.84a20.5,20.5,0,0,0,5.76,7q3.2,2.32,8.79,2.32a13.27,13.27,0,0,0,5.53-1.12,12.58,12.58,0,0,0,6.84-7.28,14.67,14.67,0,0,0,.92-5.12Zm-13.52-2.72a14.65,14.65,0,0,0,5.6-1,13.1,13.1,0,0,0,4.4-2.93,14.82,14.82,0,0,0,2.92-4.36,13.2,13.2,0,0,0,1.08-5.34,13.07,13.07,0,0,0-1.08-5.26,14.25,14.25,0,0,0-2.92-4.32,13.46,13.46,0,0,0-4.4-2.89,15.35,15.35,0,0,0-11.16,0,14.1,14.1,0,0,0-4.52,2.86,12.84,12.84,0,0,0-3,4.28,13,13,0,0,0-1.08,5.33,13.33,13.33,0,0,0,1.08,5.38,13.12,13.12,0,0,0,3,4.35,13.86,13.86,0,0,0,4.52,2.9A14.67,14.67,0,0,0,1419.85,59.36Z" transform="translate(0 -6.71)"/><line class="a" y1="66.5" x2="1493" y2="66.5"/><line class="b" x1="47.75" y1="10.5" x2="47.75" y2="42.5"/><line class="b" x1="80.58" y1="10.5" x2="80.58" y2="42.5"/><line class="b" x1="31.33" y1="18.5" x2="31.33" y2="34.5"/><line class="b" x1="97" y1="18.5" x2="97" y2="34.5"/><line class="b" x1="64.17" y1="2.5" x2="64.17" y2="50.5"/></svg>