<svg xmlns="http://www.w3.org/2000/svg" viewBox="0 0 1493 71.5"><defs><style>.a,.b{fill:none;stroke:#000;stroke-miterlimit:10;}.a{stroke-width:10px;}.b{stroke-linecap:round;stroke-width:5px;}</style></defs><title>wav</title><path d="M1254.49,62.8a6.49,6.49,0,0,1,1.76-4.76,6.39,6.39,0,0,1,4.8-1.8,6.29,6.29,0,0,1,4.76,1.8,6.64,6.64,0,0,1,1.72,4.76,6.12,6.12,0,0,1-6.56,6.48,6.26,6.26,0,0,1-4.76-1.8A6.48,6.48,0,0,1,1254.49,62.8Z" transform="translate(0 -6.71)"/><path d="M1270.73,22.4h11l10.31,32.24,11.76-32.24h10.73l11.51,32.32L1336.8,22.4h11l-16.4,46.8H1321l-11.83-32.4L1297,69.2h-10.63Z" transform="translate(0 -6.71)"/><path d="M1370.33,69.28A23.21,23.21,0,0,1,1362,67.7a22.85,22.85,0,0,1-7.4-4.59,22.58,22.58,0,0,1-5.28-7.36,23.42,23.42,0,0,1-2-9.91,24.07,24.07,0,0,1,2-10,22.18,22.18,0,0,1,12.64-12,24.29,24.29,0,0,1,8.6-1.58,21.54,21.54,0,0,1,8.56,1.68,18,18,0,0,1,6.48,4.57V22.4h10.8V69.2h-10.8V62.55a17.74,17.74,0,0,1-6.56,4.93A20.83,20.83,0,0,1,1370.33,69.28Zm1.76-9.92a14.65,14.65,0,0,0,5.6-1,13.1,13.1,0,0,0,4.4-2.93A14.63,14.63,0,0,0,1385,51a13.2,13.2,0,0,0,1.08-5.34,13.07,13.07,0,0,0-1.08-5.26,14.08,14.08,0,0,0-2.92-4.32,13.46,13.46,0,0,0-4.4-2.89,15.35,15.35,0,0,0-11.16,0,14.21,14.21,0,0,0-4.52,2.86,12.84,12.84,0,0,0-3,4.28,13.19,13.19,0,0,0-1.08,5.33,13.5,13.5,0,0,0,1.08,5.38,13.12,13.12,0,0,0,3,4.35,14,14,0,0,0,4.52,2.9A14.67,14.67,0,0,0,1372.09,59.36Z" transform="translate(0 -6.71)"/><path d="M1400.08,22.4h11.29l12.08,33,11.84-33h11.12l-17.6,46.8h-10.89Z" transform="translate(0 -6.71)"/><line class="a" y1="66.5" x2="1493" y2="66.5"/><line class="b" x1="47.75" y1="10.5" x2="47.75" y2="42.5"/><line class="b" x1="80.58" y1="10.5" x2="80.58" y2="42.5"/><line class="b" x1="31.33" y1="18.5" x2="31.33" y2="34.5"/><line class="b" x1="97" y1="18.5" x2="97" y2="34.5"/><line class="b" x1="64.17" y1="2.5" x2="64.17" y2="50.5"/></svg>