<svg xmlns="http://www.w3.org/2000/svg" viewBox="0 0 1493 79.34"><defs><style>.a,.b{fill:none;stroke-miterlimit:10;}.a{stroke:#000;stroke-width:10px;}.b{stroke:#fff;stroke-linecap:round;stroke-width:2px;}</style></defs><title>7z</title><path d="M1343.93,63.93a6.49,6.49,0,0,1,1.76-4.76,6.39,6.39,0,0,1,4.8-1.8,6.29,6.29,0,0,1,4.76,1.8,6.64,6.64,0,0,1,1.72,4.76,6.12,6.12,0,0,1-6.56,6.48,6.26,6.26,0,0,1-4.76-1.8A6.48,6.48,0,0,1,1343.93,63.93Z"/><path d="M1387,22.33h-25.44V11.93h36.8v9.44l-20.24,49h-11.52Z"/><path d="M1403.37,60.49l27.2-27.36h-26.64v-9.6h40.72v9.84l-27.2,27.36h27.68v9.6h-41.76Z"/><line class="a" y1="74.34" x2="1493" y2="74.34"/><path d="M58.3,1.45,41.2,11.32a10.8,10.8,0,0,0-5.4,9.35V40.41a10.81,10.81,0,0,0,5.4,9.35l17.1,9.87a10.78,10.78,0,0,0,10.79,0l17.1-9.87a10.81,10.81,0,0,0,5.4-9.35V20.67a10.8,10.8,0,0,0-5.4-9.35L69.09,1.45A10.78,10.78,0,0,0,58.3,1.45Z"/><path class="b" d="M63.5,54.34V35.87a9.57,9.57,0,0,0-4.79-8.3L42.77,18.34"/></svg>