<svg xmlns="http://www.w3.org/2000/svg" viewBox="0 0 1493 92.09"><defs><style>.a,.b{fill:none;stroke-miterlimit:10;}.a{stroke:#000;stroke-width:10px;}.b{stroke:#fff;stroke-linecap:round;stroke-width:2px;}</style></defs><title>gz</title><path d="M1332.49,63.93a6.49,6.49,0,0,1,1.76-4.76,6.39,6.39,0,0,1,4.8-1.8,6.29,6.29,0,0,1,4.76,1.8,6.64,6.64,0,0,1,1.72,4.76,6.12,6.12,0,0,1-6.56,6.48,6.26,6.26,0,0,1-4.76-1.8A6.48,6.48,0,0,1,1332.49,63.93Z"/><path d="M1387.21,63.21a17.84,17.84,0,0,1-6.56,5.28,19.92,19.92,0,0,1-8.72,1.92,23.5,23.5,0,0,1-15.76-6.17,22.58,22.58,0,0,1-5.28-7.36,23.42,23.42,0,0,1-2-9.91,24.07,24.07,0,0,1,2-10A22.18,22.18,0,0,1,1363.49,25a24.29,24.29,0,0,1,8.6-1.58,20.15,20.15,0,0,1,8.56,1.81,18.2,18.2,0,0,1,6.48,4.88V23.53h10.8v45a26.42,26.42,0,0,1-1.56,9.16,20.94,20.94,0,0,1-12.16,12.52,27.32,27.32,0,0,1-10.44,1.86,31.74,31.74,0,0,1-8.28-1,25.6,25.6,0,0,1-6.68-2.8,23.46,23.46,0,0,1-5.2-4.24,26.44,26.44,0,0,1-3.84-5.4l9.6-5.84a20.6,20.6,0,0,0,5.76,7q3.19,2.33,8.8,2.32a13.41,13.41,0,0,0,5.52-1.12,12.58,12.58,0,0,0,6.84-7.28,14.67,14.67,0,0,0,.92-5.12Zm-13.52-2.72a14.65,14.65,0,0,0,5.6-1.05,13.1,13.1,0,0,0,4.4-2.93,14.63,14.63,0,0,0,2.92-4.36,13.2,13.2,0,0,0,1.08-5.34,13.07,13.07,0,0,0-1.08-5.26,14.08,14.08,0,0,0-2.92-4.32,13.46,13.46,0,0,0-4.4-2.89,15.35,15.35,0,0,0-11.16,0,14.21,14.21,0,0,0-4.52,2.86,12.84,12.84,0,0,0-3,4.28,13.19,13.19,0,0,0-1.08,5.33,13.5,13.5,0,0,0,1.08,5.38,13.12,13.12,0,0,0,3,4.35,14,14,0,0,0,4.52,2.9A14.67,14.67,0,0,0,1373.69,60.49Z"/><path d="M1403.37,60.49l27.2-27.36h-26.65v-9.6h40.72v9.84l-27.19,27.36h27.68v9.6h-41.76Z"/><line class="a" y1="74.34" x2="1493" y2="74.34"/><path d="M58.3,1.45,41.2,11.32a10.8,10.8,0,0,0-5.4,9.35V40.41a10.81,10.81,0,0,0,5.4,9.35l17.1,9.87a10.78,10.78,0,0,0,10.79,0l17.1-9.87a10.81,10.81,0,0,0,5.4-9.35V20.67a10.8,10.8,0,0,0-5.4-9.35L69.09,1.45A10.78,10.78,0,0,0,58.3,1.45Z"/><path class="b" d="M63.5,54.34V35.87a9.57,9.57,0,0,0-4.79-8.3L42.77,18.34"/></svg>