<svg xmlns="http://www.w3.org/2000/svg" viewBox="0 0 1493 79.34"><defs><style>.a,.b{fill:none;stroke-miterlimit:10;}.a{stroke:#000;stroke-width:10px;}.b{stroke:#fff;stroke-linecap:round;stroke-width:2px;}</style></defs><title>tar</title><path d="M1313.61,63.93a6.49,6.49,0,0,1,1.76-4.76,6.39,6.39,0,0,1,4.8-1.8,6.29,6.29,0,0,1,4.76,1.8,6.64,6.64,0,0,1,1.72,4.76,6.12,6.12,0,0,1-6.56,6.48,6.26,6.26,0,0,1-4.76-1.8A6.48,6.48,0,0,1,1313.61,63.93Z"/><path d="M1329.85,23.53h8V16.41L1348.73,9V23.53h9.52v9.68h-9.52V50.73a29.64,29.64,0,0,0,.32,4.92,5.16,5.16,0,0,0,1.32,2.88,5.1,5.1,0,0,0,2.88,1.32,31.44,31.44,0,0,0,5,.32V70.33h-1.52a36.22,36.22,0,0,1-9.08-1,12,12,0,0,1-5.8-3.24,13.07,13.07,0,0,1-3.08-6,39.31,39.31,0,0,1-.92-9.32V33.21h-8Z"/><path d="M1383.37,70.41a23.5,23.5,0,0,1-15.76-6.17,22.58,22.58,0,0,1-5.28-7.36,23.42,23.42,0,0,1-2-9.91,24.07,24.07,0,0,1,2-10A22.18,22.18,0,0,1,1374.93,25a24.29,24.29,0,0,1,8.6-1.58,21.54,21.54,0,0,1,8.56,1.68,17.84,17.84,0,0,1,6.48,4.57V23.53h10.8v46.8h-10.8V63.68a17.74,17.74,0,0,1-6.56,4.93A20.83,20.83,0,0,1,1383.37,70.41Zm1.76-9.92a14.65,14.65,0,0,0,5.6-1.05,13.1,13.1,0,0,0,4.4-2.93,14.63,14.63,0,0,0,2.92-4.36,13.2,13.2,0,0,0,1.08-5.34,13.07,13.07,0,0,0-1.08-5.26,14.08,14.08,0,0,0-2.92-4.32,13.46,13.46,0,0,0-4.4-2.89,15.35,15.35,0,0,0-11.16,0,14.21,14.21,0,0,0-4.52,2.86,12.84,12.84,0,0,0-3,4.28,13.19,13.19,0,0,0-1.08,5.33,13.5,13.5,0,0,0,1.08,5.38,13.12,13.12,0,0,0,3,4.35,14,14,0,0,0,4.52,2.9A14.67,14.67,0,0,0,1385.13,60.49Z"/><path d="M1415.92,23.53h10.72v7q3.28-7,12-7a17.64,17.64,0,0,1,4.61.56,16.36,16.36,0,0,1,3.63,1.44l-4.08,10.24a12.3,12.3,0,0,0-2.67-1.32,11.63,11.63,0,0,0-3.81-.52c-3.14,0-5.53.89-7.15,2.68s-2.45,4.71-2.45,8.76v25h-10.8Z"/><line class="a" y1="74.34" x2="1493" y2="74.34"/><path d="M58.3,1.45,41.2,11.32a10.8,10.8,0,0,0-5.4,9.35V40.41a10.81,10.81,0,0,0,5.4,9.35l17.1,9.87a10.78,10.78,0,0,0,10.79,0l17.1-9.87a10.81,10.81,0,0,0,5.4-9.35V20.67a10.8,10.8,0,0,0-5.4-9.35L69.09,1.45A10.78,10.78,0,0,0,58.3,1.45Z"/><path class="b" d="M63.5,54.34V35.87a9.57,9.57,0,0,0-4.79-8.3L42.77,18.34"/></svg>