<svg xmlns="http://www.w3.org/2000/svg" viewBox="0 0 1493 91.85"><defs><style>.a,.b{fill:none;stroke-miterlimit:10;}.a{stroke:#000;stroke-width:10px;}.b{stroke:#fff;stroke-linecap:round;stroke-width:2px;}</style></defs><title>zip</title><path d="M1315.77,63.93a6.49,6.49,0,0,1,1.76-4.76,6.39,6.39,0,0,1,4.8-1.8,6.29,6.29,0,0,1,4.76,1.8,6.64,6.64,0,0,1,1.72,4.76,6.12,6.12,0,0,1-6.56,6.48,6.26,6.26,0,0,1-4.76-1.8A6.48,6.48,0,0,1,1315.77,63.93Z"/><path d="M1332.81,60.49,1360,33.13h-26.64v-9.6h40.72v9.84l-27.2,27.36h27.68v9.6h-41.76Z"/><path d="M1378.49,12.09a6.71,6.71,0,0,1,1.84-4.92,7.54,7.54,0,0,1,10,0,6.81,6.81,0,0,1,1.8,4.92,6.68,6.68,0,0,1-1.8,4.88,7.77,7.77,0,0,1-10,0A6.74,6.74,0,0,1,1378.49,12.09Zm1.36,11.44h10.88v46.8h-10.88Z"/><path d="M1423,70.41a22.48,22.48,0,0,1-8.8-1.68,16,16,0,0,1-6.48-4.8V91.85H1397V23.53h10.72V30.4a17.7,17.7,0,0,1,6.44-5.06,20.08,20.08,0,0,1,8.76-1.89,24,24,0,0,1,8.56,1.58,22.06,22.06,0,0,1,7.36,4.59A22.88,22.88,0,0,1,1444,37a24.23,24.23,0,0,1,2,10,23.58,23.58,0,0,1-2,9.91,23.08,23.08,0,0,1-5.24,7.36,22.74,22.74,0,0,1-7.36,4.59A23.29,23.29,0,0,1,1423,70.41Zm-1.76-9.92a14.43,14.43,0,0,0,5.52-1.05,14.23,14.23,0,0,0,4.48-2.9,13.12,13.12,0,0,0,3-4.35,13.5,13.5,0,0,0,1.08-5.38,13.19,13.19,0,0,0-1.08-5.33,12.84,12.84,0,0,0-3-4.28,15,15,0,0,0-15.6-2.86,13.37,13.37,0,0,0-8.32,12.47,13.52,13.52,0,0,0,1,5.34,13.8,13.8,0,0,0,2.88,4.36,12.91,12.91,0,0,0,4.4,2.93A14.58,14.58,0,0,0,1421.21,60.49Z"/><line class="a" y1="74.34" x2="1493" y2="74.34"/><path d="M58.3,1.45,41.2,11.32a10.8,10.8,0,0,0-5.4,9.35V40.41a10.81,10.81,0,0,0,5.4,9.35l17.1,9.87a10.78,10.78,0,0,0,10.79,0l17.1-9.87a10.81,10.81,0,0,0,5.4-9.35V20.67a10.8,10.8,0,0,0-5.4-9.35L69.09,1.45A10.78,10.78,0,0,0,58.3,1.45Z"/><path class="b" d="M63.5,54.34V35.87a9.57,9.57,0,0,0-4.79-8.3L42.77,18.34"/></svg>