<svg xmlns="http://www.w3.org/2000/svg" viewBox="0 0 1493 68.21"><defs><style>.a{fill:none;stroke:#000;stroke-miterlimit:10;stroke-width:10px;}</style></defs><title>cell</title><path d="M1297.21,62.8A6.54,6.54,0,0,1,1299,58a6.39,6.39,0,0,1,4.8-1.8,6.27,6.27,0,0,1,4.76,1.8,6.59,6.59,0,0,1,1.72,4.76,6.12,6.12,0,0,1-6.56,6.48,6.27,6.27,0,0,1-4.76-1.8A6.48,6.48,0,0,1,1297.21,62.8Z" transform="translate(0 -10)"/><path d="M1337.93,69.28a24.78,24.78,0,0,1-17.28-6.86,23.11,23.11,0,0,1-5.16-7.44,23.35,23.35,0,0,1,0-18.36,23.52,23.52,0,0,1,12.88-12.49,26.24,26.24,0,0,1,17-.75,24.67,24.67,0,0,1,6.36,2.95,22.49,22.49,0,0,1,5,4.48,23.67,23.67,0,0,1,3.52,5.73l-9.68,3.83a13,13,0,0,0-4.92-5.75,13.78,13.78,0,0,0-7.64-2.14,14.13,14.13,0,0,0-9.88,3.9,12.62,12.62,0,0,0-2.92,4.24,13.08,13.08,0,0,0-1,5.22,12.87,12.87,0,0,0,1,5.14,12.62,12.62,0,0,0,2.92,4.24,14,14,0,0,0,4.44,2.85,14.36,14.36,0,0,0,5.52,1,13.14,13.14,0,0,0,7.8-2.29,14.09,14.09,0,0,0,4.84-5.89l9.68,3.9a25,25,0,0,1-3.52,5.81,23,23,0,0,1-5,4.59,23.52,23.52,0,0,1-6.36,3A26.14,26.14,0,0,1,1337.93,69.28Z" transform="translate(0 -10)"/><path d="M1387.29,69.28a27.23,27.23,0,0,1-10.08-1.81,23.39,23.39,0,0,1-7.8-5,22.27,22.27,0,0,1-5-7.44,23.31,23.31,0,0,1-1.8-9.13,23.12,23.12,0,0,1,7-16.74,24.78,24.78,0,0,1,17.28-6.86,26.83,26.83,0,0,1,9.64,1.69,22.68,22.68,0,0,1,7.64,4.72,21.86,21.86,0,0,1,5,7.16,22.26,22.26,0,0,1,1.8,9v3.83h-38.08a13.85,13.85,0,0,0,4.88,8,14.62,14.62,0,0,0,9.52,3,14,14,0,0,0,7.92-2.24,13.81,13.81,0,0,0,5-6l8.88,5.12a23.53,23.53,0,0,1-21.84,12.64Zm-.4-37.44a15.93,15.93,0,0,0-8.44,2.16,11.71,11.71,0,0,0-5,5.68H1400a10,10,0,0,0-4.64-5.85A16.68,16.68,0,0,0,1386.89,31.84Z" transform="translate(0 -10)"/><path d="M1415.77,10h10.88V69.2h-10.88Z" transform="translate(0 -10)"/><path d="M1433.29,10h10.88V69.2h-10.88Z" transform="translate(0 -10)"/><line class="a" y1="63.21" x2="1493" y2="63.21"/><rect x="26" y="35.21" width="20" height="12" rx="0.88" transform="translate(77.21 -4.79) rotate(90)"/><rect x="36.67" y="27.21" width="36" height="12" rx="1.18" transform="translate(87.88 -31.46) rotate(90)"/><rect x="58.33" y="30.21" width="30" height="12" rx="1.08" transform="translate(109.54 -47.12) rotate(90)"/><rect x="87.5" y="40.71" width="9" height="12" rx="0.59" transform="translate(138.71 -55.29) rotate(90)"/><rect x="28" y="45.21" width="72" height="4" rx="1.04"/></svg>