<svg xmlns="http://www.w3.org/2000/svg" viewBox="0 0 1493 63"><defs><style>.a{fill:none;stroke:#000;stroke-miterlimit:10;stroke-width:10px;}</style></defs><title>csv</title><path d="M1295.37,62.8a6.54,6.54,0,0,1,1.76-4.76,6.39,6.39,0,0,1,4.8-1.8,6.27,6.27,0,0,1,4.76,1.8,6.64,6.64,0,0,1,1.72,4.76,6.12,6.12,0,0,1-6.56,6.48,6.26,6.26,0,0,1-4.76-1.8A6.48,6.48,0,0,1,1295.37,62.8Z" transform="translate(0 -15.21)"/><path d="M1336.09,69.28a24.78,24.78,0,0,1-17.28-6.86,23.11,23.11,0,0,1-5.16-7.44,23.35,23.35,0,0,1,0-18.36,23.52,23.52,0,0,1,12.88-12.49,26.24,26.24,0,0,1,17-.75,24.67,24.67,0,0,1,6.36,2.95,22.49,22.49,0,0,1,5,4.48,23.67,23.67,0,0,1,3.52,5.73l-9.68,3.83a13,13,0,0,0-4.92-5.75,13.78,13.78,0,0,0-7.64-2.14,14.13,14.13,0,0,0-9.88,3.9,12.62,12.62,0,0,0-2.92,4.24,13.08,13.08,0,0,0-1,5.22,12.87,12.87,0,0,0,1,5.14,12.62,12.62,0,0,0,2.92,4.24,14,14,0,0,0,4.44,2.85,14.36,14.36,0,0,0,5.52,1,13.14,13.14,0,0,0,7.8-2.29,14.09,14.09,0,0,0,4.84-5.89l9.68,3.9a25,25,0,0,1-3.52,5.81,23,23,0,0,1-5,4.59,23.52,23.52,0,0,1-6.36,3A26.14,26.14,0,0,1,1336.09,69.28Z" transform="translate(0 -15.21)"/><path d="M1381.05,69.28q-7.77,0-12.88-2.89a19.5,19.5,0,0,1-7.92-8.35l10-4.5a11.88,11.88,0,0,0,4.56,4.73,13.28,13.28,0,0,0,6.72,1.65q4,0,6-1.6a4.78,4.78,0,0,0,2-3.82,2.47,2.47,0,0,0-.92-2,8.72,8.72,0,0,0-2.4-1.33,21,21,0,0,0-3.48-1c-1.34-.25-2.72-.53-4.16-.84-2-.4-4-.89-6-1.44a19.68,19.68,0,0,1-5.24-2.33,11.9,11.9,0,0,1-3.76-3.81,10.94,10.94,0,0,1-1.44-5.84,10.84,10.84,0,0,1,1.32-5.15,14,14,0,0,1,3.72-4.38,18.4,18.4,0,0,1,5.8-3,24.51,24.51,0,0,1,7.56-1.1,23.94,23.94,0,0,1,11.72,2.6,19.79,19.79,0,0,1,7.4,7.1l-9.2,4.35a10.26,10.26,0,0,0-4-3.72,12.4,12.4,0,0,0-5.92-1.37c-2.56,0-4.46.48-5.68,1.45a4.21,4.21,0,0,0-1.84,3.36c0,1.47.9,2.53,2.72,3.16a64.72,64.72,0,0,0,8,2,52.56,52.56,0,0,1,5.8,1.41,22.11,22.11,0,0,1,5.32,2.36,12.21,12.21,0,0,1,3.88,3.82,10.75,10.75,0,0,1,1.48,5.84,12.4,12.4,0,0,1-1.12,4.92,14.35,14.35,0,0,1-3.48,4.73,18.46,18.46,0,0,1-6,3.55A24.4,24.4,0,0,1,1381.05,69.28Z" transform="translate(0 -15.21)"/><path d="M1400.08,22.4h11.29l12.08,33,11.84-33h11.12l-17.6,46.8h-10.89Z" transform="translate(0 -15.21)"/><line class="a" y1="58" x2="1493" y2="58"/><rect x="26" y="35.21" width="20" height="12" rx="0.88" transform="translate(77.21 -10) rotate(90)"/><rect x="36.67" y="27.21" width="36" height="12" rx="1.18" transform="translate(87.88 -36.67) rotate(90)"/><rect x="58.33" y="30.21" width="30" height="12" rx="1.08" transform="translate(109.54 -52.33) rotate(90)"/><rect x="87.5" y="40.71" width="9" height="12" rx="0.59" transform="translate(138.71 -60.5) rotate(90)"/><rect x="28" y="40" width="72" height="4" rx="1.04"/></svg>