<svg xmlns="http://www.w3.org/2000/svg" viewBox="0 0 1493 68.21"><defs><style>.a{fill:none;stroke:#000;stroke-miterlimit:10;stroke-width:10px;}</style></defs><title>numbers</title><path d="M1073.29,62.8a6.54,6.54,0,0,1,1.76-4.76,6.39,6.39,0,0,1,4.8-1.8,6.27,6.27,0,0,1,4.76,1.8,6.59,6.59,0,0,1,1.72,4.76,6.12,6.12,0,0,1-6.56,6.48,6.27,6.27,0,0,1-4.76-1.8A6.48,6.48,0,0,1,1073.29,62.8Z" transform="translate(0 -10)"/><path d="M1091.21,22.4h10.72v6.39a17.17,17.17,0,0,1,5.88-4.7,18,18,0,0,1,8.12-1.77q8.71,0,13.64,5.18T1134.49,42V69.2h-11v-26q0-5.31-2.64-8.4T1113,31.68a10.55,10.55,0,0,0-7.8,3.2q-3.17,3.21-3.16,9.23V69.2h-10.8Z" transform="translate(0 -10)"/><path d="M1182.89,69.2h-10.72V63.34a15.58,15.58,0,0,1-5.6,4.36,18.28,18.28,0,0,1-7.84,1.58q-8.32,0-13.16-5.18t-4.84-14.45V22.4h11v26q0,5.31,2.44,8.4t7.56,3.09a9.68,9.68,0,0,0,7.44-3.21q3-3.19,3-9.22V22.4h10.8Z" transform="translate(0 -10)"/><path d="M1189.53,22.4h10.72v6a15.74,15.74,0,0,1,5.64-4.47,17.44,17.44,0,0,1,7.72-1.65,19.17,19.17,0,0,1,9.32,2.09,14.64,14.64,0,0,1,5.88,5.87,17.57,17.57,0,0,1,6.36-5.79,18.38,18.38,0,0,1,9-2.17q9.43,0,14.24,5.14t4.8,14.1V69.2h-11V42.54a11.68,11.68,0,0,0-2.56-7.93q-2.56-2.93-7.6-2.93a10,10,0,0,0-7.36,3c-2,2-3,5-3,9V69.2h-11v-27a11.33,11.33,0,0,0-2.48-7.74q-2.49-2.81-7.36-2.81a10.17,10.17,0,0,0-7.56,3q-3,3-3,9.14V69.2h-10.8Z" transform="translate(0 -10)"/><path d="M1295.45,69.28a21.64,21.64,0,0,1-8.8-1.76,16.86,16.86,0,0,1-6.56-5V69.2h-10.72V10h10.8V29.2a17.77,17.77,0,0,1,6.44-5,20,20,0,0,1,8.68-1.88,24,24,0,0,1,8.56,1.58,22.06,22.06,0,0,1,7.36,4.59,22.88,22.88,0,0,1,5.16,7.36,24.23,24.23,0,0,1,2,10,23.58,23.58,0,0,1-2,9.91,23.08,23.08,0,0,1-5.24,7.36,22.61,22.61,0,0,1-7.32,4.59A23,23,0,0,1,1295.45,69.28Zm-1.84-9.92a14.43,14.43,0,0,0,5.52-1,14.23,14.23,0,0,0,4.48-2.9,13.12,13.12,0,0,0,3-4.35,13.5,13.5,0,0,0,1.08-5.38,13.19,13.19,0,0,0-1.08-5.33,12.84,12.84,0,0,0-3-4.28,14.84,14.84,0,0,0-15.52-2.86,13.75,13.75,0,0,0-4.44,2.89,12.94,12.94,0,0,0-2.92,4.32,13.38,13.38,0,0,0-1,5.26,13.52,13.52,0,0,0,4,9.7,13.37,13.37,0,0,0,4.44,2.93A14.36,14.36,0,0,0,1293.61,59.36Z" transform="translate(0 -10)"/><path d="M1346.41,69.28a27.23,27.23,0,0,1-10.08-1.81,23.39,23.39,0,0,1-7.8-5,22.27,22.27,0,0,1-5-7.44,23.31,23.31,0,0,1-1.8-9.13,23.12,23.12,0,0,1,7-16.74A24.78,24.78,0,0,1,1346,22.32a26.83,26.83,0,0,1,9.64,1.69,22.68,22.68,0,0,1,7.64,4.72,21.86,21.86,0,0,1,5,7.16,22.26,22.26,0,0,1,1.8,9v3.83H1332a13.85,13.85,0,0,0,4.88,8,14.62,14.62,0,0,0,9.52,3,14,14,0,0,0,7.92-2.24,13.81,13.81,0,0,0,5-6l8.88,5.12a23.53,23.53,0,0,1-21.84,12.64Zm-.4-37.44a15.93,15.93,0,0,0-8.44,2.16,11.71,11.71,0,0,0-5,5.68h26.56a10,10,0,0,0-4.64-5.85A16.68,16.68,0,0,0,1346,31.84Z" transform="translate(0 -10)"/><path d="M1374.89,22.4h10.72v7q3.27-7,12-7a17.57,17.57,0,0,1,4.6.56,16.45,16.45,0,0,1,3.64,1.44l-4.08,10.24a12.38,12.38,0,0,0-2.68-1.32,11.61,11.61,0,0,0-3.8-.52q-4.72,0-7.16,2.68t-2.44,8.76v25h-10.8Z" transform="translate(0 -10)"/><path d="M1426.57,69.28q-7.77,0-12.88-2.89a19.5,19.5,0,0,1-7.92-8.35l10-4.5a11.88,11.88,0,0,0,4.56,4.73,13.28,13.28,0,0,0,6.72,1.65q4,0,6-1.6a4.78,4.78,0,0,0,2-3.82,2.47,2.47,0,0,0-.92-2,8.72,8.72,0,0,0-2.4-1.33,21,21,0,0,0-3.48-1c-1.34-.25-2.72-.53-4.16-.84-2-.4-4-.89-6-1.44a19.68,19.68,0,0,1-5.24-2.33,11.9,11.9,0,0,1-3.76-3.81,10.94,10.94,0,0,1-1.44-5.84,10.84,10.84,0,0,1,1.32-5.15,14,14,0,0,1,3.72-4.38,18.4,18.4,0,0,1,5.8-3,24.51,24.51,0,0,1,7.56-1.1,23.94,23.94,0,0,1,11.72,2.6,19.79,19.79,0,0,1,7.4,7.1l-9.2,4.35a10.26,10.26,0,0,0-4-3.72,12.4,12.4,0,0,0-5.92-1.37c-2.56,0-4.46.48-5.68,1.45a4.21,4.21,0,0,0-1.84,3.36c0,1.47.9,2.53,2.72,3.16a64.72,64.72,0,0,0,8,2,52.56,52.56,0,0,1,5.8,1.41,22.11,22.11,0,0,1,5.32,2.36,12.21,12.21,0,0,1,3.88,3.82,10.75,10.75,0,0,1,1.48,5.84,12.4,12.4,0,0,1-1.12,4.92,14.35,14.35,0,0,1-3.48,4.73,18.46,18.46,0,0,1-6,3.55A24.4,24.4,0,0,1,1426.57,69.28Z" transform="translate(0 -10)"/><line class="a" y1="63.21" x2="1493" y2="63.21"/><rect x="26" y="35.21" width="20" height="12" rx="0.88" transform="translate(77.21 -4.79) rotate(90)"/><rect x="36.67" y="27.21" width="36" height="12" rx="1.18" transform="translate(87.88 -31.46) rotate(90)"/><rect x="58.33" y="30.21" width="30" height="12" rx="1.08" transform="translate(109.54 -47.12) rotate(90)"/><rect x="87.5" y="40.71" width="9" height="12" rx="0.59" transform="translate(138.71 -55.29) rotate(90)"/><rect x="28" y="45.21" width="72" height="4" rx="1.04"/></svg>