<svg xmlns="http://www.w3.org/2000/svg" viewBox="0 0 1493 68.21"><defs><style>.a{fill:none;stroke:#000;stroke-miterlimit:10;stroke-width:10px;}</style></defs><title>ods</title><path d="M1285.29,62.8a6.54,6.54,0,0,1,1.76-4.76,6.39,6.39,0,0,1,4.8-1.8,6.27,6.27,0,0,1,4.76,1.8,6.59,6.59,0,0,1,1.72,4.76,6.12,6.12,0,0,1-6.56,6.48,6.27,6.27,0,0,1-4.76-1.8A6.48,6.48,0,0,1,1285.29,62.8Z" transform="translate(0 -10)"/><path d="M1325.93,69.28a25,25,0,0,1-9.48-1.81A23.52,23.52,0,0,1,1303.57,55a23.35,23.35,0,0,1,0-18.36,23.52,23.52,0,0,1,12.88-12.49,24.81,24.81,0,0,1,9.48-1.81,24.51,24.51,0,0,1,17.16,6.82,23.56,23.56,0,0,1,5.2,7.48,23.35,23.35,0,0,1,0,18.36,23.56,23.56,0,0,1-5.2,7.48,24.51,24.51,0,0,1-17.16,6.82Zm0-10.16a13.63,13.63,0,0,0,5.36-1,13.88,13.88,0,0,0,4.32-2.85,13.27,13.27,0,0,0,2.88-4.24,13,13,0,0,0,1-5.14,13.15,13.15,0,0,0-3.92-9.46,13.88,13.88,0,0,0-4.32-2.85,13.63,13.63,0,0,0-5.36-1.05,13.9,13.9,0,0,0-5.4,1.05,13,13,0,0,0-7.16,7.09,13.08,13.08,0,0,0-1,5.22,12.87,12.87,0,0,0,1,5.14,13,13,0,0,0,7.16,7.09A13.9,13.9,0,0,0,1325.93,59.12Z" transform="translate(0 -10)"/><path d="M1376.81,69.28a23.21,23.21,0,0,1-8.36-1.58,22.85,22.85,0,0,1-7.4-4.59,22.58,22.58,0,0,1-5.28-7.36,23.42,23.42,0,0,1-2-9.91,24.07,24.07,0,0,1,2-10,22.18,22.18,0,0,1,12.64-12,24.29,24.29,0,0,1,8.6-1.58,20.84,20.84,0,0,1,8.48,1.72,17.58,17.58,0,0,1,6.48,4.76V10h10.88V69.2H1392V62.55a17.74,17.74,0,0,1-6.56,4.93A20.83,20.83,0,0,1,1376.81,69.28Zm1.76-9.92a14.65,14.65,0,0,0,5.6-1,13.1,13.1,0,0,0,4.4-2.93,14.63,14.63,0,0,0,2.92-4.36,13.2,13.2,0,0,0,1.08-5.34,13.07,13.07,0,0,0-1.08-5.26,14.08,14.08,0,0,0-2.92-4.32,13.46,13.46,0,0,0-4.4-2.89,15.35,15.35,0,0,0-11.16,0,14.21,14.21,0,0,0-4.52,2.86,12.84,12.84,0,0,0-3,4.28,13.19,13.19,0,0,0-1.08,5.33,13.5,13.5,0,0,0,1.08,5.38,13.12,13.12,0,0,0,3,4.35,14,14,0,0,0,4.52,2.9A14.67,14.67,0,0,0,1378.57,59.36Z" transform="translate(0 -10)"/><path d="M1426.57,69.28q-7.77,0-12.88-2.89a19.5,19.5,0,0,1-7.92-8.35l10-4.5a11.88,11.88,0,0,0,4.56,4.73,13.28,13.28,0,0,0,6.72,1.65q4,0,6-1.6a4.78,4.78,0,0,0,2-3.82,2.47,2.47,0,0,0-.92-2,8.72,8.72,0,0,0-2.4-1.33,21,21,0,0,0-3.48-1c-1.34-.25-2.72-.53-4.16-.84-2-.4-4-.89-6-1.44a19.68,19.68,0,0,1-5.24-2.33,11.9,11.9,0,0,1-3.76-3.81,10.94,10.94,0,0,1-1.44-5.84,10.84,10.84,0,0,1,1.32-5.15,14,14,0,0,1,3.72-4.38,18.4,18.4,0,0,1,5.8-3,24.51,24.51,0,0,1,7.56-1.1,23.94,23.94,0,0,1,11.72,2.6,19.79,19.79,0,0,1,7.4,7.1l-9.2,4.35a10.26,10.26,0,0,0-4-3.72,12.4,12.4,0,0,0-5.92-1.37c-2.56,0-4.46.48-5.68,1.45a4.21,4.21,0,0,0-1.84,3.36c0,1.47.9,2.53,2.72,3.16a64.72,64.72,0,0,0,8,2,52.56,52.56,0,0,1,5.8,1.41,22.11,22.11,0,0,1,5.32,2.36,12.21,12.21,0,0,1,3.88,3.82,10.75,10.75,0,0,1,1.48,5.84,12.4,12.4,0,0,1-1.12,4.92,14.35,14.35,0,0,1-3.48,4.73,18.46,18.46,0,0,1-6,3.55A24.4,24.4,0,0,1,1426.57,69.28Z" transform="translate(0 -10)"/><line class="a" y1="63.21" x2="1493" y2="63.21"/><rect x="26" y="35.21" width="20" height="12" rx="0.88" transform="translate(77.21 -4.79) rotate(90)"/><rect x="36.67" y="27.21" width="36" height="12" rx="1.18" transform="translate(87.88 -31.46) rotate(90)"/><rect x="58.33" y="30.21" width="30" height="12" rx="1.08" transform="translate(109.54 -47.12) rotate(90)"/><rect x="87.5" y="40.71" width="9" height="12" rx="0.59" transform="translate(138.71 -55.29) rotate(90)"/><rect x="28" y="45.21" width="72" height="4" rx="1.04"/></svg>