<svg xmlns="http://www.w3.org/2000/svg" viewBox="0 0 1493 76.24"><defs><style>.a{fill:none;stroke:#000;stroke-miterlimit:10;stroke-width:10px;}</style></defs><title>ai</title><path d="M1361.69,62.8a6.49,6.49,0,0,1,1.76-4.76,6.39,6.39,0,0,1,4.8-1.8A6.29,6.29,0,0,1,1373,58a6.64,6.64,0,0,1,1.72,4.76,6.12,6.12,0,0,1-6.56,6.48,6.26,6.26,0,0,1-4.76-1.8A6.48,6.48,0,0,1,1361.69,62.8Z" transform="translate(0 -1.97)"/><path d="M1401.13,69.28a23.21,23.21,0,0,1-8.36-1.58,22.85,22.85,0,0,1-7.4-4.59,22.58,22.58,0,0,1-5.28-7.36,23.42,23.42,0,0,1-2-9.91,24.07,24.07,0,0,1,2-10,22.18,22.18,0,0,1,12.64-12,24.29,24.29,0,0,1,8.6-1.58,21.54,21.54,0,0,1,8.56,1.68,18,18,0,0,1,6.48,4.57V22.4h10.8V69.2h-10.8V62.55a17.74,17.74,0,0,1-6.56,4.93A20.83,20.83,0,0,1,1401.13,69.28Zm1.76-9.92a14.65,14.65,0,0,0,5.6-1,13.1,13.1,0,0,0,4.4-2.93,14.63,14.63,0,0,0,2.92-4.36,13.2,13.2,0,0,0,1.08-5.34,13.07,13.07,0,0,0-1.08-5.26,14.08,14.08,0,0,0-2.92-4.32,13.46,13.46,0,0,0-4.4-2.89,15.35,15.35,0,0,0-11.16,0,14.21,14.21,0,0,0-4.52,2.86,12.84,12.84,0,0,0-3,4.28,13.19,13.19,0,0,0-1.08,5.33,13.5,13.5,0,0,0,1.08,5.38,13.12,13.12,0,0,0,3,4.35,14,14,0,0,0,4.52,2.9A14.67,14.67,0,0,0,1402.89,59.36Z" transform="translate(0 -1.97)"/><path d="M1431.93,11A6.71,6.71,0,0,1,1433.77,6a7.54,7.54,0,0,1,10,0,6.81,6.81,0,0,1,1.8,4.92,6.68,6.68,0,0,1-1.8,4.88,7.77,7.77,0,0,1-10,0A6.74,6.74,0,0,1,1431.93,11Zm1.36,11.44h10.88V69.2h-10.88Z" transform="translate(0 -1.97)"/><line class="a" y1="71.24" x2="1493" y2="71.24"/><path d="M93.2,2.05,33.29,12A6.33,6.33,0,0,0,28,18.19h0v6.54h0A6.31,6.31,0,0,0,33.29,31l11.87,2c6.56,1.08,6.56,10.5,0,11.59l-12.24,2A5.88,5.88,0,0,0,28,52.34h0a5.87,5.87,0,0,0,6.83,5.79l59.91-9.9A6.32,6.32,0,0,0,100,42h0V35.45h0a6.31,6.31,0,0,0-5.29-6.23l-11.88-2c-6.55-1.08-6.55-10.5,0-11.58l12.25-2A5.87,5.87,0,0,0,100,7.85h0A5.88,5.88,0,0,0,93.2,2.05Z" transform="translate(0 -1.97)"/></svg>