<svg xmlns="http://www.w3.org/2000/svg" viewBox="0 0 1493 76.24"><defs><style>.a{fill:none;stroke:#000;stroke-miterlimit:10;stroke-width:10px;}</style></defs><title>ico</title><path d="M1314.73,62.8a6.49,6.49,0,0,1,1.76-4.76,6.39,6.39,0,0,1,4.8-1.8,6.29,6.29,0,0,1,4.76,1.8,6.64,6.64,0,0,1,1.72,4.76,6.12,6.12,0,0,1-6.56,6.48,6.26,6.26,0,0,1-4.76-1.8A6.48,6.48,0,0,1,1314.73,62.8Z" transform="translate(0 -1.97)"/><path d="M1331.29,11A6.71,6.71,0,0,1,1333.13,6a7.54,7.54,0,0,1,10,0,6.81,6.81,0,0,1,1.8,4.92,6.68,6.68,0,0,1-1.8,4.88,7.77,7.77,0,0,1-10,0A6.74,6.74,0,0,1,1331.29,11Zm1.36,11.44h10.88V69.2h-10.88Z" transform="translate(0 -1.97)"/><path d="M1372.57,69.28a24.78,24.78,0,0,1-17.28-6.86,23.11,23.11,0,0,1-5.16-7.44,23.35,23.35,0,0,1,0-18.36A23.52,23.52,0,0,1,1363,24.13a26.24,26.24,0,0,1,17-.75,24.67,24.67,0,0,1,6.36,2.95,22.49,22.49,0,0,1,5,4.48,23.67,23.67,0,0,1,3.52,5.73l-9.68,3.83a13,13,0,0,0-4.92-5.75,13.78,13.78,0,0,0-7.64-2.14,14.13,14.13,0,0,0-9.88,3.9,12.62,12.62,0,0,0-2.92,4.24,13.08,13.08,0,0,0-1,5.22,12.87,12.87,0,0,0,1,5.14,12.62,12.62,0,0,0,2.92,4.24,14,14,0,0,0,4.44,2.85,14.36,14.36,0,0,0,5.52,1,13.14,13.14,0,0,0,7.8-2.29,14.09,14.09,0,0,0,4.84-5.89l9.68,3.9a25,25,0,0,1-3.52,5.81,23,23,0,0,1-5,4.59,23.52,23.52,0,0,1-6.36,3A26.14,26.14,0,0,1,1372.57,69.28Z" transform="translate(0 -1.97)"/><path d="M1421.45,69.28a25,25,0,0,1-9.48-1.81A23.52,23.52,0,0,1,1399.09,55a23.35,23.35,0,0,1,0-18.36A23.52,23.52,0,0,1,1412,24.13a24.81,24.81,0,0,1,9.48-1.81,24.51,24.51,0,0,1,17.16,6.82,23.56,23.56,0,0,1,5.2,7.48,23.35,23.35,0,0,1,0,18.36,23.56,23.56,0,0,1-5.2,7.48,24.51,24.51,0,0,1-17.16,6.82Zm0-10.16a13.63,13.63,0,0,0,5.36-1,13.88,13.88,0,0,0,4.32-2.85A13.27,13.27,0,0,0,1434,51a13,13,0,0,0,1-5.14,13.15,13.15,0,0,0-3.92-9.46,13.88,13.88,0,0,0-4.32-2.85,13.63,13.63,0,0,0-5.36-1.05,13.9,13.9,0,0,0-5.4,1.05,13,13,0,0,0-7.16,7.09,13.08,13.08,0,0,0-1,5.22,12.87,12.87,0,0,0,1,5.14,13,13,0,0,0,7.16,7.09A13.9,13.9,0,0,0,1421.45,59.12Z" transform="translate(0 -1.97)"/><line class="a" y1="71.24" x2="1493" y2="71.24"/><path d="M93.2,2.05,33.29,12A6.33,6.33,0,0,0,28,18.19h0v6.54h0A6.31,6.31,0,0,0,33.29,31l11.87,2c6.56,1.08,6.56,10.5,0,11.59l-12.24,2A5.88,5.88,0,0,0,28,52.34h0a5.87,5.87,0,0,0,6.83,5.79l59.91-9.9A6.32,6.32,0,0,0,100,42h0V35.45h0a6.31,6.31,0,0,0-5.29-6.23l-11.88-2c-6.55-1.08-6.55-10.5,0-11.58l12.25-2A5.87,5.87,0,0,0,100,7.85h0A5.88,5.88,0,0,0,93.2,2.05Z" transform="translate(0 -1.97)"/></svg>