<svg xmlns="http://www.w3.org/2000/svg" viewBox="0 0 1493 88.99"><defs><style>.a{fill:none;stroke:#000;stroke-miterlimit:10;stroke-width:10px;}</style></defs><title>svg</title><path d="M1295.29,62.8a6.49,6.49,0,0,1,1.76-4.76,6.39,6.39,0,0,1,4.8-1.8,6.29,6.29,0,0,1,4.76,1.8,6.64,6.64,0,0,1,1.72,4.76,6.12,6.12,0,0,1-6.56,6.48,6.26,6.26,0,0,1-4.76-1.8A6.48,6.48,0,0,1,1295.29,62.8Z" transform="translate(0 -1.97)"/><path d="M1330.81,69.28q-7.77,0-12.88-2.89A19.5,19.5,0,0,1,1310,58l10-4.5a11.88,11.88,0,0,0,4.56,4.73,13.28,13.28,0,0,0,6.72,1.65q4,0,6-1.6a4.78,4.78,0,0,0,2-3.82,2.47,2.47,0,0,0-.92-2,8.72,8.72,0,0,0-2.4-1.33,21,21,0,0,0-3.48-1c-1.34-.25-2.72-.53-4.16-.84-2-.4-4-.89-6-1.44a19.68,19.68,0,0,1-5.24-2.33,11.9,11.9,0,0,1-3.76-3.81,10.94,10.94,0,0,1-1.44-5.84,10.84,10.84,0,0,1,1.32-5.15,14,14,0,0,1,3.72-4.38,18.4,18.4,0,0,1,5.8-3,24.51,24.51,0,0,1,7.56-1.1,23.94,23.94,0,0,1,11.72,2.6,19.79,19.79,0,0,1,7.4,7.1l-9.2,4.35a10.26,10.26,0,0,0-4-3.72,12.4,12.4,0,0,0-5.92-1.37c-2.56,0-4.46.48-5.68,1.45a4.21,4.21,0,0,0-1.84,3.36c0,1.47.9,2.53,2.72,3.16a64.72,64.72,0,0,0,8,2,52.56,52.56,0,0,1,5.8,1.41,22.11,22.11,0,0,1,5.32,2.36,12.21,12.21,0,0,1,3.88,3.82,10.75,10.75,0,0,1,1.48,5.84,12.4,12.4,0,0,1-1.12,4.92,14.35,14.35,0,0,1-3.48,4.73,18.46,18.46,0,0,1-6,3.55A24.4,24.4,0,0,1,1330.81,69.28Z" transform="translate(0 -1.97)"/><path d="M1349.84,22.4h11.29l12.08,33,11.83-33h11.13l-17.6,46.8h-10.89Z" transform="translate(0 -1.97)"/><path d="M1433.37,62.08a17.84,17.84,0,0,1-6.56,5.28,19.93,19.93,0,0,1-8.73,1.92,23.2,23.2,0,0,1-8.35-1.58,22.79,22.79,0,0,1-12.69-12,23.58,23.58,0,0,1-2-9.91,24.23,24.23,0,0,1,2-10,22.24,22.24,0,0,1,12.65-12,24.29,24.29,0,0,1,8.6-1.58,20.15,20.15,0,0,1,8.56,1.81,18.2,18.2,0,0,1,6.48,4.88V22.4h10.79v45a26.42,26.42,0,0,1-1.55,9.16,20.94,20.94,0,0,1-12.16,12.52A27.32,27.32,0,0,1,1419.93,91a31.74,31.74,0,0,1-8.28-1,25.82,25.82,0,0,1-6.69-2.8,23.63,23.63,0,0,1-5.19-4.24,26.44,26.44,0,0,1-3.84-5.4l9.6-5.84a20.5,20.5,0,0,0,5.76,7q3.2,2.32,8.79,2.32a13.27,13.27,0,0,0,5.53-1.12,12.58,12.58,0,0,0,6.84-7.28,14.67,14.67,0,0,0,.92-5.12Zm-13.52-2.72a14.65,14.65,0,0,0,5.6-1,13.1,13.1,0,0,0,4.4-2.93,14.82,14.82,0,0,0,2.92-4.36,13.2,13.2,0,0,0,1.08-5.34,13.07,13.07,0,0,0-1.08-5.26,14.25,14.25,0,0,0-2.92-4.32,13.46,13.46,0,0,0-4.4-2.89,15.35,15.35,0,0,0-11.16,0,14.1,14.1,0,0,0-4.52,2.86,12.84,12.84,0,0,0-3,4.28,13,13,0,0,0-1.08,5.33,13.33,13.33,0,0,0,1.08,5.38,13.12,13.12,0,0,0,3,4.35,13.86,13.86,0,0,0,4.52,2.9A14.67,14.67,0,0,0,1419.85,59.36Z" transform="translate(0 -1.97)"/><line class="a" y1="71.24" x2="1493" y2="71.24"/><path d="M93.2,2.05,33.29,12A6.33,6.33,0,0,0,28,18.19h0v6.54h0A6.31,6.31,0,0,0,33.29,31l11.87,2c6.56,1.08,6.56,10.5,0,11.59l-12.24,2A5.88,5.88,0,0,0,28,52.34h0a5.87,5.87,0,0,0,6.83,5.79l59.91-9.9A6.32,6.32,0,0,0,100,42h0V35.45h0a6.31,6.31,0,0,0-5.29-6.23l-11.88-2c-6.55-1.08-6.55-10.5,0-11.58l12.25-2A5.87,5.87,0,0,0,100,7.85h0A5.88,5.88,0,0,0,93.2,2.05Z" transform="translate(0 -1.97)"/></svg>