<svg xmlns="http://www.w3.org/2000/svg" viewBox="0 0 1493 76.24"><defs><style>.a{fill:none;stroke:#000;stroke-miterlimit:10;stroke-width:10px;}</style></defs><title>tiff</title><path d="M1320.49,62.8a6.54,6.54,0,0,1,1.76-4.76,6.39,6.39,0,0,1,4.8-1.8,6.27,6.27,0,0,1,4.76,1.8,6.59,6.59,0,0,1,1.72,4.76,6.12,6.12,0,0,1-6.56,6.48,6.27,6.27,0,0,1-4.76-1.8A6.48,6.48,0,0,1,1320.49,62.8Z" transform="translate(0 -1.97)"/><path d="M1336.73,22.4h8V15.28l10.88-7.44V22.4h9.52v9.68h-9.52V49.6a29.64,29.64,0,0,0,.32,4.92,4.55,4.55,0,0,0,4.2,4.2,31.44,31.44,0,0,0,5,.32V69.2h-1.52a36.27,36.27,0,0,1-9.08-1,12,12,0,0,1-5.8-3.24,13.07,13.07,0,0,1-3.08-6,39.84,39.84,0,0,1-.92-9.32V32.08h-8Z" transform="translate(0 -1.97)"/><path d="M1369,11A6.71,6.71,0,0,1,1370.81,6a7.54,7.54,0,0,1,10,0,6.81,6.81,0,0,1,1.8,4.92,6.68,6.68,0,0,1-1.8,4.88,7.77,7.77,0,0,1-10,0A6.74,6.74,0,0,1,1369,11Zm1.36,11.44h10.88V69.2h-10.88Z" transform="translate(0 -1.97)"/><path d="M1385.69,22.4h7.92v-.08a29.87,29.87,0,0,1,1.08-8.6,13.18,13.18,0,0,1,3.4-5.8,13.86,13.86,0,0,1,6-3.28,34.26,34.26,0,0,1,9.08-1h1v10a25.83,25.83,0,0,0-5.12.4,5.51,5.51,0,0,0-2.92,1.44,4.92,4.92,0,0,0-1.28,2.72,26.12,26.12,0,0,0-.28,4.24h9.6v9.68h-9.6V69.2h-11V32.08h-7.92Z" transform="translate(0 -1.97)"/><path d="M1417.37,22.4h7.92v-.08a29.87,29.87,0,0,1,1.08-8.6,13.18,13.18,0,0,1,3.4-5.8,13.86,13.86,0,0,1,6-3.28,34.26,34.26,0,0,1,9.08-1h1v10a25.83,25.83,0,0,0-5.12.4,5.51,5.51,0,0,0-2.92,1.44,4.92,4.92,0,0,0-1.28,2.72,26.12,26.12,0,0,0-.28,4.24h9.6v9.68h-9.6V69.2h-11V32.08h-7.92Z" transform="translate(0 -1.97)"/><line class="a" y1="71.24" x2="1493" y2="71.24"/><path d="M93.2,2.05,33.29,12A6.33,6.33,0,0,0,28,18.19h0v6.54h0A6.31,6.31,0,0,0,33.29,31l11.87,2c6.56,1.08,6.56,10.5,0,11.59l-12.24,2A5.88,5.88,0,0,0,28,52.34h0a5.87,5.87,0,0,0,6.83,5.79l59.91-9.9A6.32,6.32,0,0,0,100,42h0V35.45h0a6.31,6.31,0,0,0-5.29-6.23l-11.88-2c-6.55-1.08-6.55-10.5,0-11.58l12.25-2A5.87,5.87,0,0,0,100,7.85h0A5.88,5.88,0,0,0,93.2,2.05Z" transform="translate(0 -1.97)"/></svg>