<svg xmlns="http://www.w3.org/2000/svg" viewBox="0 0 1493 85.51"><defs><style>.a{fill:none;stroke:#000;stroke-miterlimit:10;stroke-width:10px;}</style></defs><title>key</title><path d="M1291.29,62.8A6.53,6.53,0,0,1,1293,58a6.43,6.43,0,0,1,4.81-1.8,6.29,6.29,0,0,1,4.76,1.8,6.64,6.64,0,0,1,1.72,4.76,6.12,6.12,0,0,1-6.56,6.48,6.26,6.26,0,0,1-4.76-1.8A6.48,6.48,0,0,1,1291.29,62.8Z" transform="translate(0 -5.21)"/><path d="M1309.2,10H1320V45l19.92-22.56h13L1334.8,42.64l18.72,26.56h-12.08l-14-20.16L1320,57.28V69.2h-10.8Z" transform="translate(0 -5.21)"/><path d="M1375.29,69.28a27.19,27.19,0,0,1-10.08-1.81,23.29,23.29,0,0,1-7.8-5,22.13,22.13,0,0,1-5-7.44,23.32,23.32,0,0,1-1.81-9.13,23.23,23.23,0,0,1,7-16.74,24.83,24.83,0,0,1,17.28-6.86,26.79,26.79,0,0,1,9.64,1.69,22.73,22.73,0,0,1,7.65,4.72,22,22,0,0,1,5,7.16,22.25,22.25,0,0,1,1.79,9v3.83h-38.08a14,14,0,0,0,4.88,8,14.67,14.67,0,0,0,9.53,3,14,14,0,0,0,7.92-2.24,13.81,13.81,0,0,0,5-6l8.88,5.12a23.56,23.56,0,0,1-21.84,12.64Zm-.41-37.44a15.92,15.92,0,0,0-8.43,2.16,11.71,11.71,0,0,0-5,5.68H1388a9.9,9.9,0,0,0-4.63-5.85A16.69,16.69,0,0,0,1374.88,31.84Z" transform="translate(0 -5.21)"/><path d="M1417.53,67.17l-19.2-44.77h11.52l13,32,12.32-32h11.36l-27.92,68.32h-11Z" transform="translate(0 -5.21)"/><line class="a" y1="68" x2="1493" y2="68"/><rect x="27.7" width="72" height="40" rx="3.06"/><rect x="27.7" y="44" width="72" height="9" rx="3.06"/></svg>