<svg xmlns="http://www.w3.org/2000/svg" viewBox="0 0 1493 85.51"><defs><style>.a{fill:none;stroke:#000;stroke-miterlimit:10;stroke-width:10px;}</style></defs><title>ppsx</title><path d="M1238.25,62.8A6.49,6.49,0,0,1,1240,58a6.39,6.39,0,0,1,4.8-1.8,6.29,6.29,0,0,1,4.76,1.8,6.64,6.64,0,0,1,1.72,4.76,6.12,6.12,0,0,1-6.56,6.48,6.26,6.26,0,0,1-4.76-1.8A6.48,6.48,0,0,1,1238.25,62.8Z" transform="translate(0 -5.21)"/><path d="M1282.17,69.28a22.44,22.44,0,0,1-8.8-1.68,16.08,16.08,0,0,1-6.49-4.8V90.72h-10.71V22.4h10.71v6.87a17.73,17.73,0,0,1,6.45-5.06,20,20,0,0,1,8.75-1.89,24,24,0,0,1,8.56,1.58,21.86,21.86,0,0,1,7.36,4.59,22.75,22.75,0,0,1,5.17,7.36,24.23,24.23,0,0,1,2,10,23.58,23.58,0,0,1-2,9.91,23.1,23.1,0,0,1-5.25,7.36,22.53,22.53,0,0,1-7.35,4.59A23.29,23.29,0,0,1,1282.17,69.28Zm-1.76-9.92a14.34,14.34,0,0,0,5.51-1,14.16,14.16,0,0,0,4.49-2.9,13.37,13.37,0,0,0,4.08-9.73,13.05,13.05,0,0,0-4.08-9.61,14.52,14.52,0,0,0-10-3.91,14.67,14.67,0,0,0-5.61,1.05,13.38,13.38,0,0,0-8.31,12.47,13.52,13.52,0,0,0,1,5.34,13.8,13.8,0,0,0,2.88,4.36,13,13,0,0,0,4.39,2.93A14.67,14.67,0,0,0,1280.41,59.36Z" transform="translate(0 -5.21)"/><path d="M1335.61,69.28a22.48,22.48,0,0,1-8.8-1.68,16,16,0,0,1-6.48-4.8V90.72h-10.72V22.4h10.72v6.87a17.7,17.7,0,0,1,6.44-5.06,20.08,20.08,0,0,1,8.76-1.89,23.94,23.94,0,0,1,8.55,1.58,22,22,0,0,1,7.37,4.59,22.88,22.88,0,0,1,5.16,7.36,24.23,24.23,0,0,1,2,10,23.58,23.58,0,0,1-2,9.91,23.08,23.08,0,0,1-5.24,7.36A22.57,22.57,0,0,1,1344,67.7,23.29,23.29,0,0,1,1335.61,69.28Zm-1.76-9.92a14.43,14.43,0,0,0,5.52-1,14.23,14.23,0,0,0,4.48-2.9,13.12,13.12,0,0,0,3-4.35,13.5,13.5,0,0,0,1.08-5.38,13.19,13.19,0,0,0-1.08-5.33,12.84,12.84,0,0,0-3-4.28,15,15,0,0,0-15.6-2.86,13.37,13.37,0,0,0-8.32,12.47,13.52,13.52,0,0,0,1,5.34,13.8,13.8,0,0,0,2.88,4.36,12.91,12.91,0,0,0,4.4,2.93A14.58,14.58,0,0,0,1333.85,59.36Z" transform="translate(0 -5.21)"/><path d="M1380.64,69.28q-7.76,0-12.88-2.89a19.62,19.62,0,0,1-7.92-8.35l10-4.5a11.83,11.83,0,0,0,4.57,4.73,13.26,13.26,0,0,0,6.72,1.65q4,0,6-1.6a4.78,4.78,0,0,0,2-3.82,2.47,2.47,0,0,0-.92-2,8.64,8.64,0,0,0-2.41-1.33,20.63,20.63,0,0,0-3.47-1c-1.34-.25-2.73-.53-4.16-.84-2-.4-4-.89-6-1.44a19.9,19.9,0,0,1-5.25-2.33,12,12,0,0,1-3.75-3.81,11.58,11.58,0,0,1-.13-11,14.12,14.12,0,0,1,3.72-4.38,18.62,18.62,0,0,1,5.8-3,24.62,24.62,0,0,1,7.57-1.1,23.9,23.9,0,0,1,11.71,2.6,19.82,19.82,0,0,1,7.41,7.1l-9.21,4.35a10.12,10.12,0,0,0-4-3.72,12.34,12.34,0,0,0-5.91-1.37c-2.57,0-4.46.48-5.69,1.45a4.24,4.24,0,0,0-1.84,3.36c0,1.47.91,2.53,2.73,3.16a64.25,64.25,0,0,0,8,2,52.56,52.56,0,0,1,5.8,1.41,22,22,0,0,1,5.31,2.36,12.24,12.24,0,0,1,3.89,3.82,10.75,10.75,0,0,1,1.47,5.84,12.23,12.23,0,0,1-1.12,4.92,14.17,14.17,0,0,1-3.47,4.73,18.57,18.57,0,0,1-6,3.55A24.49,24.49,0,0,1,1380.64,69.28Z" transform="translate(0 -5.21)"/><path d="M1416.17,45.36l-17-23h13.2L1423,37.28l10.57-14.88h12.8l-16.8,23.12,17.92,23.68h-13.2l-11.45-15.6-11.12,15.6h-13.19Z" transform="translate(0 -5.21)"/><line class="a" y1="68" x2="1493" y2="68"/><rect x="27.7" width="72" height="40" rx="3.06"/><rect x="27.7" y="44" width="72" height="9" rx="3.06"/></svg>