<svg xmlns="http://www.w3.org/2000/svg" viewBox="0 0 1493 73"><defs><style>.a{fill:none;stroke:#000;stroke-miterlimit:10;stroke-width:10px;}</style></defs><title>show</title><path d="M1213.85,62.8a6.54,6.54,0,0,1,1.76-4.76,6.39,6.39,0,0,1,4.8-1.8,6.27,6.27,0,0,1,4.76,1.8,6.59,6.59,0,0,1,1.72,4.76,6.12,6.12,0,0,1-6.56,6.48,6.26,6.26,0,0,1-4.76-1.8A6.48,6.48,0,0,1,1213.85,62.8Z" transform="translate(0 -5.21)"/><path d="M1249.37,69.28q-7.77,0-12.88-2.89a19.5,19.5,0,0,1-7.92-8.35l10-4.5a11.88,11.88,0,0,0,4.56,4.73,13.28,13.28,0,0,0,6.72,1.65q4,0,6-1.6a4.78,4.78,0,0,0,2-3.82,2.47,2.47,0,0,0-.92-2,8.72,8.72,0,0,0-2.4-1.33,21,21,0,0,0-3.48-1c-1.34-.25-2.72-.53-4.16-.84-2-.4-4-.89-6-1.44a19.68,19.68,0,0,1-5.24-2.33,11.9,11.9,0,0,1-3.76-3.81,10.94,10.94,0,0,1-1.44-5.84,10.84,10.84,0,0,1,1.32-5.15,14,14,0,0,1,3.72-4.38,18.4,18.4,0,0,1,5.8-3,24.51,24.51,0,0,1,7.56-1.1,23.94,23.94,0,0,1,11.72,2.6A19.79,19.79,0,0,1,1268,32l-9.2,4.35a10.26,10.26,0,0,0-4-3.72,12.4,12.4,0,0,0-5.92-1.37c-2.56,0-4.46.48-5.68,1.45a4.21,4.21,0,0,0-1.84,3.36c0,1.47.9,2.53,2.72,3.16a64.72,64.72,0,0,0,8,2,52.56,52.56,0,0,1,5.8,1.41,22.11,22.11,0,0,1,5.32,2.36,12.21,12.21,0,0,1,3.88,3.82,10.75,10.75,0,0,1,1.48,5.84,12.4,12.4,0,0,1-1.12,4.92,14.35,14.35,0,0,1-3.48,4.73,18.46,18.46,0,0,1-6,3.55A24.4,24.4,0,0,1,1249.37,69.28Z" transform="translate(0 -5.21)"/><path d="M1273.21,10H1284V28.88a17.06,17.06,0,0,1,6-4.8,17.92,17.92,0,0,1,8-1.76q8.71,0,13.64,5.18T1316.57,42V69.2h-11V43.25c0-3.6-.88-6.42-2.64-8.48s-4.4-3.09-7.92-3.09a11,11,0,0,0-4.24.82,9.86,9.86,0,0,0-3.48,2.38,11,11,0,0,0-2.32,3.91,15.75,15.75,0,0,0-.84,5.32V69.2h-10.88Z" transform="translate(0 -5.21)"/><path d="M1345.45,69.28a25,25,0,0,1-9.48-1.81A23.52,23.52,0,0,1,1323.09,55a23.35,23.35,0,0,1,0-18.36A23.52,23.52,0,0,1,1336,24.13a24.81,24.81,0,0,1,9.48-1.81,24.51,24.51,0,0,1,17.16,6.82,23.56,23.56,0,0,1,5.2,7.48,23.35,23.35,0,0,1,0,18.36,23.56,23.56,0,0,1-5.2,7.48,24.51,24.51,0,0,1-17.16,6.82Zm0-10.16a13.63,13.63,0,0,0,5.36-1,13.88,13.88,0,0,0,4.32-2.85A13.27,13.27,0,0,0,1358,51a13,13,0,0,0,1-5.14,13.15,13.15,0,0,0-3.92-9.46,13.88,13.88,0,0,0-4.32-2.85,13.63,13.63,0,0,0-5.36-1.05,13.9,13.9,0,0,0-5.4,1.05,13,13,0,0,0-7.16,7.09,13.08,13.08,0,0,0-1,5.22,12.87,12.87,0,0,0,1,5.14,13,13,0,0,0,7.16,7.09A13.9,13.9,0,0,0,1345.45,59.12Z" transform="translate(0 -5.21)"/><path d="M1369.13,22.4h11l10.32,32.24,11.76-32.24H1413l11.52,32.32,10.72-32.32h11l-16.4,46.8h-10.4l-11.84-32.4-12.16,32.4h-10.64Z" transform="translate(0 -5.21)"/><line class="a" y1="68" x2="1493" y2="68"/><rect x="27.7" width="72" height="40" rx="3.06"/><rect x="27.7" y="44" width="72" height="9" rx="3.06"/></svg>