<svg xmlns="http://www.w3.org/2000/svg" viewBox="0 0 1493 74"><defs><style>.a,.b{fill:none;stroke-miterlimit:10;}.a{stroke:#000;stroke-width:10px;}.b{stroke:#fff;stroke-linecap:round;stroke-width:3px;}</style></defs><title>doc</title><path d="M1277.37,62.8a6.54,6.54,0,0,1,1.76-4.76,6.39,6.39,0,0,1,4.8-1.8,6.27,6.27,0,0,1,4.76,1.8,6.59,6.59,0,0,1,1.72,4.76,6.12,6.12,0,0,1-6.56,6.48,6.27,6.27,0,0,1-4.76-1.8A6.48,6.48,0,0,1,1277.37,62.8Z" transform="translate(0 -4.21)"/><path d="M1316.81,69.28a23.21,23.21,0,0,1-8.36-1.58,22.85,22.85,0,0,1-7.4-4.59,22.58,22.58,0,0,1-5.28-7.36,23.42,23.42,0,0,1-2-9.91,24.07,24.07,0,0,1,2-10,22.18,22.18,0,0,1,12.64-12,24.29,24.29,0,0,1,8.6-1.58,20.84,20.84,0,0,1,8.48,1.72,17.58,17.58,0,0,1,6.48,4.76V10h10.88V69.2H1332V62.55a17.74,17.74,0,0,1-6.56,4.93A20.83,20.83,0,0,1,1316.81,69.28Zm1.76-9.92a14.65,14.65,0,0,0,5.6-1,13.1,13.1,0,0,0,4.4-2.93,14.63,14.63,0,0,0,2.92-4.36,13.2,13.2,0,0,0,1.08-5.34,13.07,13.07,0,0,0-1.08-5.26,14.08,14.08,0,0,0-2.92-4.32,13.46,13.46,0,0,0-4.4-2.89,15.35,15.35,0,0,0-11.16,0,14.21,14.21,0,0,0-4.52,2.86,12.84,12.84,0,0,0-3,4.28,13.19,13.19,0,0,0-1.08,5.33,13.5,13.5,0,0,0,1.08,5.38,13.12,13.12,0,0,0,3,4.35,14,14,0,0,0,4.52,2.9A14.67,14.67,0,0,0,1318.57,59.36Z" transform="translate(0 -4.21)"/><path d="M1371.69,69.28a25,25,0,0,1-9.48-1.81A23.52,23.52,0,0,1,1349.33,55a23.35,23.35,0,0,1,0-18.36,23.52,23.52,0,0,1,12.88-12.49,24.81,24.81,0,0,1,9.48-1.81,24.51,24.51,0,0,1,17.16,6.82,23.56,23.56,0,0,1,5.2,7.48,23.35,23.35,0,0,1,0,18.36,23.56,23.56,0,0,1-5.2,7.48,24.51,24.51,0,0,1-17.16,6.82Zm0-10.16a13.63,13.63,0,0,0,5.36-1,13.88,13.88,0,0,0,4.32-2.85,13.27,13.27,0,0,0,2.88-4.24,13,13,0,0,0,1-5.14,13.15,13.15,0,0,0-3.92-9.46,13.88,13.88,0,0,0-4.32-2.85,13.63,13.63,0,0,0-5.36-1.05,13.9,13.9,0,0,0-5.4,1.05,13,13,0,0,0-7.16,7.09,13.08,13.08,0,0,0-1,5.22,12.87,12.87,0,0,0,1,5.14,13,13,0,0,0,7.16,7.09A13.9,13.9,0,0,0,1371.69,59.12Z" transform="translate(0 -4.21)"/><path d="M1423.85,69.28a24.78,24.78,0,0,1-17.28-6.86,23.11,23.11,0,0,1-5.16-7.44,23.35,23.35,0,0,1,0-18.36,23.52,23.52,0,0,1,12.88-12.49,26.24,26.24,0,0,1,17-.75,24.67,24.67,0,0,1,6.36,2.95,22.49,22.49,0,0,1,5,4.48,23.67,23.67,0,0,1,3.52,5.73l-9.68,3.83a13,13,0,0,0-4.92-5.75,13.78,13.78,0,0,0-7.64-2.14,14.13,14.13,0,0,0-9.88,3.9,12.62,12.62,0,0,0-2.92,4.24,13.08,13.08,0,0,0-1,5.22,12.87,12.87,0,0,0,1,5.14,12.62,12.62,0,0,0,2.92,4.24,14,14,0,0,0,4.44,2.85,14.36,14.36,0,0,0,5.52,1,13.14,13.14,0,0,0,7.8-2.29,14.09,14.09,0,0,0,4.84-5.89l9.68,3.9a25,25,0,0,1-3.52,5.81,23,23,0,0,1-5,4.59,23.52,23.52,0,0,1-6.36,3A26.14,26.14,0,0,1,1423.85,69.28Z" transform="translate(0 -4.21)"/><line class="a" y1="69" x2="1493" y2="69"/><rect x="39" width="50" height="53" rx="2.93"/><line class="b" x1="46.64" y1="12" x2="72.33" y2="12"/><line class="b" x1="46.99" y1="29.5" x2="64.35" y2="29.5"/><line class="b" x1="46.99" y1="41.5" x2="79.63" y2="41.5"/></svg>