<svg xmlns="http://www.w3.org/2000/svg" viewBox="0 0 1493 86.51"><defs><style>.a,.b{fill:none;stroke-miterlimit:10;}.a{stroke:#000;stroke-width:10px;}.b{stroke:#fff;stroke-linecap:round;stroke-width:3px;}</style></defs><title>hwp</title><path d="M1252.73,62.8a6.49,6.49,0,0,1,1.76-4.76,6.39,6.39,0,0,1,4.8-1.8,6.29,6.29,0,0,1,4.76,1.8,6.64,6.64,0,0,1,1.72,4.76,6.12,6.12,0,0,1-6.56,6.48,6.26,6.26,0,0,1-4.76-1.8A6.48,6.48,0,0,1,1252.73,62.8Z" transform="translate(0 -4.21)"/><path d="M1270.65,10h10.8V28.88a17,17,0,0,1,6-4.8,17.92,17.92,0,0,1,8-1.76q8.71,0,13.63,5.18T1314,42V69.2h-11V43.25c0-3.6-.89-6.42-2.64-8.48s-4.4-3.09-7.92-3.09a11,11,0,0,0-4.24.82,9.86,9.86,0,0,0-3.48,2.38,11,11,0,0,0-2.32,3.91,15.75,15.75,0,0,0-.84,5.32V69.2h-10.88Z" transform="translate(0 -4.21)"/><path d="M1316.08,22.4h11.05l10.31,32.24L1349.2,22.4h10.72l11.52,32.32,10.72-32.32h11l-16.41,46.8h-10.4l-11.84-32.4-12.16,32.4h-10.64Z" transform="translate(0 -4.21)"/><path d="M1423,69.28a22.48,22.48,0,0,1-8.8-1.68,16,16,0,0,1-6.48-4.8V90.72H1397V22.4h10.72v6.87a17.7,17.7,0,0,1,6.44-5.06,20.08,20.08,0,0,1,8.76-1.89,24,24,0,0,1,8.56,1.58,22.06,22.06,0,0,1,7.36,4.59,22.88,22.88,0,0,1,5.16,7.36,24.23,24.23,0,0,1,2,10,23.58,23.58,0,0,1-2,9.91,23.08,23.08,0,0,1-5.24,7.36,22.57,22.57,0,0,1-7.36,4.59A23.29,23.29,0,0,1,1423,69.28Zm-1.76-9.92a14.43,14.43,0,0,0,5.52-1,14.23,14.23,0,0,0,4.48-2.9,13.12,13.12,0,0,0,3-4.35,13.5,13.5,0,0,0,1.08-5.38,13.19,13.19,0,0,0-1.08-5.33,12.84,12.84,0,0,0-3-4.28,15,15,0,0,0-15.6-2.86,13.37,13.37,0,0,0-8.32,12.47,13.52,13.52,0,0,0,1,5.34,13.8,13.8,0,0,0,2.88,4.36,12.91,12.91,0,0,0,4.4,2.93A14.58,14.58,0,0,0,1421.21,59.36Z" transform="translate(0 -4.21)"/><line class="a" y1="69" x2="1493" y2="69"/><rect x="39" width="50" height="53" rx="2.93"/><line class="b" x1="46.64" y1="12" x2="72.33" y2="12"/><line class="b" x1="46.99" y1="29.5" x2="64.35" y2="29.5"/><line class="b" x1="46.99" y1="41.5" x2="79.63" y2="41.5"/></svg>