<svg xmlns="http://www.w3.org/2000/svg" viewBox="0 0 1493 74"><defs><style>.a,.b{fill:none;stroke-miterlimit:10;}.a{stroke:#000;stroke-width:10px;}.b{stroke:#fff;stroke-linecap:round;stroke-width:3px;}</style></defs><title>odt</title><path d="M1294.81,62.8a6.54,6.54,0,0,1,1.76-4.76,6.39,6.39,0,0,1,4.8-1.8,6.27,6.27,0,0,1,4.76,1.8,6.59,6.59,0,0,1,1.72,4.76,6.12,6.12,0,0,1-6.56,6.48,6.26,6.26,0,0,1-4.76-1.8A6.48,6.48,0,0,1,1294.81,62.8Z" transform="translate(0 -4.21)"/><path d="M1335.45,69.28a25,25,0,0,1-9.48-1.81A23.52,23.52,0,0,1,1313.09,55a23.35,23.35,0,0,1,0-18.36A23.52,23.52,0,0,1,1326,24.13a24.81,24.81,0,0,1,9.48-1.81,24.51,24.51,0,0,1,17.16,6.82,23.56,23.56,0,0,1,5.2,7.48,23.35,23.35,0,0,1,0,18.36,23.56,23.56,0,0,1-5.2,7.48,24.51,24.51,0,0,1-17.16,6.82Zm0-10.16a13.63,13.63,0,0,0,5.36-1,13.88,13.88,0,0,0,4.32-2.85A13.27,13.27,0,0,0,1348,51a13,13,0,0,0,1-5.14,13.15,13.15,0,0,0-3.92-9.46,13.88,13.88,0,0,0-4.32-2.85,13.63,13.63,0,0,0-5.36-1.05,13.9,13.9,0,0,0-5.4,1.05,13,13,0,0,0-7.16,7.09,13.08,13.08,0,0,0-1,5.22,12.87,12.87,0,0,0,1,5.14,13,13,0,0,0,7.16,7.09A13.9,13.9,0,0,0,1335.45,59.12Z" transform="translate(0 -4.21)"/><path d="M1386.33,69.28A23.21,23.21,0,0,1,1378,67.7a22.85,22.85,0,0,1-7.4-4.59,22.58,22.58,0,0,1-5.28-7.36,23.42,23.42,0,0,1-2-9.91,24.07,24.07,0,0,1,2-10,22.18,22.18,0,0,1,12.64-12,24.29,24.29,0,0,1,8.6-1.58A20.84,20.84,0,0,1,1395,24a17.58,17.58,0,0,1,6.48,4.76V10h10.88V69.2h-10.8V62.55a17.74,17.74,0,0,1-6.56,4.93A20.83,20.83,0,0,1,1386.33,69.28Zm1.76-9.92a14.65,14.65,0,0,0,5.6-1,13.1,13.1,0,0,0,4.4-2.93A14.63,14.63,0,0,0,1401,51a13.2,13.2,0,0,0,1.08-5.34,13.07,13.07,0,0,0-1.08-5.26,14.08,14.08,0,0,0-2.92-4.32,13.46,13.46,0,0,0-4.4-2.89,15.35,15.35,0,0,0-11.16,0,14.21,14.21,0,0,0-4.52,2.86,12.84,12.84,0,0,0-3,4.28,13.19,13.19,0,0,0-1.08,5.33,13.5,13.5,0,0,0,1.08,5.38,13.12,13.12,0,0,0,3,4.35,14,14,0,0,0,4.52,2.9A14.67,14.67,0,0,0,1388.09,59.36Z" transform="translate(0 -4.21)"/><path d="M1416.81,22.4h8V15.28l10.88-7.44V22.4h9.52v9.68h-9.52V49.6a31,31,0,0,0,.31,4.92,5.24,5.24,0,0,0,1.33,2.88,5.1,5.1,0,0,0,2.88,1.32,31.44,31.44,0,0,0,5,.32V69.2h-1.52a36.22,36.22,0,0,1-9.08-1,12,12,0,0,1-5.8-3.24,13.07,13.07,0,0,1-3.08-6,39.31,39.31,0,0,1-.92-9.32V32.08h-8Z" transform="translate(0 -4.21)"/><line class="a" y1="69" x2="1493" y2="69"/><rect x="39" width="50" height="53" rx="2.93"/><line class="b" x1="46.64" y1="12" x2="72.33" y2="12"/><line class="b" x1="46.99" y1="29.5" x2="64.35" y2="29.5"/><line class="b" x1="46.99" y1="41.5" x2="79.63" y2="41.5"/></svg>