<svg xmlns="http://www.w3.org/2000/svg" viewBox="0 0 1493 86.75"><defs><style>.a,.b{fill:none;stroke-miterlimit:10;}.a{stroke:#000;stroke-width:10px;}.b{stroke:#fff;stroke-linecap:round;stroke-width:3px;}</style></defs><title>pages</title><path d="M1178,62.8a6.54,6.54,0,0,1,1.76-4.76,6.39,6.39,0,0,1,4.8-1.8,6.27,6.27,0,0,1,4.76,1.8,6.59,6.59,0,0,1,1.72,4.76,6.12,6.12,0,0,1-6.56,6.48,6.27,6.27,0,0,1-4.76-1.8A6.48,6.48,0,0,1,1178,62.8Z" transform="translate(0 -4.21)"/><path d="M1221.93,69.28a22.48,22.48,0,0,1-8.8-1.68,16,16,0,0,1-6.48-4.8V90.72h-10.72V22.4h10.72v6.87a17.7,17.7,0,0,1,6.44-5.06,20.08,20.08,0,0,1,8.76-1.89,24,24,0,0,1,8.56,1.58,22.06,22.06,0,0,1,7.36,4.59,22.88,22.88,0,0,1,5.16,7.36,24.23,24.23,0,0,1,2,10,23.58,23.58,0,0,1-2,9.91,23.08,23.08,0,0,1-5.24,7.36,22.47,22.47,0,0,1-7.36,4.59A23.29,23.29,0,0,1,1221.93,69.28Zm-1.76-9.92a14.43,14.43,0,0,0,5.52-1,14.23,14.23,0,0,0,4.48-2.9,13.12,13.12,0,0,0,3-4.35,13.5,13.5,0,0,0,1.08-5.38,13.19,13.19,0,0,0-1.08-5.33,12.84,12.84,0,0,0-3-4.28,15,15,0,0,0-15.6-2.86,13.37,13.37,0,0,0-8.32,12.47,13.52,13.52,0,0,0,1,5.34,13.8,13.8,0,0,0,2.88,4.36,12.91,12.91,0,0,0,4.4,2.93A14.58,14.58,0,0,0,1220.17,59.36Z" transform="translate(0 -4.21)"/><path d="M1271.29,69.28a23.21,23.21,0,0,1-8.36-1.58,22.85,22.85,0,0,1-7.4-4.59,22.58,22.58,0,0,1-5.28-7.36,23.58,23.58,0,0,1-2-9.91,24.07,24.07,0,0,1,2-10,22.18,22.18,0,0,1,12.64-12,24.29,24.29,0,0,1,8.6-1.58A21.54,21.54,0,0,1,1280,24a18,18,0,0,1,6.48,4.57V22.4h10.8V69.2h-10.8V62.55a17.74,17.74,0,0,1-6.56,4.93A20.83,20.83,0,0,1,1271.29,69.28Zm1.76-9.92a14.65,14.65,0,0,0,5.6-1,13.1,13.1,0,0,0,4.4-2.93A14.63,14.63,0,0,0,1286,51a13.2,13.2,0,0,0,1.08-5.34,13.07,13.07,0,0,0-1.08-5.26,14.08,14.08,0,0,0-2.92-4.32,13.46,13.46,0,0,0-4.4-2.89,15.35,15.35,0,0,0-11.16,0,14.21,14.21,0,0,0-4.52,2.86,12.84,12.84,0,0,0-3,4.28,13.19,13.19,0,0,0-1.08,5.33,13.5,13.5,0,0,0,1.08,5.38,13.12,13.12,0,0,0,3,4.35,14,14,0,0,0,4.52,2.9A14.67,14.67,0,0,0,1273.05,59.36Z" transform="translate(0 -4.21)"/><path d="M1340.25,62.08a17.84,17.84,0,0,1-6.56,5.28,19.92,19.92,0,0,1-8.72,1.92,23.21,23.21,0,0,1-8.36-1.58,22.85,22.85,0,0,1-7.4-4.59,22.58,22.58,0,0,1-5.28-7.36,23.42,23.42,0,0,1-2-9.91,24.07,24.07,0,0,1,2-10,22.18,22.18,0,0,1,12.64-12,24.29,24.29,0,0,1,8.6-1.58,20.15,20.15,0,0,1,8.56,1.81,18.2,18.2,0,0,1,6.48,4.88V22.4H1351v45a26.42,26.42,0,0,1-1.56,9.16,20.94,20.94,0,0,1-12.16,12.52A27.32,27.32,0,0,1,1326.81,91a31.74,31.74,0,0,1-8.28-1,25.6,25.6,0,0,1-6.68-2.8,23.46,23.46,0,0,1-5.2-4.24,26.44,26.44,0,0,1-3.84-5.4l9.6-5.84a20.5,20.5,0,0,0,5.76,7Q1321.36,81,1327,81a13.25,13.25,0,0,0,5.52-1.12,12.58,12.58,0,0,0,6.84-7.28,14.67,14.67,0,0,0,.92-5.12Zm-13.52-2.72a14.65,14.65,0,0,0,5.6-1,13.1,13.1,0,0,0,4.4-2.93,14.63,14.63,0,0,0,2.92-4.36,13.2,13.2,0,0,0,1.08-5.34,13.07,13.07,0,0,0-1.08-5.26,14.08,14.08,0,0,0-2.92-4.32,13.46,13.46,0,0,0-4.4-2.89,15.35,15.35,0,0,0-11.16,0,14.21,14.21,0,0,0-4.52,2.86,12.84,12.84,0,0,0-3,4.28,13.19,13.19,0,0,0-1.08,5.33,13.5,13.5,0,0,0,1.08,5.38,13.12,13.12,0,0,0,3,4.35,14,14,0,0,0,4.52,2.9A14.67,14.67,0,0,0,1326.73,59.36Z" transform="translate(0 -4.21)"/><path d="M1380.49,69.28a27.23,27.23,0,0,1-10.08-1.81,23.39,23.39,0,0,1-7.8-5,22.27,22.27,0,0,1-5-7.44,23.31,23.31,0,0,1-1.8-9.13,23.12,23.12,0,0,1,7-16.74,24.78,24.78,0,0,1,17.28-6.86,26.83,26.83,0,0,1,9.64,1.69,22.68,22.68,0,0,1,7.64,4.72,21.86,21.86,0,0,1,5,7.16,22.26,22.26,0,0,1,1.8,9v3.83h-38.08a13.85,13.85,0,0,0,4.88,8,14.62,14.62,0,0,0,9.52,3,14,14,0,0,0,7.92-2.24,13.81,13.81,0,0,0,5-6l8.88,5.12a23.53,23.53,0,0,1-21.84,12.64Zm-.4-37.44a15.93,15.93,0,0,0-8.44,2.16,11.71,11.71,0,0,0-5,5.68h26.56a10,10,0,0,0-4.64-5.85A16.68,16.68,0,0,0,1380.09,31.84Z" transform="translate(0 -4.21)"/><path d="M1426.57,69.28q-7.77,0-12.88-2.89a19.5,19.5,0,0,1-7.92-8.35l10-4.5a11.88,11.88,0,0,0,4.56,4.73,13.28,13.28,0,0,0,6.72,1.65q4,0,6-1.6a4.78,4.78,0,0,0,2-3.82,2.47,2.47,0,0,0-.92-2,8.72,8.72,0,0,0-2.4-1.33,21,21,0,0,0-3.48-1c-1.34-.25-2.72-.53-4.16-.84-2-.4-4-.89-6-1.44a19.68,19.68,0,0,1-5.24-2.33,11.9,11.9,0,0,1-3.76-3.81,10.94,10.94,0,0,1-1.44-5.84,10.84,10.84,0,0,1,1.32-5.15,14,14,0,0,1,3.72-4.38,18.4,18.4,0,0,1,5.8-3,24.51,24.51,0,0,1,7.56-1.1,23.94,23.94,0,0,1,11.72,2.6,19.79,19.79,0,0,1,7.4,7.1l-9.2,4.35a10.26,10.26,0,0,0-4-3.72,12.4,12.4,0,0,0-5.92-1.37c-2.56,0-4.46.48-5.68,1.45a4.21,4.21,0,0,0-1.84,3.36c0,1.47.9,2.53,2.72,3.16a64.72,64.72,0,0,0,8,2,52.56,52.56,0,0,1,5.8,1.41,22.11,22.11,0,0,1,5.32,2.36,12.21,12.21,0,0,1,3.88,3.82,10.75,10.75,0,0,1,1.48,5.84,12.4,12.4,0,0,1-1.12,4.92,14.35,14.35,0,0,1-3.48,4.73,18.46,18.46,0,0,1-6,3.55A24.4,24.4,0,0,1,1426.57,69.28Z" transform="translate(0 -4.21)"/><line class="a" y1="69" x2="1493" y2="69"/><rect x="39" width="50" height="53" rx="2.93"/><line class="b" x1="46.64" y1="12" x2="72.33" y2="12"/><line class="b" x1="46.99" y1="29.5" x2="64.35" y2="29.5"/><line class="b" x1="46.99" y1="41.5" x2="79.63" y2="41.5"/></svg>