<svg xmlns="http://www.w3.org/2000/svg" viewBox="0 0 1493 87.12"><defs><style>.a,.b{fill:none;stroke-miterlimit:10;}.a{stroke:#000;stroke-width:10px;}.b{stroke:#fff;stroke-linecap:round;stroke-width:3px;}</style></defs><title>pdf</title><path d="M1293.69,62.8a6.54,6.54,0,0,1,1.76-4.76,6.39,6.39,0,0,1,4.8-1.8A6.27,6.27,0,0,1,1305,58a6.59,6.59,0,0,1,1.72,4.76,6.12,6.12,0,0,1-6.56,6.48,6.26,6.26,0,0,1-4.76-1.8A6.48,6.48,0,0,1,1293.69,62.8Z" transform="translate(0 -3.6)"/><path d="M1337.61,69.28a22.48,22.48,0,0,1-8.8-1.68,16,16,0,0,1-6.48-4.8V90.72h-10.72V22.4h10.72v6.87a17.7,17.7,0,0,1,6.44-5.06,20.08,20.08,0,0,1,8.76-1.89,24,24,0,0,1,8.56,1.58,22.06,22.06,0,0,1,7.36,4.59,22.88,22.88,0,0,1,5.16,7.36,24.23,24.23,0,0,1,2,10,23.58,23.58,0,0,1-2,9.91,23.08,23.08,0,0,1-5.24,7.36A22.57,22.57,0,0,1,1346,67.7,23.29,23.29,0,0,1,1337.61,69.28Zm-1.76-9.92a14.43,14.43,0,0,0,5.52-1,14.23,14.23,0,0,0,4.48-2.9,13.12,13.12,0,0,0,3-4.35,13.5,13.5,0,0,0,1.08-5.38,13.19,13.19,0,0,0-1.08-5.33,12.84,12.84,0,0,0-3-4.28,15,15,0,0,0-15.6-2.86,13.37,13.37,0,0,0-8.32,12.47,13.52,13.52,0,0,0,1,5.34,13.8,13.8,0,0,0,2.88,4.36,12.91,12.91,0,0,0,4.4,2.93A14.58,14.58,0,0,0,1335.85,59.36Z" transform="translate(0 -3.6)"/><path d="M1387,69.28a23.21,23.21,0,0,1-8.36-1.58,22.85,22.85,0,0,1-7.4-4.59,22.58,22.58,0,0,1-5.28-7.36,23.42,23.42,0,0,1-2-9.91,24.07,24.07,0,0,1,2-10,22.18,22.18,0,0,1,12.64-12,24.29,24.29,0,0,1,8.6-1.58,20.84,20.84,0,0,1,8.48,1.72,17.58,17.58,0,0,1,6.48,4.76V10H1413V69.2h-10.8V62.55a17.74,17.74,0,0,1-6.56,4.93A20.83,20.83,0,0,1,1387,69.28Zm1.76-9.92a14.65,14.65,0,0,0,5.6-1,13.1,13.1,0,0,0,4.4-2.93,14.63,14.63,0,0,0,2.92-4.36,13.2,13.2,0,0,0,1.08-5.34,13.07,13.07,0,0,0-1.08-5.26,14.08,14.08,0,0,0-2.92-4.32,13.46,13.46,0,0,0-4.4-2.89,15.35,15.35,0,0,0-11.16,0,14.21,14.21,0,0,0-4.52,2.86,12.84,12.84,0,0,0-3,4.28,13.19,13.19,0,0,0-1.08,5.33,13.5,13.5,0,0,0,1.08,5.38,13.12,13.12,0,0,0,3,4.35,14,14,0,0,0,4.52,2.9A14.67,14.67,0,0,0,1388.73,59.36Z" transform="translate(0 -3.6)"/><path d="M1417.37,22.4h7.92v-.08a29.87,29.87,0,0,1,1.08-8.6,13.18,13.18,0,0,1,3.4-5.8,13.86,13.86,0,0,1,6-3.28,34.26,34.26,0,0,1,9.08-1h1v10a25.83,25.83,0,0,0-5.12.4,5.51,5.51,0,0,0-2.92,1.44,4.92,4.92,0,0,0-1.28,2.72,26.12,26.12,0,0,0-.28,4.24h9.6v9.68h-9.6V69.2h-11V32.08h-7.92Z" transform="translate(0 -3.6)"/><line class="a" y1="69.61" x2="1493" y2="69.61"/><rect x="39" y="0.61" width="50" height="53" rx="2.93"/><line class="b" x1="46.64" y1="12.61" x2="72.33" y2="12.61"/><line class="b" x1="46.99" y1="30.11" x2="64.35" y2="30.11"/><line class="b" x1="46.99" y1="42.11" x2="79.63" y2="42.11"/></svg>