<svg xmlns="http://www.w3.org/2000/svg" viewBox="0 0 1493 74.61"><defs><style>.a,.b{fill:none;stroke-miterlimit:10;}.a{stroke:#000;stroke-width:10px;}.b{stroke:#fff;stroke-linecap:round;stroke-width:3px;}</style></defs><title>rtf</title><path d="M1334.81,62.8a6.49,6.49,0,0,1,1.76-4.76,6.39,6.39,0,0,1,4.8-1.8,6.29,6.29,0,0,1,4.76,1.8,6.64,6.64,0,0,1,1.72,4.76,6.12,6.12,0,0,1-6.56,6.48,6.26,6.26,0,0,1-4.76-1.8A6.48,6.48,0,0,1,1334.81,62.8Z" transform="translate(0 -3.6)"/><path d="M1352.73,22.4h10.72v7q3.27-7,12-7a17.57,17.57,0,0,1,4.6.56,16.45,16.45,0,0,1,3.64,1.44l-4.08,10.24a12.38,12.38,0,0,0-2.68-1.32,11.61,11.61,0,0,0-3.8-.52q-4.73,0-7.16,2.68t-2.44,8.76v25h-10.8Z" transform="translate(0 -3.6)"/><path d="M1385.53,22.4h8V15.28l10.88-7.44V22.4h9.52v9.68h-9.52V49.6a29.64,29.64,0,0,0,.32,4.92,5.16,5.16,0,0,0,1.32,2.88,5.1,5.1,0,0,0,2.88,1.32,31.44,31.44,0,0,0,5,.32V69.2h-1.52a36.22,36.22,0,0,1-9.08-1,12,12,0,0,1-5.8-3.24,13.07,13.07,0,0,1-3.08-6,39.31,39.31,0,0,1-.92-9.32V32.08h-8Z" transform="translate(0 -3.6)"/><path d="M1417.37,22.4h7.92v-.08a29.87,29.87,0,0,1,1.08-8.6,13.18,13.18,0,0,1,3.4-5.8,13.86,13.86,0,0,1,6-3.28,34.26,34.26,0,0,1,9.08-1h1v10a25.83,25.83,0,0,0-5.12.4,5.51,5.51,0,0,0-2.92,1.44,4.92,4.92,0,0,0-1.28,2.72,26.12,26.12,0,0,0-.28,4.24h9.6v9.68h-9.6V69.2h-11V32.08h-7.92Z" transform="translate(0 -3.6)"/><line class="a" y1="69.61" x2="1493" y2="69.61"/><rect x="39" y="0.61" width="50" height="53" rx="2.93"/><line class="b" x1="46.64" y1="12.61" x2="72.33" y2="12.61"/><line class="b" x1="46.99" y1="30.11" x2="64.35" y2="30.11"/><line class="b" x1="46.99" y1="42.11" x2="79.63" y2="42.11"/></svg>