<svg xmlns="http://www.w3.org/2000/svg" viewBox="0 0 1493 74"><defs><style>.a,.b{fill:none;stroke-miterlimit:10;}.a{stroke:#000;stroke-width:10px;}.b{stroke:#fff;stroke-linecap:round;stroke-width:3px;}</style></defs><title>txt</title><path d="M1321.13,62.8a6.49,6.49,0,0,1,1.76-4.76,6.39,6.39,0,0,1,4.8-1.8,6.29,6.29,0,0,1,4.76,1.8,6.64,6.64,0,0,1,1.72,4.76,6.12,6.12,0,0,1-6.56,6.48,6.26,6.26,0,0,1-4.76-1.8A6.48,6.48,0,0,1,1321.13,62.8Z" transform="translate(0 -4.21)"/><path d="M1337.37,22.4h8V15.28l10.88-7.44V22.4h9.52v9.68h-9.52V49.6a29.64,29.64,0,0,0,.32,4.92,5.16,5.16,0,0,0,1.32,2.88,5.1,5.1,0,0,0,2.88,1.32,31.44,31.44,0,0,0,5,.32V69.2h-1.52a36.22,36.22,0,0,1-9.08-1,12,12,0,0,1-5.8-3.24,13.07,13.07,0,0,1-3.08-6,39.31,39.31,0,0,1-.92-9.32V32.08h-8Z" transform="translate(0 -4.21)"/><path d="M1385,45.36l-17-23h13.21l10.63,14.88,10.57-14.88h12.8l-16.8,23.12,17.92,23.68h-13.2l-11.45-15.6-11.12,15.6h-13.19Z" transform="translate(0 -4.21)"/><path d="M1416.81,22.4h8V15.28l10.88-7.44V22.4h9.52v9.68h-9.52V49.6a31,31,0,0,0,.31,4.92,5.24,5.24,0,0,0,1.33,2.88,5.1,5.1,0,0,0,2.88,1.32,31.44,31.44,0,0,0,5,.32V69.2h-1.52a36.22,36.22,0,0,1-9.08-1,12,12,0,0,1-5.8-3.24,13.07,13.07,0,0,1-3.08-6,39.31,39.31,0,0,1-.92-9.32V32.08h-8Z" transform="translate(0 -4.21)"/><line class="a" y1="69" x2="1493" y2="69"/><rect x="39" width="50" height="53" rx="2.93"/><line class="b" x1="46.64" y1="12" x2="72.33" y2="12"/><line class="b" x1="46.99" y1="29.5" x2="64.35" y2="29.5"/><line class="b" x1="46.99" y1="41.5" x2="79.63" y2="41.5"/></svg>