<svg xmlns="http://www.w3.org/2000/svg" viewBox="0 0 1493 88.51"><defs><style>.a{fill:none;stroke:#000;stroke-miterlimit:10;stroke-width:10px;}</style></defs><title>apk</title><path d="M1276.89,62.8a6.49,6.49,0,0,1,1.76-4.76,6.39,6.39,0,0,1,4.8-1.8,6.29,6.29,0,0,1,4.76,1.8,6.64,6.64,0,0,1,1.72,4.76,6.12,6.12,0,0,1-6.56,6.48,6.26,6.26,0,0,1-4.76-1.8A6.48,6.48,0,0,1,1276.89,62.8Z" transform="translate(0 -2.21)"/><path d="M1316.33,69.28A23.21,23.21,0,0,1,1308,67.7a22.85,22.85,0,0,1-7.4-4.59,22.58,22.58,0,0,1-5.28-7.36,23.42,23.42,0,0,1-2-9.91,24.07,24.07,0,0,1,2-10,22.18,22.18,0,0,1,12.64-12,24.29,24.29,0,0,1,8.6-1.58,21.54,21.54,0,0,1,8.56,1.68,18,18,0,0,1,6.48,4.57V22.4h10.8V69.2h-10.8V62.55a17.74,17.74,0,0,1-6.56,4.93A20.83,20.83,0,0,1,1316.33,69.28Zm1.76-9.92a14.65,14.65,0,0,0,5.6-1,13.1,13.1,0,0,0,4.4-2.93A14.63,14.63,0,0,0,1331,51a13.2,13.2,0,0,0,1.08-5.34,13.07,13.07,0,0,0-1.08-5.26,14.08,14.08,0,0,0-2.92-4.32,13.46,13.46,0,0,0-4.4-2.89,15.35,15.35,0,0,0-11.16,0,14.21,14.21,0,0,0-4.52,2.86,12.84,12.84,0,0,0-3,4.28,13.19,13.19,0,0,0-1.08,5.33,13.5,13.5,0,0,0,1.08,5.38,13.12,13.12,0,0,0,3,4.35,14,14,0,0,0,4.52,2.9A14.67,14.67,0,0,0,1318.09,59.36Z" transform="translate(0 -2.21)"/><path d="M1374.89,69.28a22.48,22.48,0,0,1-8.8-1.68,16,16,0,0,1-6.48-4.8V90.72h-10.72V22.4h10.72v6.87a17.7,17.7,0,0,1,6.44-5.06,20.08,20.08,0,0,1,8.76-1.89,24,24,0,0,1,8.56,1.58,22.06,22.06,0,0,1,7.36,4.59,22.88,22.88,0,0,1,5.16,7.36,24.23,24.23,0,0,1,2,10,23.58,23.58,0,0,1-2,9.91,23.08,23.08,0,0,1-5.24,7.36,22.57,22.57,0,0,1-7.36,4.59A23.29,23.29,0,0,1,1374.89,69.28Zm-1.76-9.92a14.43,14.43,0,0,0,5.52-1,14.23,14.23,0,0,0,4.48-2.9,13.12,13.12,0,0,0,3-4.35,13.5,13.5,0,0,0,1.08-5.38,13.19,13.19,0,0,0-1.08-5.33,12.84,12.84,0,0,0-3-4.28,15,15,0,0,0-15.6-2.86,13.37,13.37,0,0,0-8.32,12.47,13.52,13.52,0,0,0,1,5.34,13.8,13.8,0,0,0,2.88,4.36,12.91,12.91,0,0,0,4.4,2.93A14.58,14.58,0,0,0,1373.13,59.36Z" transform="translate(0 -2.21)"/><path d="M1402.33,10h10.8V45L1433,22.4h13l-18.08,20.24,18.73,26.56h-12.08l-14-20.16-7.44,8.24V69.2h-10.8Z" transform="translate(0 -2.21)"/><line class="a" y1="71" x2="1493" y2="71"/><path d="M64,2.21a29,29,0,1,0,29,29A29,29,0,0,0,64,2.21Zm0,40a11,11,0,1,1,11-11A11,11,0,0,1,64,42.21Z" transform="translate(0 -2.21)"/><circle cx="64" cy="29" r="5"/></svg>