<svg xmlns="http://www.w3.org/2000/svg" viewBox="0 0 1493 76"><defs><style>.a{fill:none;stroke:#000;stroke-miterlimit:10;stroke-width:10px;}</style></defs><title>bat</title><path d="M1293.05,62.8a6.54,6.54,0,0,1,1.76-4.76,6.39,6.39,0,0,1,4.8-1.8,6.27,6.27,0,0,1,4.76,1.8,6.59,6.59,0,0,1,1.72,4.76,6.12,6.12,0,0,1-6.56,6.48,6.27,6.27,0,0,1-4.76-1.8A6.48,6.48,0,0,1,1293.05,62.8Z" transform="translate(0 -2.21)"/><path d="M1337.05,69.28a21.64,21.64,0,0,1-8.8-1.76,16.86,16.86,0,0,1-6.56-5V69.2H1311V10h10.8V29.2a17.77,17.77,0,0,1,6.44-5,20,20,0,0,1,8.68-1.88,24,24,0,0,1,8.56,1.58,22.06,22.06,0,0,1,7.36,4.59,22.88,22.88,0,0,1,5.16,7.36,24.23,24.23,0,0,1,2,10,23.58,23.58,0,0,1-2,9.91,23.08,23.08,0,0,1-5.24,7.36,22.61,22.61,0,0,1-7.32,4.59A23,23,0,0,1,1337.05,69.28Zm-1.84-9.92a14.43,14.43,0,0,0,5.52-1,14.23,14.23,0,0,0,4.48-2.9,13.12,13.12,0,0,0,3-4.35,13.5,13.5,0,0,0,1.08-5.38,13.19,13.19,0,0,0-1.08-5.33,12.84,12.84,0,0,0-3-4.28,14.84,14.84,0,0,0-15.52-2.86,13.75,13.75,0,0,0-4.44,2.89,12.94,12.94,0,0,0-2.92,4.32,13.38,13.38,0,0,0-1,5.26,13.52,13.52,0,0,0,4,9.7,13.37,13.37,0,0,0,4.44,2.93A14.36,14.36,0,0,0,1335.21,59.36Z" transform="translate(0 -2.21)"/><path d="M1386.33,69.28A23.21,23.21,0,0,1,1378,67.7a22.85,22.85,0,0,1-7.4-4.59,22.58,22.58,0,0,1-5.28-7.36,23.42,23.42,0,0,1-2-9.91,24.07,24.07,0,0,1,2-10,22.18,22.18,0,0,1,12.64-12,24.29,24.29,0,0,1,8.6-1.58,21.54,21.54,0,0,1,8.56,1.68,18,18,0,0,1,6.48,4.57V22.4h10.8V69.2h-10.8V62.55a17.74,17.74,0,0,1-6.56,4.93A20.83,20.83,0,0,1,1386.33,69.28Zm1.76-9.92a14.65,14.65,0,0,0,5.6-1,13.1,13.1,0,0,0,4.4-2.93A14.63,14.63,0,0,0,1401,51a13.2,13.2,0,0,0,1.08-5.34,13.07,13.07,0,0,0-1.08-5.26,14.08,14.08,0,0,0-2.92-4.32,13.46,13.46,0,0,0-4.4-2.89,15.35,15.35,0,0,0-11.16,0,14.21,14.21,0,0,0-4.52,2.86,12.84,12.84,0,0,0-3,4.28,13.19,13.19,0,0,0-1.08,5.33,13.5,13.5,0,0,0,1.08,5.38,13.12,13.12,0,0,0,3,4.35,14,14,0,0,0,4.52,2.9A14.67,14.67,0,0,0,1388.09,59.36Z" transform="translate(0 -2.21)"/><path d="M1416.81,22.4h8V15.28l10.88-7.44V22.4h9.52v9.68h-9.52V49.6a29.64,29.64,0,0,0,.32,4.92,5.16,5.16,0,0,0,1.32,2.88,5.1,5.1,0,0,0,2.88,1.32,31.44,31.44,0,0,0,5,.32V69.2h-1.52a36.22,36.22,0,0,1-9.08-1,12,12,0,0,1-5.8-3.24,13.07,13.07,0,0,1-3.08-6,39.31,39.31,0,0,1-.92-9.32V32.08h-8Z" transform="translate(0 -2.21)"/><line class="a" y1="71" x2="1493" y2="71"/><path d="M64,2.21a29,29,0,1,0,29,29A29,29,0,0,0,64,2.21Zm0,40a11,11,0,1,1,11-11A11,11,0,0,1,64,42.21Z" transform="translate(0 -2.21)"/><circle cx="64" cy="29" r="5"/></svg>