<svg xmlns="http://www.w3.org/2000/svg" viewBox="0 0 1493 76"><defs><style>.a{fill:none;stroke:#000;stroke-miterlimit:10;stroke-width:10px;}</style></defs><title>bin</title><path d="M1312.41,62.8a6.54,6.54,0,0,1,1.76-4.76,6.39,6.39,0,0,1,4.8-1.8,6.27,6.27,0,0,1,4.76,1.8,6.59,6.59,0,0,1,1.72,4.76,6.12,6.12,0,0,1-6.56,6.48,6.26,6.26,0,0,1-4.76-1.8A6.48,6.48,0,0,1,1312.41,62.8Z" transform="translate(0 -2.21)"/><path d="M1356.41,69.28a21.64,21.64,0,0,1-8.8-1.76,16.86,16.86,0,0,1-6.56-5V69.2h-10.72V10h10.8V29.2a17.77,17.77,0,0,1,6.44-5,20,20,0,0,1,8.68-1.88,24,24,0,0,1,8.56,1.58,22.06,22.06,0,0,1,7.36,4.59,22.88,22.88,0,0,1,5.16,7.36,24.23,24.23,0,0,1,2,10,23.58,23.58,0,0,1-2,9.91,23.08,23.08,0,0,1-5.24,7.36,22.61,22.61,0,0,1-7.32,4.59A23,23,0,0,1,1356.41,69.28Zm-1.84-9.92a14.43,14.43,0,0,0,5.52-1,14.23,14.23,0,0,0,4.48-2.9,13.12,13.12,0,0,0,3-4.35,13.5,13.5,0,0,0,1.08-5.38,13.19,13.19,0,0,0-1.08-5.33,12.84,12.84,0,0,0-3-4.28,14.84,14.84,0,0,0-15.52-2.86,13.75,13.75,0,0,0-4.44,2.89,12.94,12.94,0,0,0-2.92,4.32,13.38,13.38,0,0,0-1,5.26,13.52,13.52,0,0,0,4,9.7,13.37,13.37,0,0,0,4.44,2.93A14.36,14.36,0,0,0,1354.57,59.36Z" transform="translate(0 -2.21)"/><path d="M1382.41,11A6.71,6.71,0,0,1,1384.25,6a7.54,7.54,0,0,1,10,0A6.81,6.81,0,0,1,1396,11a6.68,6.68,0,0,1-1.8,4.88,7.77,7.77,0,0,1-10,0A6.74,6.74,0,0,1,1382.41,11Zm1.36,11.44h10.88V69.2h-10.88Z" transform="translate(0 -2.21)"/><path d="M1400.89,22.4h10.72v6.39a17,17,0,0,1,5.88-4.7,18,18,0,0,1,8.12-1.77q8.72,0,13.64,5.18T1444.17,42V69.2h-11v-26q0-5.31-2.64-8.4t-7.92-3.09a10.52,10.52,0,0,0-7.8,3.2q-3.16,3.21-3.16,9.23V69.2h-10.8Z" transform="translate(0 -2.21)"/><line class="a" y1="71" x2="1493" y2="71"/><path d="M64,2.21a29,29,0,1,0,29,29A29,29,0,0,0,64,2.21Zm0,40a11,11,0,1,1,11-11A11,11,0,0,1,64,42.21Z" transform="translate(0 -2.21)"/><circle cx="64" cy="29" r="5"/></svg>