<svg xmlns="http://www.w3.org/2000/svg" viewBox="0 0 1493 88.75"><defs><style>.a{fill:none;stroke:#000;stroke-miterlimit:10;stroke-width:10px;}</style></defs><title>dmg</title><path d="M1245.13,62.8a6.54,6.54,0,0,1,1.76-4.76,6.39,6.39,0,0,1,4.8-1.8,6.27,6.27,0,0,1,4.76,1.8,6.59,6.59,0,0,1,1.72,4.76,6.12,6.12,0,0,1-6.56,6.48,6.27,6.27,0,0,1-4.76-1.8A6.48,6.48,0,0,1,1245.13,62.8Z" transform="translate(0 -2.21)"/><path d="M1284.57,69.28a23.21,23.21,0,0,1-8.36-1.58,22.85,22.85,0,0,1-7.4-4.59,22.58,22.58,0,0,1-5.28-7.36,23.42,23.42,0,0,1-2-9.91,24.07,24.07,0,0,1,2-10,22.18,22.18,0,0,1,12.64-12,24.29,24.29,0,0,1,8.6-1.58,20.84,20.84,0,0,1,8.48,1.72,17.58,17.58,0,0,1,6.48,4.76V10h10.88V69.2h-10.8V62.55a17.74,17.74,0,0,1-6.56,4.93A20.83,20.83,0,0,1,1284.57,69.28Zm1.76-9.92a14.65,14.65,0,0,0,5.6-1,13.1,13.1,0,0,0,4.4-2.93,14.63,14.63,0,0,0,2.92-4.36,13.2,13.2,0,0,0,1.08-5.34,13.07,13.07,0,0,0-1.08-5.26,14.08,14.08,0,0,0-2.92-4.32,13.46,13.46,0,0,0-4.4-2.89,15.35,15.35,0,0,0-11.16,0,14.21,14.21,0,0,0-4.52,2.86,12.84,12.84,0,0,0-3,4.28,13.19,13.19,0,0,0-1.08,5.33,13.5,13.5,0,0,0,1.08,5.38,13.12,13.12,0,0,0,3,4.35,14,14,0,0,0,4.52,2.9A14.67,14.67,0,0,0,1286.33,59.36Z" transform="translate(0 -2.21)"/><path d="M1316.73,22.4h10.72v6a15.74,15.74,0,0,1,5.64-4.47,17.44,17.44,0,0,1,7.72-1.65,19.17,19.17,0,0,1,9.32,2.09,14.64,14.64,0,0,1,5.88,5.87,17.57,17.57,0,0,1,6.36-5.79,18.38,18.38,0,0,1,9-2.17q9.44,0,14.24,5.14t4.8,14.1V69.2h-11V42.54a11.68,11.68,0,0,0-2.56-7.93q-2.57-2.93-7.6-2.93a10,10,0,0,0-7.36,3c-2,2-3,5-3,9V69.2h-11v-27a11.33,11.33,0,0,0-2.48-7.74q-2.49-2.81-7.36-2.81a10.17,10.17,0,0,0-7.56,3q-3,3-3,9.14V69.2h-10.8Z" transform="translate(0 -2.21)"/><path d="M1433.37,62.08a17.84,17.84,0,0,1-6.56,5.28,19.92,19.92,0,0,1-8.72,1.92,23.21,23.21,0,0,1-8.36-1.58,22.85,22.85,0,0,1-7.4-4.59,22.58,22.58,0,0,1-5.28-7.36,23.42,23.42,0,0,1-2-9.91,24.07,24.07,0,0,1,2-10,22.18,22.18,0,0,1,12.64-12,24.29,24.29,0,0,1,8.6-1.58,20.15,20.15,0,0,1,8.56,1.81,18.2,18.2,0,0,1,6.48,4.88V22.4h10.8v45a26.42,26.42,0,0,1-1.56,9.16,20.94,20.94,0,0,1-12.16,12.52A27.32,27.32,0,0,1,1419.93,91a31.74,31.74,0,0,1-8.28-1,25.6,25.6,0,0,1-6.68-2.8,23.46,23.46,0,0,1-5.2-4.24,26.44,26.44,0,0,1-3.84-5.4l9.6-5.84a20.5,20.5,0,0,0,5.76,7q3.2,2.32,8.8,2.32a13.25,13.25,0,0,0,5.52-1.12,12.58,12.58,0,0,0,6.84-7.28,14.67,14.67,0,0,0,.92-5.12Zm-13.52-2.72a14.65,14.65,0,0,0,5.6-1,13.1,13.1,0,0,0,4.4-2.93,14.63,14.63,0,0,0,2.92-4.36,13.2,13.2,0,0,0,1.08-5.34,13.07,13.07,0,0,0-1.08-5.26,14.08,14.08,0,0,0-2.92-4.32,13.46,13.46,0,0,0-4.4-2.89,15.35,15.35,0,0,0-11.16,0,14.21,14.21,0,0,0-4.52,2.86,12.84,12.84,0,0,0-3,4.28,13.19,13.19,0,0,0-1.08,5.33,13.5,13.5,0,0,0,1.08,5.38,13.12,13.12,0,0,0,3,4.35,14,14,0,0,0,4.52,2.9A14.67,14.67,0,0,0,1419.85,59.36Z" transform="translate(0 -2.21)"/><line class="a" y1="71" x2="1493" y2="71"/><path d="M64,2.21a29,29,0,1,0,29,29A29,29,0,0,0,64,2.21Zm0,40a11,11,0,1,1,11-11A11,11,0,0,1,64,42.21Z" transform="translate(0 -2.21)"/><circle cx="64" cy="29" r="5"/></svg>