<svg xmlns="http://www.w3.org/2000/svg" viewBox="0 0 1493 76"><defs><style>.a{fill:none;stroke:#000;stroke-miterlimit:10;stroke-width:10px;}</style></defs><title>exe</title><path d="M1288.41,62.8a6.49,6.49,0,0,1,1.76-4.76,6.39,6.39,0,0,1,4.8-1.8,6.29,6.29,0,0,1,4.76,1.8,6.64,6.64,0,0,1,1.72,4.76,6.12,6.12,0,0,1-6.56,6.48,6.26,6.26,0,0,1-4.76-1.8A6.48,6.48,0,0,1,1288.41,62.8Z" transform="translate(0 -2.21)"/><path d="M1329.53,69.28a27.19,27.19,0,0,1-10.08-1.81,23.29,23.29,0,0,1-7.8-5,22.13,22.13,0,0,1-5-7.44,23.32,23.32,0,0,1-1.81-9.13,23.23,23.23,0,0,1,7-16.74,24.83,24.83,0,0,1,17.29-6.86,26.78,26.78,0,0,1,9.63,1.69,22.73,22.73,0,0,1,7.65,4.72,21.86,21.86,0,0,1,5,7.16,22.26,22.26,0,0,1,1.8,9v3.83h-38.08a13.88,13.88,0,0,0,4.87,8,14.67,14.67,0,0,0,9.53,3,14,14,0,0,0,7.92-2.24,13.81,13.81,0,0,0,5-6l8.88,5.12a23.56,23.56,0,0,1-21.84,12.64Zm-.4-37.44a15.93,15.93,0,0,0-8.44,2.16,11.71,11.71,0,0,0-5,5.68h26.56a10,10,0,0,0-4.64-5.85A16.68,16.68,0,0,0,1329.13,31.84Z" transform="translate(0 -2.21)"/><path d="M1369.29,45.36l-17-23h13.2l10.64,14.88,10.56-14.88h12.8l-16.8,23.12,17.92,23.68h-13.2L1376,53.6l-11.12,15.6h-13.19Z" transform="translate(0 -2.21)"/><path d="M1421.93,69.28a27.23,27.23,0,0,1-10.08-1.81,23.39,23.39,0,0,1-7.8-5,22.27,22.27,0,0,1-5-7.44,23.31,23.31,0,0,1-1.8-9.13,23.12,23.12,0,0,1,7-16.74,24.78,24.78,0,0,1,17.28-6.86,26.83,26.83,0,0,1,9.64,1.69,22.68,22.68,0,0,1,7.64,4.72,21.86,21.86,0,0,1,5,7.16,22.26,22.26,0,0,1,1.8,9v3.83h-38.08a13.85,13.85,0,0,0,4.88,8,14.62,14.62,0,0,0,9.52,3,14,14,0,0,0,7.92-2.24,13.81,13.81,0,0,0,5-6l8.88,5.12a23.53,23.53,0,0,1-21.84,12.64Zm-.4-37.44a15.93,15.93,0,0,0-8.44,2.16,11.71,11.71,0,0,0-5,5.68h26.56a10,10,0,0,0-4.64-5.85A16.68,16.68,0,0,0,1421.53,31.84Z" transform="translate(0 -2.21)"/><line class="a" y1="71" x2="1493" y2="71"/><path d="M64,2.21a29,29,0,1,0,29,29A29,29,0,0,0,64,2.21Zm0,40a11,11,0,1,1,11-11A11,11,0,0,1,64,42.21Z" transform="translate(0 -2.21)"/><circle cx="64" cy="29" r="5"/></svg>