<svg xmlns="http://www.w3.org/2000/svg" viewBox="0 0 1493 76"><defs><style>.a{fill:none;stroke:#000;stroke-miterlimit:10;stroke-width:10px;}</style></defs><title>iso</title><path d="M1322.25,62.8A6.49,6.49,0,0,1,1324,58a6.39,6.39,0,0,1,4.8-1.8,6.29,6.29,0,0,1,4.76,1.8,6.64,6.64,0,0,1,1.72,4.76,6.12,6.12,0,0,1-6.56,6.48,6.26,6.26,0,0,1-4.76-1.8A6.48,6.48,0,0,1,1322.25,62.8Z" transform="translate(0 -2.21)"/><path d="M1338.81,11A6.71,6.71,0,0,1,1340.65,6a7.54,7.54,0,0,1,10,0,6.81,6.81,0,0,1,1.8,4.92,6.68,6.68,0,0,1-1.8,4.88,7.77,7.77,0,0,1-10,0A6.74,6.74,0,0,1,1338.81,11Zm1.36,11.44h10.88V69.2h-10.88Z" transform="translate(0 -2.21)"/><path d="M1374.89,69.28q-7.77,0-12.88-2.89a19.5,19.5,0,0,1-7.92-8.35l10-4.5a11.88,11.88,0,0,0,4.56,4.73,13.28,13.28,0,0,0,6.72,1.65q4,0,6-1.6a4.78,4.78,0,0,0,2-3.82,2.47,2.47,0,0,0-.92-2,8.72,8.72,0,0,0-2.4-1.33,21,21,0,0,0-3.48-1c-1.34-.25-2.72-.53-4.16-.84-2-.4-4-.89-6-1.44a19.68,19.68,0,0,1-5.24-2.33,11.9,11.9,0,0,1-3.76-3.81A10.94,10.94,0,0,1,1356,36a10.84,10.84,0,0,1,1.32-5.15,14,14,0,0,1,3.72-4.38,18.4,18.4,0,0,1,5.8-3,24.51,24.51,0,0,1,7.56-1.1,23.94,23.94,0,0,1,11.72,2.6,19.79,19.79,0,0,1,7.4,7.1l-9.2,4.35a10.26,10.26,0,0,0-4-3.72,12.4,12.4,0,0,0-5.92-1.37c-2.56,0-4.46.48-5.68,1.45a4.21,4.21,0,0,0-1.84,3.36c0,1.47.9,2.53,2.72,3.16a64.72,64.72,0,0,0,8,2,52.56,52.56,0,0,1,5.8,1.41,22.11,22.11,0,0,1,5.32,2.36,12.21,12.21,0,0,1,3.88,3.82,10.75,10.75,0,0,1,1.48,5.84,12.4,12.4,0,0,1-1.12,4.92,14.35,14.35,0,0,1-3.48,4.73,18.46,18.46,0,0,1-6,3.55A24.4,24.4,0,0,1,1374.89,69.28Z" transform="translate(0 -2.21)"/><path d="M1421.45,69.28a25,25,0,0,1-9.48-1.81A23.52,23.52,0,0,1,1399.09,55a23.35,23.35,0,0,1,0-18.36A23.52,23.52,0,0,1,1412,24.13a24.81,24.81,0,0,1,9.48-1.81,24.51,24.51,0,0,1,17.16,6.82,23.56,23.56,0,0,1,5.2,7.48,23.35,23.35,0,0,1,0,18.36,23.56,23.56,0,0,1-5.2,7.48,24.51,24.51,0,0,1-17.16,6.82Zm0-10.16a13.63,13.63,0,0,0,5.36-1,13.88,13.88,0,0,0,4.32-2.85A13.27,13.27,0,0,0,1434,51a13,13,0,0,0,1-5.14,13.15,13.15,0,0,0-3.92-9.46,13.88,13.88,0,0,0-4.32-2.85,13.63,13.63,0,0,0-5.36-1.05,13.9,13.9,0,0,0-5.4,1.05,13,13,0,0,0-7.16,7.09,13.08,13.08,0,0,0-1,5.22,12.87,12.87,0,0,0,1,5.14,13,13,0,0,0,7.16,7.09A13.9,13.9,0,0,0,1421.45,59.12Z" transform="translate(0 -2.21)"/><line class="a" y1="71" x2="1493" y2="71"/><path d="M64,2.21a29,29,0,1,0,29,29A29,29,0,0,0,64,2.21Zm0,40a11,11,0,1,1,11-11A11,11,0,0,1,64,42.21Z" transform="translate(0 -2.21)"/><circle cx="64" cy="29" r="5"/></svg>