<svg xmlns="http://www.w3.org/2000/svg" viewBox="0 0 1493 88.51"><defs><style>.a{fill:none;stroke:#000;stroke-miterlimit:10;stroke-width:10px;}</style></defs><title>jar</title><path d="M1326.89,62.8a6.49,6.49,0,0,1,1.76-4.76,6.39,6.39,0,0,1,4.8-1.8,6.29,6.29,0,0,1,4.76,1.8,6.64,6.64,0,0,1,1.72,4.76,6.12,6.12,0,0,1-6.56,6.48,6.26,6.26,0,0,1-4.76-1.8A6.48,6.48,0,0,1,1326.89,62.8Z" transform="translate(0 -2.21)"/><path d="M1335.13,80.56a32.27,32.27,0,0,0,5-.32,5.5,5.5,0,0,0,3-1.32,5.06,5.06,0,0,0,1.36-2.84,30.71,30.71,0,0,0,.32-5V22.4h10.88V71.2a38.17,38.17,0,0,1-1,9.28,13,13,0,0,1-3.2,6,12.57,12.57,0,0,1-5.88,3.24,35.92,35.92,0,0,1-9,1h-1.52Zm8.32-69.6A6.71,6.71,0,0,1,1345.29,6a7.54,7.54,0,0,1,10,0,6.81,6.81,0,0,1,1.8,4.92,6.68,6.68,0,0,1-1.8,4.88,7.77,7.77,0,0,1-10,0A6.74,6.74,0,0,1,1343.45,11Z" transform="translate(0 -2.21)"/><path d="M1383.37,69.28A23.21,23.21,0,0,1,1375,67.7a22.85,22.85,0,0,1-7.4-4.59,22.58,22.58,0,0,1-5.28-7.36,23.42,23.42,0,0,1-2-9.91,24.07,24.07,0,0,1,2-10,22.18,22.18,0,0,1,12.64-12,24.29,24.29,0,0,1,8.6-1.58,21.54,21.54,0,0,1,8.56,1.68,18,18,0,0,1,6.48,4.57V22.4h10.8V69.2h-10.8V62.55a17.74,17.74,0,0,1-6.56,4.93A20.83,20.83,0,0,1,1383.37,69.28Zm1.76-9.92a14.65,14.65,0,0,0,5.6-1,13.1,13.1,0,0,0,4.4-2.93,14.63,14.63,0,0,0,2.92-4.36,13.2,13.2,0,0,0,1.08-5.34,13.07,13.07,0,0,0-1.08-5.26,14.08,14.08,0,0,0-2.92-4.32,13.46,13.46,0,0,0-4.4-2.89,15.35,15.35,0,0,0-11.16,0,14.21,14.21,0,0,0-4.52,2.86,12.84,12.84,0,0,0-3,4.28,13.19,13.19,0,0,0-1.08,5.33,13.5,13.5,0,0,0,1.08,5.38,13.12,13.12,0,0,0,3,4.35,14,14,0,0,0,4.52,2.9A14.67,14.67,0,0,0,1385.13,59.36Z" transform="translate(0 -2.21)"/><path d="M1415.92,22.4h10.72v7q3.28-7,12-7a17.64,17.64,0,0,1,4.61.56,16.36,16.36,0,0,1,3.63,1.44l-4.08,10.24a12.3,12.3,0,0,0-2.67-1.32,11.63,11.63,0,0,0-3.81-.52c-3.14,0-5.53.89-7.15,2.68s-2.45,4.71-2.45,8.76v25h-10.8Z" transform="translate(0 -2.21)"/><line class="a" y1="71" x2="1493" y2="71"/><path d="M64,2.21a29,29,0,1,0,29,29A29,29,0,0,0,64,2.21Zm0,40a11,11,0,1,1,11-11A11,11,0,0,1,64,42.21Z" transform="translate(0 -2.21)"/><circle cx="64" cy="29" r="5"/></svg>