<svg xmlns="http://www.w3.org/2000/svg" viewBox="0 0 1493 86.8"><defs><style>.a{fill:none;stroke:#000;stroke-miterlimit:10;stroke-width:10px;}</style></defs><title>cgi</title><path d="M29.39,40.66l19.32,8.46c2.52,1.08,2.82,2.4,2.82,3.78a3.13,3.13,0,0,1-3.3,3.24,7.1,7.1,0,0,1-3.3-.84L20.51,44.08a3.74,3.74,0,0,1,0-6.84L44.93,26a7.1,7.1,0,0,1,3.3-.84,3.13,3.13,0,0,1,3.3,3.24c0,1.38-.3,2.7-2.82,3.78Z" transform="translate(0 -4.16)"/><path d="M68.21,15.88a3.26,3.26,0,0,1,6.42.6,6,6,0,0,1-.48,2L59.81,56.2a3.26,3.26,0,0,1-6.42-.6,6,6,0,0,1,.48-2Z" transform="translate(0 -4.16)"/><path d="M98.63,40.66,79.31,32.2c-2.52-1.08-2.82-2.4-2.82-3.78a3.13,3.13,0,0,1,3.3-3.24,7.1,7.1,0,0,1,3.3.84l24.42,11.22a3.74,3.74,0,0,1,0,6.84L83.09,55.3a7.1,7.1,0,0,1-3.3.84,3.13,3.13,0,0,1-3.3-3.24c0-1.38.3-2.7,2.82-3.78Z" transform="translate(0 -4.16)"/><path d="M1313,62.8a6.49,6.49,0,0,1,1.76-4.76,6.39,6.39,0,0,1,4.8-1.8,6.29,6.29,0,0,1,4.76,1.8A6.64,6.64,0,0,1,1326,62.8a6.12,6.12,0,0,1-6.56,6.48,6.26,6.26,0,0,1-4.76-1.8A6.48,6.48,0,0,1,1313,62.8Z" transform="translate(0 -4.16)"/><path d="M1353.69,69.28a24.78,24.78,0,0,1-17.28-6.86,23.11,23.11,0,0,1-5.16-7.44,23.35,23.35,0,0,1,0-18.36,23.52,23.52,0,0,1,12.88-12.49,26.24,26.24,0,0,1,17-.75,24.67,24.67,0,0,1,6.36,2.95,22.49,22.49,0,0,1,5,4.48,23.67,23.67,0,0,1,3.52,5.73l-9.68,3.83a13,13,0,0,0-4.92-5.75,13.78,13.78,0,0,0-7.64-2.14,14.13,14.13,0,0,0-9.88,3.9,12.62,12.62,0,0,0-2.92,4.24,13.08,13.08,0,0,0-1,5.22,12.87,12.87,0,0,0,1,5.14,12.62,12.62,0,0,0,2.92,4.24,14,14,0,0,0,4.44,2.85,14.36,14.36,0,0,0,5.52,1,13.14,13.14,0,0,0,7.8-2.29,14.09,14.09,0,0,0,4.84-5.89l9.68,3.9a25,25,0,0,1-3.52,5.81,23,23,0,0,1-5,4.59,23.52,23.52,0,0,1-6.36,3A26.14,26.14,0,0,1,1353.69,69.28Z" transform="translate(0 -4.16)"/><path d="M1416.65,62.08a17.84,17.84,0,0,1-6.56,5.28,19.92,19.92,0,0,1-8.72,1.92A23.21,23.21,0,0,1,1393,67.7a22.85,22.85,0,0,1-7.4-4.59,22.58,22.58,0,0,1-5.28-7.36,23.42,23.42,0,0,1-2-9.91,24.07,24.07,0,0,1,2-10,22.18,22.18,0,0,1,12.64-12,24.29,24.29,0,0,1,8.6-1.58,20.15,20.15,0,0,1,8.56,1.81,18.2,18.2,0,0,1,6.48,4.88V22.4h10.8v45a26.42,26.42,0,0,1-1.56,9.16,20.94,20.94,0,0,1-12.16,12.52A27.32,27.32,0,0,1,1403.21,91a31.74,31.74,0,0,1-8.28-1,25.6,25.6,0,0,1-6.68-2.8,23.46,23.46,0,0,1-5.2-4.24,26.44,26.44,0,0,1-3.84-5.4l9.6-5.84a20.5,20.5,0,0,0,5.76,7q3.2,2.32,8.8,2.32a13.25,13.25,0,0,0,5.52-1.12,12.58,12.58,0,0,0,6.84-7.28,14.67,14.67,0,0,0,.92-5.12Zm-13.52-2.72a14.65,14.65,0,0,0,5.6-1,13.1,13.1,0,0,0,4.4-2.93,14.63,14.63,0,0,0,2.92-4.36,13.2,13.2,0,0,0,1.08-5.34,13.07,13.07,0,0,0-1.08-5.26,14.08,14.08,0,0,0-2.92-4.32,13.46,13.46,0,0,0-4.4-2.89,15.35,15.35,0,0,0-11.16,0,14.21,14.21,0,0,0-4.52,2.86,12.84,12.84,0,0,0-3,4.28,13.19,13.19,0,0,0-1.08,5.33,13.5,13.5,0,0,0,1.08,5.38,13.12,13.12,0,0,0,3,4.35,14,14,0,0,0,4.52,2.9A14.67,14.67,0,0,0,1403.13,59.36Z" transform="translate(0 -4.16)"/><path d="M1431.93,11A6.71,6.71,0,0,1,1433.77,6a7.54,7.54,0,0,1,10,0,6.81,6.81,0,0,1,1.8,4.92,6.68,6.68,0,0,1-1.8,4.88,7.77,7.77,0,0,1-10,0A6.74,6.74,0,0,1,1431.93,11Zm1.36,11.44h10.88V69.2h-10.88Z" transform="translate(0 -4.16)"/><line class="a" y1="69.05" x2="1493" y2="69.05"/></svg>