<svg xmlns="http://www.w3.org/2000/svg" viewBox="0 0 1493 68.21"><defs><style>.a{fill:none;stroke:#000;stroke-miterlimit:10;stroke-width:10px;}</style></defs><title>h</title><path d="M29.39,40.66l19.32,8.46c2.52,1.08,2.82,2.4,2.82,3.78a3.13,3.13,0,0,1-3.3,3.24,7.1,7.1,0,0,1-3.3-.84L20.51,44.08a3.74,3.74,0,0,1,0-6.84L44.93,26a7.1,7.1,0,0,1,3.3-.84,3.13,3.13,0,0,1,3.3,3.24c0,1.38-.3,2.7-2.82,3.78Z" transform="translate(0 -10)"/><path d="M68.21,15.88a3.26,3.26,0,0,1,6.42.6,6,6,0,0,1-.48,2L59.81,56.2a3.26,3.26,0,0,1-6.42-.6,6,6,0,0,1,.48-2Z" transform="translate(0 -10)"/><path d="M98.63,40.66,79.31,32.2c-2.52-1.08-2.82-2.4-2.82-3.78a3.13,3.13,0,0,1,3.3-3.24,7.1,7.1,0,0,1,3.3.84l24.42,11.22a3.74,3.74,0,0,1,0,6.84L83.09,55.3a7.1,7.1,0,0,1-3.3.84,3.13,3.13,0,0,1-3.3-3.24c0-1.38.3-2.7,2.82-3.78Z" transform="translate(0 -10)"/><path d="M1383,62.8a6.49,6.49,0,0,1,1.76-4.76,6.39,6.39,0,0,1,4.8-1.8,6.29,6.29,0,0,1,4.76,1.8A6.64,6.64,0,0,1,1396,62.8a6.12,6.12,0,0,1-6.56,6.48,6.26,6.26,0,0,1-4.76-1.8A6.48,6.48,0,0,1,1383,62.8Z" transform="translate(0 -10)"/><path d="M1400.89,10h10.8V28.88a17.06,17.06,0,0,1,6-4.8,17.92,17.92,0,0,1,8-1.76q8.71,0,13.64,5.18T1444.25,42V69.2h-11V43.25c0-3.6-.88-6.42-2.64-8.48s-4.4-3.09-7.92-3.09a11,11,0,0,0-4.24.82,9.86,9.86,0,0,0-3.48,2.38,11,11,0,0,0-2.32,3.91,15.75,15.75,0,0,0-.84,5.32V69.2h-10.88Z" transform="translate(0 -10)"/><line class="a" y1="63.21" x2="1493" y2="63.21"/></svg>