<svg xmlns="http://www.w3.org/2000/svg" viewBox="0 0 1493 70.37"><defs><style>.a{fill:none;stroke:#000;stroke-miterlimit:10;stroke-width:10px;}</style></defs><title>html</title><path d="M29.39,40.66l19.32,8.46c2.52,1.08,2.82,2.4,2.82,3.78a3.13,3.13,0,0,1-3.3,3.24,7.1,7.1,0,0,1-3.3-.84L20.51,44.08a3.74,3.74,0,0,1,0-6.84L44.93,26a7.1,7.1,0,0,1,3.3-.84,3.13,3.13,0,0,1,3.3,3.24c0,1.38-.3,2.7-2.82,3.78Z" transform="translate(0 -7.84)"/><path d="M68.21,15.88a3.26,3.26,0,0,1,6.42.6,6,6,0,0,1-.48,2L59.81,56.2a3.26,3.26,0,0,1-6.42-.6,6,6,0,0,1,.48-2Z" transform="translate(0 -7.84)"/><path d="M98.63,40.66,79.31,32.2c-2.52-1.08-2.82-2.4-2.82-3.78a3.13,3.13,0,0,1,3.3-3.24,7.1,7.1,0,0,1,3.3.84l24.42,11.22a3.74,3.74,0,0,1,0,6.84L83.09,55.3a7.1,7.1,0,0,1-3.3.84,3.13,3.13,0,0,1-3.3-3.24c0-1.38.3-2.7,2.82-3.78Z" transform="translate(0 -7.84)"/><path d="M1256.09,62.8a6.54,6.54,0,0,1,1.76-4.76,6.39,6.39,0,0,1,4.8-1.8,6.27,6.27,0,0,1,4.76,1.8,6.59,6.59,0,0,1,1.72,4.76,6.12,6.12,0,0,1-6.56,6.48,6.27,6.27,0,0,1-4.76-1.8A6.48,6.48,0,0,1,1256.09,62.8Z" transform="translate(0 -7.84)"/><path d="M1274,10h10.8V28.88a17.06,17.06,0,0,1,6-4.8,17.92,17.92,0,0,1,8-1.76q8.71,0,13.64,5.18T1317.37,42V69.2h-11V43.25c0-3.6-.88-6.42-2.64-8.48s-4.4-3.09-7.92-3.09a11,11,0,0,0-4.24.82,10,10,0,0,0-3.48,2.38,11,11,0,0,0-2.32,3.91,15.75,15.75,0,0,0-.84,5.32V69.2H1274Z" transform="translate(0 -7.84)"/><path d="M1319.85,22.4h8V15.28l10.88-7.44V22.4h9.52v9.68h-9.52V49.6a29.64,29.64,0,0,0,.32,4.92,5.16,5.16,0,0,0,1.32,2.88,5.1,5.1,0,0,0,2.88,1.32,31.44,31.44,0,0,0,5,.32V69.2h-1.52a36.22,36.22,0,0,1-9.08-1,12,12,0,0,1-5.8-3.24,13.07,13.07,0,0,1-3.08-6,39.31,39.31,0,0,1-.92-9.32V32.08h-8Z" transform="translate(0 -7.84)"/><path d="M1353.45,22.4h10.72v6a15.74,15.74,0,0,1,5.64-4.47,17.44,17.44,0,0,1,7.72-1.65,19.17,19.17,0,0,1,9.32,2.09,14.64,14.64,0,0,1,5.88,5.87,17.57,17.57,0,0,1,6.36-5.79,18.38,18.38,0,0,1,9-2.17q9.44,0,14.24,5.14t4.8,14.1V69.2h-11V42.54a11.68,11.68,0,0,0-2.56-7.93q-2.57-2.93-7.6-2.93a10,10,0,0,0-7.36,3c-2,2-3,5-3,9V69.2h-11v-27a11.33,11.33,0,0,0-2.48-7.74q-2.49-2.81-7.36-2.81a10.17,10.17,0,0,0-7.56,3q-3,3-3,9.14V69.2h-10.8Z" transform="translate(0 -7.84)"/><path d="M1433.29,10h10.88V69.2h-10.88Z" transform="translate(0 -7.84)"/><line class="a" y1="65.37" x2="1493" y2="65.37"/></svg>