<svg xmlns="http://www.w3.org/2000/svg" viewBox="0 0 1493 86.56"><defs><style>.a{fill:none;stroke:#000;stroke-miterlimit:10;stroke-width:10px;}</style></defs><title>java</title><path d="M29.39,40.66l19.32,8.46c2.52,1.08,2.82,2.4,2.82,3.78a3.13,3.13,0,0,1-3.3,3.24,7.1,7.1,0,0,1-3.3-.84L20.51,44.08a3.74,3.74,0,0,1,0-6.84L44.93,26a7.1,7.1,0,0,1,3.3-.84,3.13,3.13,0,0,1,3.3,3.24c0,1.38-.3,2.7-2.82,3.78Z" transform="translate(0 -4.16)"/><path d="M68.21,15.88a3.26,3.26,0,0,1,6.42.6,6,6,0,0,1-.48,2L59.81,56.2a3.26,3.26,0,0,1-6.42-.6,6,6,0,0,1,.48-2Z" transform="translate(0 -4.16)"/><path d="M98.63,40.66,79.31,32.2c-2.52-1.08-2.82-2.4-2.82-3.78a3.13,3.13,0,0,1,3.3-3.24,7.1,7.1,0,0,1,3.3.84l24.42,11.22a3.74,3.74,0,0,1,0,6.84L83.09,55.3a7.1,7.1,0,0,1-3.3.84,3.13,3.13,0,0,1-3.3-3.24c0-1.38.3-2.7,2.82-3.78Z" transform="translate(0 -4.16)"/><path d="M1263.77,62.8a6.49,6.49,0,0,1,1.76-4.76,6.39,6.39,0,0,1,4.8-1.8,6.29,6.29,0,0,1,4.76,1.8,6.64,6.64,0,0,1,1.72,4.76,6.12,6.12,0,0,1-6.56,6.48,6.26,6.26,0,0,1-4.76-1.8A6.48,6.48,0,0,1,1263.77,62.8Z" transform="translate(0 -4.16)"/><path d="M1272,80.56a32.27,32.27,0,0,0,5-.32,5.5,5.5,0,0,0,3-1.32,5.06,5.06,0,0,0,1.36-2.84,30.71,30.71,0,0,0,.32-5V22.4h10.88V71.2a38.17,38.17,0,0,1-1,9.28,13,13,0,0,1-3.2,6,12.57,12.57,0,0,1-5.88,3.24,35.92,35.92,0,0,1-9,1H1272Zm8.32-69.6A6.71,6.71,0,0,1,1282.17,6a7.54,7.54,0,0,1,10,0,6.81,6.81,0,0,1,1.8,4.92,6.68,6.68,0,0,1-1.8,4.88,7.77,7.77,0,0,1-10,0A6.74,6.74,0,0,1,1280.33,11Z" transform="translate(0 -4.16)"/><path d="M1320.25,69.28a23.21,23.21,0,0,1-8.36-1.58,22.85,22.85,0,0,1-7.4-4.59,22.58,22.58,0,0,1-5.28-7.36,23.42,23.42,0,0,1-2-9.91,24.07,24.07,0,0,1,2-10,22.18,22.18,0,0,1,12.64-12,24.29,24.29,0,0,1,8.6-1.58A21.54,21.54,0,0,1,1329,24a18,18,0,0,1,6.48,4.57V22.4h10.8V69.2h-10.8V62.55a17.74,17.74,0,0,1-6.56,4.93A20.83,20.83,0,0,1,1320.25,69.28Zm1.76-9.92a14.65,14.65,0,0,0,5.6-1,13.1,13.1,0,0,0,4.4-2.93,14.63,14.63,0,0,0,2.92-4.36,13.2,13.2,0,0,0,1.08-5.34,13.07,13.07,0,0,0-1.08-5.26A14.08,14.08,0,0,0,1332,36.1a13.46,13.46,0,0,0-4.4-2.89,15.35,15.35,0,0,0-11.16,0,14.21,14.21,0,0,0-4.52,2.86,12.84,12.84,0,0,0-3,4.28,13.19,13.19,0,0,0-1.08,5.33,13.5,13.5,0,0,0,1.08,5.38,13.12,13.12,0,0,0,3,4.35,14,14,0,0,0,4.52,2.9A14.67,14.67,0,0,0,1322,59.36Z" transform="translate(0 -4.16)"/><path d="M1350,22.4h11.29l12.08,33,11.84-33h11.12l-17.6,46.8h-10.89Z" transform="translate(0 -4.16)"/><path d="M1418.25,69.28a23.21,23.21,0,0,1-8.36-1.58,22.85,22.85,0,0,1-7.4-4.59,22.58,22.58,0,0,1-5.28-7.36,23.42,23.42,0,0,1-2-9.91,24.07,24.07,0,0,1,2-10,22.18,22.18,0,0,1,12.64-12,24.29,24.29,0,0,1,8.6-1.58A21.54,21.54,0,0,1,1427,24a18,18,0,0,1,6.48,4.57V22.4h10.8V69.2h-10.8V62.55a17.74,17.74,0,0,1-6.56,4.93A20.83,20.83,0,0,1,1418.25,69.28Zm1.76-9.92a14.65,14.65,0,0,0,5.6-1,13.1,13.1,0,0,0,4.4-2.93,14.63,14.63,0,0,0,2.92-4.36,13.2,13.2,0,0,0,1.08-5.34,13.07,13.07,0,0,0-1.08-5.26A14.08,14.08,0,0,0,1430,36.1a13.46,13.46,0,0,0-4.4-2.89,15.35,15.35,0,0,0-11.16,0,14.21,14.21,0,0,0-4.52,2.86,12.84,12.84,0,0,0-3,4.28,13.19,13.19,0,0,0-1.08,5.33,13.5,13.5,0,0,0,1.08,5.38,13.12,13.12,0,0,0,3,4.35,14,14,0,0,0,4.52,2.9A14.67,14.67,0,0,0,1420,59.36Z" transform="translate(0 -4.16)"/><line class="a" y1="69.05" x2="1493" y2="69.05"/></svg>