<svg xmlns="http://www.w3.org/2000/svg" viewBox="0 0 1493 80.72"><defs><style>.a{fill:none;stroke:#000;stroke-miterlimit:10;stroke-width:10px;}</style></defs><title>php</title><path d="M29.39,40.66l19.32,8.46c2.52,1.08,2.82,2.4,2.82,3.78a3.13,3.13,0,0,1-3.3,3.24,7.1,7.1,0,0,1-3.3-.84L20.51,44.08a3.74,3.74,0,0,1,0-6.84L44.93,26a7.1,7.1,0,0,1,3.3-.84,3.13,3.13,0,0,1,3.3,3.24c0,1.38-.3,2.7-2.82,3.78Z" transform="translate(0 -10)"/><path d="M68.21,15.88a3.26,3.26,0,0,1,6.42.6,6,6,0,0,1-.48,2L59.81,56.2a3.26,3.26,0,0,1-6.42-.6,6,6,0,0,1,.48-2Z" transform="translate(0 -10)"/><path d="M98.63,40.66,79.31,32.2c-2.52-1.08-2.82-2.4-2.82-3.78a3.13,3.13,0,0,1,3.3-3.24,7.1,7.1,0,0,1,3.3.84l24.42,11.22a3.74,3.74,0,0,1,0,6.84L83.09,55.3a7.1,7.1,0,0,1-3.3.84,3.13,3.13,0,0,1-3.3-3.24c0-1.38.3-2.7,2.82-3.78Z" transform="translate(0 -10)"/><path d="M1276.09,62.8a6.49,6.49,0,0,1,1.76-4.76,6.39,6.39,0,0,1,4.8-1.8,6.29,6.29,0,0,1,4.76,1.8,6.64,6.64,0,0,1,1.72,4.76,6.12,6.12,0,0,1-6.56,6.48,6.26,6.26,0,0,1-4.76-1.8A6.48,6.48,0,0,1,1276.09,62.8Z" transform="translate(0 -10)"/><path d="M1320,69.28a22.48,22.48,0,0,1-8.8-1.68,16,16,0,0,1-6.48-4.8V90.72H1294V22.4h10.72v6.87a17.7,17.7,0,0,1,6.44-5.06,20.08,20.08,0,0,1,8.76-1.89,24,24,0,0,1,8.56,1.58,22.06,22.06,0,0,1,7.36,4.59,22.88,22.88,0,0,1,5.16,7.36,24.23,24.23,0,0,1,2,10,23.58,23.58,0,0,1-2,9.91,23.08,23.08,0,0,1-5.24,7.36,22.57,22.57,0,0,1-7.36,4.59A23.29,23.29,0,0,1,1320,69.28Zm-1.76-9.92a14.43,14.43,0,0,0,5.52-1,14.23,14.23,0,0,0,4.48-2.9,13.12,13.12,0,0,0,3-4.35,13.5,13.5,0,0,0,1.08-5.38,13.19,13.19,0,0,0-1.08-5.33,12.84,12.84,0,0,0-3-4.28,15,15,0,0,0-15.6-2.86,13.37,13.37,0,0,0-8.32,12.47,13.52,13.52,0,0,0,1,5.34,13.8,13.8,0,0,0,2.88,4.36,12.91,12.91,0,0,0,4.4,2.93A14.58,14.58,0,0,0,1318.25,59.36Z" transform="translate(0 -10)"/><path d="M1347.45,10h10.8V28.88a17.06,17.06,0,0,1,6-4.8,17.92,17.92,0,0,1,8-1.76q8.71,0,13.64,5.18T1390.81,42V69.2h-11V43.25c0-3.6-.88-6.42-2.64-8.48s-4.4-3.09-7.92-3.09a11,11,0,0,0-4.24.82,9.86,9.86,0,0,0-3.48,2.38,11,11,0,0,0-2.32,3.91,15.75,15.75,0,0,0-.84,5.32V69.2h-10.88Z" transform="translate(0 -10)"/><path d="M1423,69.28a22.43,22.43,0,0,1-8.79-1.68,16.08,16.08,0,0,1-6.49-4.8V90.72H1397V22.4h10.72v6.87a17.73,17.73,0,0,1,6.45-5.06,20,20,0,0,1,8.75-1.89,24,24,0,0,1,8.56,1.58,21.86,21.86,0,0,1,7.36,4.59,22.58,22.58,0,0,1,5.16,7.36,24.07,24.07,0,0,1,2,10,23.42,23.42,0,0,1-2,9.91,22.92,22.92,0,0,1-5.24,7.36,22.53,22.53,0,0,1-7.35,4.59A23.3,23.3,0,0,1,1423,69.28Zm-1.75-9.92a14.31,14.31,0,0,0,10-4,13.43,13.43,0,0,0,3-4.35,13.68,13.68,0,0,0,1.08-5.38,13.36,13.36,0,0,0-1.08-5.33,13.13,13.13,0,0,0-3-4.28,14.53,14.53,0,0,0-4.49-2.86,14.34,14.34,0,0,0-5.51-1.05,14.67,14.67,0,0,0-5.61,1.05,13.38,13.38,0,0,0-8.31,12.47,13.52,13.52,0,0,0,1,5.34,13.8,13.8,0,0,0,2.88,4.36,13,13,0,0,0,4.39,2.93A14.67,14.67,0,0,0,1421.21,59.36Z" transform="translate(0 -10)"/><line class="a" y1="63.21" x2="1493" y2="63.21"/></svg>