<svg xmlns="http://www.w3.org/2000/svg" viewBox="0 0 1493 77.3"><defs><style>.a{fill:none;stroke:#000;stroke-miterlimit:10;stroke-width:10px;}</style></defs><title>py</title><path d="M29.39,40.66l19.32,8.46c2.52,1.08,2.82,2.4,2.82,3.78a3.13,3.13,0,0,1-3.3,3.24,7.1,7.1,0,0,1-3.3-.84L20.51,44.08a3.74,3.74,0,0,1,0-6.84L44.93,26a7.1,7.1,0,0,1,3.3-.84,3.13,3.13,0,0,1,3.3,3.24c0,1.38-.3,2.7-2.82,3.78Z" transform="translate(0 -13.42)"/><path d="M68.21,15.88a3.26,3.26,0,0,1,6.42.6,6,6,0,0,1-.48,2L59.81,56.2a3.26,3.26,0,0,1-6.42-.6,6,6,0,0,1,.48-2Z" transform="translate(0 -13.42)"/><path d="M98.63,40.66,79.31,32.2c-2.52-1.08-2.82-2.4-2.82-3.78a3.13,3.13,0,0,1,3.3-3.24,7.1,7.1,0,0,1,3.3.84l24.42,11.22a3.74,3.74,0,0,1,0,6.84L83.09,55.3a7.1,7.1,0,0,1-3.3.84,3.13,3.13,0,0,1-3.3-3.24c0-1.38.3-2.7,2.82-3.78Z" transform="translate(0 -13.42)"/><path d="M1333.61,62.8a6.49,6.49,0,0,1,1.76-4.76,6.39,6.39,0,0,1,4.8-1.8,6.29,6.29,0,0,1,4.76,1.8,6.64,6.64,0,0,1,1.72,4.76,6.12,6.12,0,0,1-6.56,6.48,6.26,6.26,0,0,1-4.76-1.8A6.48,6.48,0,0,1,1333.61,62.8Z" transform="translate(0 -13.42)"/><path d="M1377.52,69.28a22.51,22.51,0,0,1-8.8-1.68,16.11,16.11,0,0,1-6.48-4.8V90.72h-10.72V22.4h10.72v6.87a17.78,17.78,0,0,1,6.44-5.06,20.08,20.08,0,0,1,8.76-1.89A24,24,0,0,1,1386,23.9a21.86,21.86,0,0,1,7.36,4.59,22.58,22.58,0,0,1,5.16,7.36,24.07,24.07,0,0,1,2,10,23.42,23.42,0,0,1-2,9.91,22.92,22.92,0,0,1-5.24,7.36,22.47,22.47,0,0,1-7.36,4.59A23.21,23.21,0,0,1,1377.52,69.28Zm-1.76-9.92a14.36,14.36,0,0,0,5.52-1,14.12,14.12,0,0,0,4.48-2.9,13.12,13.12,0,0,0,3-4.35,13.5,13.5,0,0,0,1.08-5.38,13.19,13.19,0,0,0-1.08-5.33,12.84,12.84,0,0,0-3-4.28,14.47,14.47,0,0,0-10-3.91,14.65,14.65,0,0,0-5.6,1.05,13.46,13.46,0,0,0-4.4,2.89A13.85,13.85,0,0,0,1362.88,51a14.15,14.15,0,0,0,2.88,4.36,13.1,13.1,0,0,0,4.4,2.93A14.65,14.65,0,0,0,1375.76,59.36Z" transform="translate(0 -13.42)"/><path d="M1417.53,67.17l-19.2-44.77h11.52l13,32,12.32-32h11.36l-27.92,68.32h-11Z" transform="translate(0 -13.42)"/><line class="a" y1="59.79" x2="1493" y2="59.79"/></svg>