<svg xmlns="http://www.w3.org/2000/svg" viewBox="0 0 1493 75.45"><defs><style>.a{fill:none;stroke:#000;stroke-miterlimit:10;stroke-width:10px;}</style></defs><title>otf</title><path d="M1320,72.44a6.49,6.49,0,0,1,1.76-4.76,6.39,6.39,0,0,1,4.8-1.8,6.29,6.29,0,0,1,4.76,1.8,6.64,6.64,0,0,1,1.72,4.76,6.12,6.12,0,0,1-6.56,6.48,6.26,6.26,0,0,1-4.76-1.8A6.48,6.48,0,0,1,1320,72.44Z" transform="translate(0 -12.4)"/><path d="M1360.65,78.92a24.81,24.81,0,0,1-9.48-1.81,23.52,23.52,0,0,1-12.88-12.49,23.35,23.35,0,0,1,0-18.36,23.52,23.52,0,0,1,12.88-12.49,25,25,0,0,1,9.48-1.81,24.51,24.51,0,0,1,17.16,6.82,23.56,23.56,0,0,1,5.2,7.48,23.35,23.35,0,0,1,0,18.36,23.56,23.56,0,0,1-5.2,7.48,24.51,24.51,0,0,1-17.16,6.82Zm0-10.16a13.63,13.63,0,0,0,5.36-1.05,13.88,13.88,0,0,0,4.32-2.85,13.27,13.27,0,0,0,2.88-4.24,13,13,0,0,0,1-5.14,13.15,13.15,0,0,0-3.92-9.46,13.88,13.88,0,0,0-4.32-2.85,13.63,13.63,0,0,0-5.36-1.05,13.9,13.9,0,0,0-5.4,1.05,13,13,0,0,0-7.16,7.09,13.08,13.08,0,0,0-1,5.22,12.87,12.87,0,0,0,1,5.14,13,13,0,0,0,7.16,7.09A13.9,13.9,0,0,0,1360.65,68.76Z" transform="translate(0 -12.4)"/><path d="M1385.53,32h8V24.92l10.88-7.44V32h9.52v9.68h-9.52V59.24a29.64,29.64,0,0,0,.32,4.92,5.16,5.16,0,0,0,1.32,2.88,5.1,5.1,0,0,0,2.88,1.32,31.44,31.44,0,0,0,5,.32V78.84h-1.52a36.22,36.22,0,0,1-9.08-1,12,12,0,0,1-5.8-3.24,13.07,13.07,0,0,1-3.08-6,39.31,39.31,0,0,1-.92-9.32V41.72h-8Z" transform="translate(0 -12.4)"/><path d="M1417.37,32h7.92V32a29.87,29.87,0,0,1,1.08-8.6,13.18,13.18,0,0,1,3.4-5.8,13.86,13.86,0,0,1,6-3.28,34.26,34.26,0,0,1,9.08-1h1v10a25.83,25.83,0,0,0-5.12.4,5.51,5.51,0,0,0-2.92,1.44,4.92,4.92,0,0,0-1.28,2.72,26.12,26.12,0,0,0-.28,4.24h9.6v9.68h-9.6V78.84h-11V41.72h-7.92Z" transform="translate(0 -12.4)"/><line class="a" y1="70.45" x2="1493" y2="70.45"/><path d="M43.69,12.4h5.49L73.65,67.28h-8L58.38,51.11H35.1L28.28,67.28h-8ZM55.17,44.15,46.36,24.39,38.2,44.15Z" transform="translate(0 -12.4)"/><path d="M101.23,45.68V61c0,1.23.41,1.84,1.25,1.84s2.2-.64,4-1.92v4.34a23.67,23.67,0,0,1-3.89,2.13,8.56,8.56,0,0,1-3.06.56c-3,0-4.85-1.19-5.39-3.59a15.53,15.53,0,0,1-9.65,3.52,8.52,8.52,0,0,1-6.25-2.48,8.41,8.41,0,0,1-2.5-6.23A8.77,8.77,0,0,1,78.2,53a16.58,16.58,0,0,1,6.93-4.24l9.1-3.12V43.76q0-6.48-6.48-6.48-5.82,0-11.33,6V35.52q4.14-4.87,11.92-4.88,5.82,0,9.33,3a9.45,9.45,0,0,1,2.11,2.59A9.31,9.31,0,0,1,101,39.53,47.44,47.44,0,0,1,101.23,45.68Zm-7,14.49V49.51l-4.76,1.83a16.35,16.35,0,0,0-5.14,2.91,5.28,5.28,0,0,0-.08,7.29,5.06,5.06,0,0,0,3.7,1.4A8.91,8.91,0,0,0,94.23,60.17Z" transform="translate(0 -12.4)"/></svg>