<svg xmlns="http://www.w3.org/2000/svg" viewBox="0 0 1493 76.61"><defs><style>.a{fill:none;stroke:#000;stroke-miterlimit:10;stroke-width:10px;}</style></defs><title>flv</title><path d="M1336.17,62.8a6.49,6.49,0,0,1,1.76-4.76,6.39,6.39,0,0,1,4.8-1.8,6.29,6.29,0,0,1,4.76,1.8,6.64,6.64,0,0,1,1.72,4.76,6.12,6.12,0,0,1-6.56,6.48,6.26,6.26,0,0,1-4.76-1.8A6.48,6.48,0,0,1,1336.17,62.8Z" transform="translate(0 -1.6)"/><path d="M1352.33,22.4h7.92v-.08a29.87,29.87,0,0,1,1.08-8.6,13.18,13.18,0,0,1,3.4-5.8,13.86,13.86,0,0,1,6-3.28,34.26,34.26,0,0,1,9.08-1h1v10a25.83,25.83,0,0,0-5.12.4,5.51,5.51,0,0,0-2.92,1.44,4.92,4.92,0,0,0-1.28,2.72,26.12,26.12,0,0,0-.28,4.24h9.6v9.68h-9.6V69.2h-11V32.08h-7.92Z" transform="translate(0 -1.6)"/><path d="M1385.37,10h10.88V69.2h-10.88Z" transform="translate(0 -1.6)"/><path d="M1400.08,22.4h11.29l12.08,33,11.84-33h11.12l-17.6,46.8h-10.89Z" transform="translate(0 -1.6)"/><line class="a" y1="71.61" x2="1493" y2="71.61"/><path d="M84.86,22.49,50.38,2.58A7.24,7.24,0,0,0,39.52,8.85V48.67a7.24,7.24,0,0,0,10.86,6.27L84.86,35A7.24,7.24,0,0,0,84.86,22.49Z" transform="translate(0 -1.6)"/></svg>