<svg xmlns="http://www.w3.org/2000/svg" viewBox="0 0 1493 89.12"><defs><style>.a{fill:none;stroke:#000;stroke-miterlimit:10;stroke-width:10px;}</style></defs><title>mp4</title><path d="M1249.37,62.8a6.54,6.54,0,0,1,1.76-4.76,6.39,6.39,0,0,1,4.8-1.8,6.27,6.27,0,0,1,4.76,1.8,6.64,6.64,0,0,1,1.72,4.76,6.12,6.12,0,0,1-6.56,6.48,6.26,6.26,0,0,1-4.76-1.8A6.48,6.48,0,0,1,1249.37,62.8Z" transform="translate(0 -1.6)"/><path d="M1267.29,22.4H1278v6a15.74,15.74,0,0,1,5.64-4.47,17.44,17.44,0,0,1,7.72-1.65,19.17,19.17,0,0,1,9.32,2.09,14.64,14.64,0,0,1,5.88,5.87,17.57,17.57,0,0,1,6.36-5.79,18.38,18.38,0,0,1,9-2.17q9.43,0,14.24,5.14t4.8,14.1V69.2h-11V42.54a11.68,11.68,0,0,0-2.56-7.93q-2.56-2.93-7.6-2.93a10,10,0,0,0-7.36,3c-2,2-3,5-3,9V69.2h-11v-27a11.33,11.33,0,0,0-2.48-7.74q-2.49-2.81-7.36-2.81a10.17,10.17,0,0,0-7.56,3q-3,3-3,9.14V69.2h-10.8Z" transform="translate(0 -1.6)"/><path d="M1373.13,69.28a22.48,22.48,0,0,1-8.8-1.68,16,16,0,0,1-6.48-4.8V90.72h-10.72V22.4h10.72v6.87a17.7,17.7,0,0,1,6.44-5.06,20.08,20.08,0,0,1,8.76-1.89,24,24,0,0,1,8.56,1.58,22.06,22.06,0,0,1,7.36,4.59,22.88,22.88,0,0,1,5.16,7.36,24.23,24.23,0,0,1,2,10,23.58,23.58,0,0,1-2,9.91,23.08,23.08,0,0,1-5.24,7.36,22.57,22.57,0,0,1-7.36,4.59A23.29,23.29,0,0,1,1373.13,69.28Zm-1.76-9.92a14.43,14.43,0,0,0,5.52-1,14.23,14.23,0,0,0,4.48-2.9,13.12,13.12,0,0,0,3-4.35,13.5,13.5,0,0,0,1.08-5.38,13.19,13.19,0,0,0-1.08-5.33,12.84,12.84,0,0,0-3-4.28,15,15,0,0,0-15.6-2.86,13.37,13.37,0,0,0-8.32,12.47,13.52,13.52,0,0,0,1,5.34,13.8,13.8,0,0,0,2.88,4.36,12.91,12.91,0,0,0,4.4,2.93A14.58,14.58,0,0,0,1371.37,59.36Z" transform="translate(0 -1.6)"/><path d="M1425.29,55.76h-25V45.84l24.48-35h11.12v35h8.56v9.92h-8.56V69.2h-10.56Zm0-9.92V27L1412,45.84Z" transform="translate(0 -1.6)"/><line class="a" y1="71.61" x2="1493" y2="71.61"/><path d="M84.86,22.49,50.38,2.58A7.24,7.24,0,0,0,39.52,8.85V48.67a7.24,7.24,0,0,0,10.86,6.27L84.86,35A7.24,7.24,0,0,0,84.86,22.49Z" transform="translate(0 -1.6)"/></svg>