<svg xmlns="http://www.w3.org/2000/svg" viewBox="0 0 1493 89.36"><defs><style>.a{fill:none;stroke:#000;stroke-miterlimit:10;stroke-width:10px;}</style></defs><title>mpg</title><path d="M1245,62.8a6.54,6.54,0,0,1,1.76-4.76,6.39,6.39,0,0,1,4.8-1.8,6.27,6.27,0,0,1,4.76,1.8A6.59,6.59,0,0,1,1258,62.8a6.12,6.12,0,0,1-6.56,6.48,6.26,6.26,0,0,1-4.76-1.8A6.48,6.48,0,0,1,1245,62.8Z" transform="translate(0 -1.6)"/><path d="M1262.89,22.4h10.72v6a15.74,15.74,0,0,1,5.64-4.47,17.44,17.44,0,0,1,7.72-1.65,19.17,19.17,0,0,1,9.32,2.09,14.64,14.64,0,0,1,5.88,5.87,17.57,17.57,0,0,1,6.36-5.79,18.38,18.38,0,0,1,9-2.17q9.43,0,14.24,5.14t4.8,14.1V69.2h-11V42.54a11.68,11.68,0,0,0-2.56-7.93q-2.57-2.93-7.6-2.93a10,10,0,0,0-7.36,3c-2,2-3,5-3,9V69.2h-11v-27a11.33,11.33,0,0,0-2.48-7.74q-2.49-2.81-7.36-2.81a10.17,10.17,0,0,0-7.56,3q-3,3-3,9.14V69.2h-10.8Z" transform="translate(0 -1.6)"/><path d="M1368.73,69.28a22.48,22.48,0,0,1-8.8-1.68,16,16,0,0,1-6.48-4.8V90.72h-10.72V22.4h10.72v6.87a17.7,17.7,0,0,1,6.44-5.06,20.08,20.08,0,0,1,8.76-1.89,24,24,0,0,1,8.56,1.58,22.06,22.06,0,0,1,7.36,4.59,22.88,22.88,0,0,1,5.16,7.36,24.23,24.23,0,0,1,2,10,23.58,23.58,0,0,1-2,9.91,23.08,23.08,0,0,1-5.24,7.36,22.57,22.57,0,0,1-7.36,4.59A23.29,23.29,0,0,1,1368.73,69.28ZM1367,59.36a14.43,14.43,0,0,0,5.52-1,14.23,14.23,0,0,0,4.48-2.9,13.12,13.12,0,0,0,3-4.35,13.5,13.5,0,0,0,1.08-5.38,13.19,13.19,0,0,0-1.08-5.33,12.84,12.84,0,0,0-3-4.28,15,15,0,0,0-15.6-2.86,13.37,13.37,0,0,0-8.32,12.47,13.52,13.52,0,0,0,1,5.34,13.8,13.8,0,0,0,2.88,4.36,12.91,12.91,0,0,0,4.4,2.93A14.58,14.58,0,0,0,1367,59.36Z" transform="translate(0 -1.6)"/><path d="M1433.37,62.08a17.84,17.84,0,0,1-6.56,5.28,19.93,19.93,0,0,1-8.73,1.92,23.2,23.2,0,0,1-8.35-1.58,22.79,22.79,0,0,1-12.69-12,23.58,23.58,0,0,1-2-9.91,24.23,24.23,0,0,1,2-10,22.24,22.24,0,0,1,12.65-12,24.29,24.29,0,0,1,8.6-1.58,20.15,20.15,0,0,1,8.56,1.81,18.2,18.2,0,0,1,6.48,4.88V22.4h10.79v45a26.42,26.42,0,0,1-1.55,9.16,20.94,20.94,0,0,1-12.16,12.52A27.32,27.32,0,0,1,1419.93,91a31.74,31.74,0,0,1-8.28-1,25.82,25.82,0,0,1-6.69-2.8,23.63,23.63,0,0,1-5.19-4.24,26.44,26.44,0,0,1-3.84-5.4l9.6-5.84a20.5,20.5,0,0,0,5.76,7q3.2,2.32,8.79,2.32a13.27,13.27,0,0,0,5.53-1.12,12.58,12.58,0,0,0,6.84-7.28,14.67,14.67,0,0,0,.92-5.12Zm-13.52-2.72a14.65,14.65,0,0,0,5.6-1,13.1,13.1,0,0,0,4.4-2.93,14.82,14.82,0,0,0,2.92-4.36,13.2,13.2,0,0,0,1.08-5.34,13.07,13.07,0,0,0-1.08-5.26,14.25,14.25,0,0,0-2.92-4.32,13.46,13.46,0,0,0-4.4-2.89,15.35,15.35,0,0,0-11.16,0,14.1,14.1,0,0,0-4.52,2.86,12.84,12.84,0,0,0-3,4.28,13,13,0,0,0-1.08,5.33,13.33,13.33,0,0,0,1.08,5.38,13.12,13.12,0,0,0,3,4.35,13.86,13.86,0,0,0,4.52,2.9A14.67,14.67,0,0,0,1419.85,59.36Z" transform="translate(0 -1.6)"/><line class="a" y1="71.61" x2="1493" y2="71.61"/><path d="M84.86,22.49,50.38,2.58A7.24,7.24,0,0,0,39.52,8.85V48.67a7.24,7.24,0,0,0,10.86,6.27L84.86,35A7.24,7.24,0,0,0,84.86,22.49Z" transform="translate(0 -1.6)"/></svg>