<svg xmlns="http://www.w3.org/2000/svg" viewBox="0 0 1493 76.61"><defs><style>.a{fill:none;stroke:#000;stroke-miterlimit:10;stroke-width:10px;}</style></defs><title>wmv</title><path d="M1227.53,62.8a6.49,6.49,0,0,1,1.76-4.76,6.39,6.39,0,0,1,4.8-1.8,6.29,6.29,0,0,1,4.76,1.8,6.64,6.64,0,0,1,1.72,4.76,6.12,6.12,0,0,1-6.56,6.48,6.26,6.26,0,0,1-4.76-1.8A6.48,6.48,0,0,1,1227.53,62.8Z" transform="translate(0 -1.6)"/><path d="M1243.77,22.4h11l10.32,32.24,11.75-32.24h10.73l11.52,32.32,10.71-32.32h11l-16.4,46.8H1294l-11.83-32.4L1270,69.2h-10.63Z" transform="translate(0 -1.6)"/><path d="M1324.65,22.4h10.72v6A15.74,15.74,0,0,1,1341,24a17.44,17.44,0,0,1,7.72-1.65,19.1,19.1,0,0,1,9.31,2.09,14.6,14.6,0,0,1,5.89,5.87,17.57,17.57,0,0,1,6.36-5.79,18.38,18.38,0,0,1,9-2.17q9.43,0,14.24,5.14t4.8,14.1V69.2h-11V42.54a11.68,11.68,0,0,0-2.56-7.93q-2.57-2.93-7.6-2.93a10,10,0,0,0-7.36,3c-2,2-3,5-3,9V69.2h-11v-27a11.33,11.33,0,0,0-2.48-7.74q-2.49-2.81-7.36-2.81a10.17,10.17,0,0,0-7.56,3q-3,3-3,9.14V69.2h-10.8Z" transform="translate(0 -1.6)"/><path d="M1400.08,22.4h11.29l12.08,33,11.84-33h11.12l-17.6,46.8h-10.89Z" transform="translate(0 -1.6)"/><line class="a" y1="71.61" x2="1493" y2="71.61"/><path d="M84.86,22.49,50.38,2.58A7.24,7.24,0,0,0,39.52,8.85V48.67a7.24,7.24,0,0,0,10.86,6.27L84.86,35A7.24,7.24,0,0,0,84.86,22.49Z" transform="translate(0 -1.6)"/></svg>