<svg xmlns="http://www.w3.org/2000/svg" viewBox="0 0 1493 77.6"><defs><style>.a,.b{fill:none;stroke-miterlimit:10;}.a{stroke:#000;stroke-width:10px;}.b{stroke:#fff;stroke-linecap:round;stroke-width:2px;}</style></defs><title>accdb</title><path d="M1173.37,62.8a6.54,6.54,0,0,1,1.76-4.76,6.39,6.39,0,0,1,4.8-1.8,6.27,6.27,0,0,1,4.76,1.8,6.59,6.59,0,0,1,1.72,4.76,6.12,6.12,0,0,1-6.56,6.48,6.27,6.27,0,0,1-4.76-1.8A6.48,6.48,0,0,1,1173.37,62.8Z" transform="translate(0 -0.61)"/><path d="M1212.81,69.28a23.21,23.21,0,0,1-8.36-1.58,22.85,22.85,0,0,1-7.4-4.59,22.58,22.58,0,0,1-5.28-7.36,23.42,23.42,0,0,1-2-9.91,24.07,24.07,0,0,1,2-10,22.18,22.18,0,0,1,12.64-12,24.29,24.29,0,0,1,8.6-1.58,21.54,21.54,0,0,1,8.56,1.68,18,18,0,0,1,6.48,4.57V22.4h10.8V69.2H1228V62.55a17.74,17.74,0,0,1-6.56,4.93A20.83,20.83,0,0,1,1212.81,69.28Zm1.76-9.92a14.65,14.65,0,0,0,5.6-1,13.1,13.1,0,0,0,4.4-2.93,14.63,14.63,0,0,0,2.92-4.36,13.2,13.2,0,0,0,1.08-5.34,13.07,13.07,0,0,0-1.08-5.26,14.08,14.08,0,0,0-2.92-4.32,13.46,13.46,0,0,0-4.4-2.89,15.35,15.35,0,0,0-11.16,0,14.21,14.21,0,0,0-4.52,2.86,12.84,12.84,0,0,0-3,4.28,13.19,13.19,0,0,0-1.08,5.33,13.5,13.5,0,0,0,1.08,5.38,13.12,13.12,0,0,0,3,4.35,14,14,0,0,0,4.52,2.9A14.67,14.67,0,0,0,1214.57,59.36Z" transform="translate(0 -0.61)"/><path d="M1267.77,69.28a24.78,24.78,0,0,1-17.28-6.86,23.11,23.11,0,0,1-5.16-7.44,23.35,23.35,0,0,1,0-18.36,23.52,23.52,0,0,1,12.88-12.49,26.24,26.24,0,0,1,17-.75,24.67,24.67,0,0,1,6.36,2.95,22.49,22.49,0,0,1,5,4.48,23.67,23.67,0,0,1,3.52,5.73l-9.68,3.83a13,13,0,0,0-4.92-5.75,13.78,13.78,0,0,0-7.64-2.14,14.13,14.13,0,0,0-9.88,3.9,12.62,12.62,0,0,0-2.92,4.24,13.08,13.08,0,0,0-1,5.22,12.87,12.87,0,0,0,1,5.14,12.62,12.62,0,0,0,2.92,4.24,14,14,0,0,0,4.44,2.85,14.36,14.36,0,0,0,5.52,1,13.14,13.14,0,0,0,7.8-2.29,14.09,14.09,0,0,0,4.84-5.89l9.68,3.9a25,25,0,0,1-3.52,5.81,23,23,0,0,1-5,4.59,23.52,23.52,0,0,1-6.36,3A26.14,26.14,0,0,1,1267.77,69.28Z" transform="translate(0 -0.61)"/><path d="M1316.73,69.28a24.78,24.78,0,0,1-17.28-6.86,23.11,23.11,0,0,1-5.16-7.44,23.35,23.35,0,0,1,0-18.36,23.52,23.52,0,0,1,12.88-12.49,26.24,26.24,0,0,1,17-.75,24.67,24.67,0,0,1,6.36,2.95,22.49,22.49,0,0,1,5,4.48,23.67,23.67,0,0,1,3.52,5.73l-9.68,3.83a13,13,0,0,0-4.92-5.75,13.78,13.78,0,0,0-7.64-2.14,14.13,14.13,0,0,0-9.88,3.9,12.62,12.62,0,0,0-2.92,4.24,13.08,13.08,0,0,0-1,5.22,12.87,12.87,0,0,0,1,5.14,12.62,12.62,0,0,0,2.92,4.24,14,14,0,0,0,4.44,2.85,14.36,14.36,0,0,0,5.52,1,13.14,13.14,0,0,0,7.8-2.29,14.09,14.09,0,0,0,4.84-5.89l9.68,3.9a25,25,0,0,1-3.52,5.81,23,23,0,0,1-5,4.59,23.52,23.52,0,0,1-6.36,3A26.14,26.14,0,0,1,1316.73,69.28Z" transform="translate(0 -0.61)"/><path d="M1364.41,69.28a23.21,23.21,0,0,1-8.36-1.58,22.85,22.85,0,0,1-7.4-4.59,22.58,22.58,0,0,1-5.28-7.36,23.42,23.42,0,0,1-2-9.91,24.07,24.07,0,0,1,2-10,22.18,22.18,0,0,1,12.64-12,24.29,24.29,0,0,1,8.6-1.58,20.84,20.84,0,0,1,8.48,1.72,17.58,17.58,0,0,1,6.48,4.76V10h10.88V69.2h-10.8V62.55a17.74,17.74,0,0,1-6.56,4.93A20.83,20.83,0,0,1,1364.41,69.28Zm1.76-9.92a14.65,14.65,0,0,0,5.6-1,13.1,13.1,0,0,0,4.4-2.93,14.63,14.63,0,0,0,2.92-4.36,13.2,13.2,0,0,0,1.08-5.34,13.07,13.07,0,0,0-1.08-5.26,14.08,14.08,0,0,0-2.92-4.32,13.46,13.46,0,0,0-4.4-2.89,15.35,15.35,0,0,0-11.16,0,14.21,14.21,0,0,0-4.52,2.86,12.84,12.84,0,0,0-3,4.28,13.19,13.19,0,0,0-1.08,5.33,13.5,13.5,0,0,0,1.08,5.38,13.12,13.12,0,0,0,3,4.35,14,14,0,0,0,4.52,2.9A14.67,14.67,0,0,0,1366.17,59.36Z" transform="translate(0 -0.61)"/><path d="M1423.05,69.28a21.64,21.64,0,0,1-8.8-1.76,16.86,16.86,0,0,1-6.56-5V69.2H1397V10h10.8V29.2a17.77,17.77,0,0,1,6.44-5,20,20,0,0,1,8.68-1.88,24,24,0,0,1,8.56,1.58,22.06,22.06,0,0,1,7.36,4.59,22.88,22.88,0,0,1,5.16,7.36,24.23,24.23,0,0,1,2,10,23.58,23.58,0,0,1-2,9.91,23.08,23.08,0,0,1-5.24,7.36,22.61,22.61,0,0,1-7.32,4.59A23,23,0,0,1,1423.05,69.28Zm-1.84-9.92a14.43,14.43,0,0,0,5.52-1,14.23,14.23,0,0,0,4.48-2.9,13.12,13.12,0,0,0,3-4.35,13.5,13.5,0,0,0,1.08-5.38,13.19,13.19,0,0,0-1.08-5.33,12.84,12.84,0,0,0-3-4.28,14.84,14.84,0,0,0-15.52-2.86,13.75,13.75,0,0,0-4.44,2.89,12.94,12.94,0,0,0-2.92,4.32,13.38,13.38,0,0,0-1,5.26,13.52,13.52,0,0,0,4,9.7,13.37,13.37,0,0,0,4.44,2.93A14.36,14.36,0,0,0,1421.21,59.36Z" transform="translate(0 -0.61)"/><line class="a" y1="72.6" x2="1493" y2="72.6"/><path d="M94,18.45c.18-4.6-2.76-9.24-8.84-12.75-11.76-6.79-30.75-6.79-42.43,0C36.93,9.08,34,13.5,34,17.94c0,0,0,0,0-.05L34,42.35c0,4.47,2.95,9,8.86,12.37,11.76,6.79,30.75,6.79,42.43,0,5.8-3.37,8.7-7.78,8.71-12.2L94,18.07C94,18.2,94,18.32,94,18.45Zm-.07.83c0-.14,0-.28,0-.42C94,19,94,19.14,94,19.28Zm-56,7.18c.11.11.21.23.33.34C38.11,26.69,38,26.57,37.9,26.46Zm-3.85-8.09c0,.14,0,.27,0,.4C34.06,18.64,34.06,18.51,34.05,18.37Zm.07.83c0,.14,0,.27.06.41C34.15,19.47,34.14,19.34,34.12,19.2Zm.15.84c0,.13,0,.27.08.4C34.32,20.31,34.29,20.17,34.27,20Zm.21.83c0,.14.07.27.11.4C34.55,21.14,34.52,21,34.48,20.87Zm.28.83a3.12,3.12,0,0,0,.15.39A3.12,3.12,0,0,1,34.76,21.7Zm.34.82c.06.12.12.25.19.38C35.22,22.77,35.16,22.64,35.1,22.52Zm.42.81.22.38Zm.49.8c.08.12.16.25.25.37C36.17,24.38,36.09,24.25,36,24.13Zm.56.78.27.37Zm.63.78c.1.12.19.24.3.36C37.39,25.93,37.3,25.81,37.2,25.69Zm4.62,3.93-.38-.26Zm-1-.67-.39-.3Zm-.93-.7-.39-.32ZM39,27.53l-.36-.33Zm50.46-.3.44-.41Zm-4.16,3c.36-.21.71-.43,1.05-.65C86,29.84,85.68,30.06,85.32,30.27Zm1.39-.88.65-.44Zm1-.72c.19-.13.38-.27.55-.41C88.11,28.4,87.92,28.54,87.73,28.67Zm.92-.71c.16-.14.33-.27.48-.41C89,27.69,88.81,27.82,88.65,28Zm5.25-8.27-.09.42Zm-.17.82-.12.42Zm-.24.82c0,.14-.1.28-.16.42C93.39,21.61,93.44,21.47,93.49,21.33Zm-.3.82c-.06.14-.13.28-.2.42C93.06,22.43,93.13,22.29,93.19,22.15Zm-.38.81-.23.41Zm-.44.79c-.08.14-.18.28-.27.42C92.19,24,92.29,23.89,92.37,23.75Zm-.51.79-.31.41Zm-.58.78-.34.4Zm-.65.76c-.12.14-.26.27-.39.41C90.37,26.35,90.51,26.22,90.63,26.08Z" transform="translate(0 -0.61)"/><path class="b" d="M40.84,22.21c.63.44,1.3.87,2,1.28,11.76,6.79,30.75,6.79,42.43,0q1.06-.63,2-1.29" transform="translate(0 -0.61)"/></svg>