<svg xmlns="http://www.w3.org/2000/svg" viewBox="0 0 1493 90.35"><defs><style>.a,.b{fill:none;stroke-miterlimit:10;}.a{stroke:#000;stroke-width:10px;}.b{stroke:#fff;stroke-linecap:round;stroke-width:2px;}</style></defs><title>log</title><path d="M1309.45,62.8a6.54,6.54,0,0,1,1.76-4.76,6.39,6.39,0,0,1,4.8-1.8,6.27,6.27,0,0,1,4.76,1.8,6.59,6.59,0,0,1,1.72,4.76,6.12,6.12,0,0,1-6.56,6.48,6.27,6.27,0,0,1-4.76-1.8A6.48,6.48,0,0,1,1309.45,62.8Z" transform="translate(0 -0.61)"/><path d="M1327.37,10h10.88V69.2h-10.88Z" transform="translate(0 -0.61)"/><path d="M1367.21,69.28a25,25,0,0,1-9.48-1.81A23.52,23.52,0,0,1,1344.85,55a23.35,23.35,0,0,1,0-18.36,23.52,23.52,0,0,1,12.88-12.49,24.81,24.81,0,0,1,9.48-1.81,24.51,24.51,0,0,1,17.16,6.82,23.56,23.56,0,0,1,5.2,7.48,23.35,23.35,0,0,1,0,18.36,23.56,23.56,0,0,1-5.2,7.48,24.51,24.51,0,0,1-17.16,6.82Zm0-10.16a13.63,13.63,0,0,0,5.36-1,13.88,13.88,0,0,0,4.32-2.85,13.27,13.27,0,0,0,2.88-4.24,13,13,0,0,0,1-5.14,13.15,13.15,0,0,0-3.92-9.46,13.88,13.88,0,0,0-4.32-2.85,13.63,13.63,0,0,0-5.36-1.05,13.9,13.9,0,0,0-5.4,1.05,13,13,0,0,0-7.16,7.09,13.08,13.08,0,0,0-1,5.22,12.87,12.87,0,0,0,1,5.14,13,13,0,0,0,7.16,7.09A13.9,13.9,0,0,0,1367.21,59.12Z" transform="translate(0 -0.61)"/><path d="M1433.37,62.08a17.84,17.84,0,0,1-6.56,5.28,19.92,19.92,0,0,1-8.72,1.92,23.21,23.21,0,0,1-8.36-1.58,22.85,22.85,0,0,1-7.4-4.59,22.58,22.58,0,0,1-5.28-7.36,23.42,23.42,0,0,1-2-9.91,24.07,24.07,0,0,1,2-10,22.18,22.18,0,0,1,12.64-12,24.29,24.29,0,0,1,8.6-1.58,20.15,20.15,0,0,1,8.56,1.81,18.2,18.2,0,0,1,6.48,4.88V22.4h10.8v45a26.42,26.42,0,0,1-1.56,9.16,20.94,20.94,0,0,1-12.16,12.52A27.32,27.32,0,0,1,1419.93,91a31.74,31.74,0,0,1-8.28-1,25.6,25.6,0,0,1-6.68-2.8,23.46,23.46,0,0,1-5.2-4.24,26.44,26.44,0,0,1-3.84-5.4l9.6-5.84a20.5,20.5,0,0,0,5.76,7q3.2,2.32,8.8,2.32a13.25,13.25,0,0,0,5.52-1.12,12.58,12.58,0,0,0,6.84-7.28,14.67,14.67,0,0,0,.92-5.12Zm-13.52-2.72a14.65,14.65,0,0,0,5.6-1,13.1,13.1,0,0,0,4.4-2.93,14.63,14.63,0,0,0,2.92-4.36,13.2,13.2,0,0,0,1.08-5.34,13.07,13.07,0,0,0-1.08-5.26,14.08,14.08,0,0,0-2.92-4.32,13.46,13.46,0,0,0-4.4-2.89,15.35,15.35,0,0,0-11.16,0,14.21,14.21,0,0,0-4.52,2.86,12.84,12.84,0,0,0-3,4.28,13.19,13.19,0,0,0-1.08,5.33,13.5,13.5,0,0,0,1.08,5.38,13.12,13.12,0,0,0,3,4.35,14,14,0,0,0,4.52,2.9A14.67,14.67,0,0,0,1419.85,59.36Z" transform="translate(0 -0.61)"/><line class="a" y1="72.6" x2="1493" y2="72.6"/><path d="M94,18.45c.18-4.6-2.76-9.24-8.84-12.75-11.76-6.79-30.75-6.79-42.43,0C36.93,9.08,34,13.5,34,17.94c0,0,0,0,0-.05L34,42.35c0,4.47,2.95,9,8.86,12.37,11.76,6.79,30.75,6.79,42.43,0,5.8-3.37,8.7-7.78,8.71-12.2L94,18.07C94,18.2,94,18.32,94,18.45Zm-.07.83c0-.14,0-.28,0-.42C94,19,94,19.14,94,19.28Zm-56,7.18c.11.11.21.23.33.34C38.11,26.69,38,26.57,37.9,26.46Zm-3.85-8.09c0,.14,0,.27,0,.4C34.06,18.64,34.06,18.51,34.05,18.37Zm.07.83c0,.14,0,.27.06.41C34.15,19.47,34.14,19.34,34.12,19.2Zm.15.84c0,.13,0,.27.08.4C34.32,20.31,34.29,20.17,34.27,20Zm.21.83c0,.14.07.27.11.4C34.55,21.14,34.52,21,34.48,20.87Zm.28.83a3.12,3.12,0,0,0,.15.39A3.12,3.12,0,0,1,34.76,21.7Zm.34.82c.06.12.12.25.19.38C35.22,22.77,35.16,22.64,35.1,22.52Zm.42.81.22.38Zm.49.8c.08.12.16.25.25.37C36.17,24.38,36.09,24.25,36,24.13Zm.56.78.27.37Zm.63.78c.1.12.19.24.3.36C37.39,25.93,37.3,25.81,37.2,25.69Zm4.62,3.93-.38-.26Zm-1-.67-.39-.3Zm-.93-.7-.39-.32ZM39,27.53l-.36-.33Zm50.46-.3.44-.41Zm-4.16,3c.36-.21.71-.43,1.05-.65C86,29.84,85.68,30.06,85.32,30.27Zm1.39-.88.65-.44Zm1-.72c.19-.13.38-.27.55-.41C88.11,28.4,87.92,28.54,87.73,28.67Zm.92-.71c.16-.14.33-.27.48-.41C89,27.69,88.81,27.82,88.65,28Zm5.25-8.27-.09.42Zm-.17.82-.12.42Zm-.24.82c0,.14-.1.28-.16.42C93.39,21.61,93.44,21.47,93.49,21.33Zm-.3.82c-.06.14-.13.28-.2.42C93.06,22.43,93.13,22.29,93.19,22.15Zm-.38.81-.23.41Zm-.44.79c-.08.14-.18.28-.27.42C92.19,24,92.29,23.89,92.37,23.75Zm-.51.79-.31.41Zm-.58.78-.34.4Zm-.65.76c-.12.14-.26.27-.39.41C90.37,26.35,90.51,26.22,90.63,26.08Z" transform="translate(0 -0.61)"/><path class="b" d="M40.84,22.21c.63.44,1.3.87,2,1.28,11.76,6.79,30.75,6.79,42.43,0q1.06-.63,2-1.29" transform="translate(0 -0.61)"/></svg>